M48
; DRILL file {KiCad 7.0.0-1.fc37} date Mon 05 Jun 2023 08:34:37 CEST
; FORMAT={-:-/ absolute / inch / decimal}
; #@! TF.CreationDate,2023-06-05T08:34:37+02:00
; #@! TF.GenerationSoftware,Kicad,Pcbnew,7.0.0-1.fc37
; #@! TF.FileFunction,Plated,1,2,PTH
FMAT,2
INCH
; #@! TA.AperFunction,Plated,PTH,ViaDrill
T1C0.0157
; #@! TA.AperFunction,Plated,PTH,ComponentDrill
T2C0.0315
; #@! TA.AperFunction,Plated,PTH,ComponentDrill
T3C0.0394
; #@! TA.AperFunction,Plated,PTH,ComponentDrill
T4C0.0472
; #@! TA.AperFunction,Plated,PTH,ComponentDrill
T5C0.0512
; #@! TA.AperFunction,Plated,PTH,ComponentDrill
T6C0.1378
%
G90
G05
T1
X2.9134Y-4.0472
X3.6063Y-4.0472
X3.6102Y-4.7598
X3.7795Y-3.9173
X3.8504Y-3.9252
X4.1732Y-3.8071
X4.3189Y-3.7323
X4.8465Y-4.2874
X4.9793Y-4.1024
X5.063Y-4.2205
X5.0709Y-4.0679
X5.1299Y-4.0472
X5.1654Y-4.0827
X5.2008Y-3.6535
X5.2244Y-4.0472
X5.2598Y-4.1417
X5.2953Y-4.0827
X5.3189Y-4.0039
X5.4646Y-3.8622
X5.4803Y-3.9843
X5.5079Y-3.7992
X5.5827Y-3.7756
X5.6181Y-4.1693
X5.8228Y-4.2756
X5.9449Y-4.311
X6.2165Y-4.2677
X7.1378Y-5.0039
T2
X3.2302Y-3.9161
X3.368Y-3.9161
X4.5866Y-3.7363
X4.5866Y-3.8741
T3
X2.4803Y-4.7372
X2.4803Y-4.8372
X2.4803Y-4.9372
X2.4803Y-5.0963
X2.4803Y-5.1963
X2.4803Y-5.2963
X2.8841Y-4.4882
X2.9841Y-4.4882
X3.0841Y-4.4882
X3.1841Y-4.4882
X3.2841Y-4.4882
X3.3841Y-4.4882
X3.4841Y-4.4882
X3.5841Y-4.4882
X3.6841Y-4.4882
X3.7841Y-4.4882
X3.8841Y-4.4882
X3.9841Y-4.4882
X4.0841Y-4.4882
X4.1841Y-4.4882
X4.2841Y-4.4882
X4.3841Y-4.4882
X6.7551Y-5.2165
X6.8551Y-5.2165
X6.9551Y-5.2165
X7.0551Y-5.2165
X7.1551Y-5.2165
T4
X3.6535Y-4.9094
X3.8504Y-4.9094
X4.0472Y-4.9094
X4.4193Y-4.9094
X4.6161Y-4.9094
X4.813Y-4.9094
X5.185Y-4.9094
X5.3819Y-4.9094
X5.5787Y-4.9094
X5.9508Y-4.9094
X6.1476Y-4.9094
X6.3445Y-4.9094
T5
X3.1102Y-4.7638
X3.1102Y-4.9606
X3.3071Y-4.8622
T6
X2.5896Y-2.9921
X2.5896Y-4.4488
X7.1171Y-2.9921
X7.1171Y-4.4488
T3
G00X2.0669Y-3.5039
M15
G01X2.0669Y-3.5827
M16
G05
G00X2.1457Y-3.7283
M15
G01X2.2244Y-3.7283
M16
G05
G00X2.3031Y-3.5039
M15
G01X2.3031Y-3.5827
M16
G05
T0
M30
