%TF.GenerationSoftware,KiCad,Pcbnew,7.0.0-1.fc37*%
%TF.CreationDate,2023-06-05T08:34:40+02:00*%
%TF.ProjectId,smokePID,736d6f6b-6550-4494-942e-6b696361645f,rev?*%
%TF.SameCoordinates,Original*%
%TF.FileFunction,Soldermask,Bot*%
%TF.FilePolarity,Negative*%
%FSLAX46Y46*%
G04 Gerber Fmt 4.6, Leading zero omitted, Abs format (unit mm)*
G04 Created by KiCad (PCBNEW 7.0.0-1.fc37) date 2023-06-05 08:34:40*
%MOMM*%
%LPD*%
G01*
G04 APERTURE LIST*
G04 Aperture macros list*
%AMRoundRect*
0 Rectangle with rounded corners*
0 $1 Rounding radius*
0 $2 $3 $4 $5 $6 $7 $8 $9 X,Y pos of 4 corners*
0 Add a 4 corners polygon primitive as box body*
4,1,4,$2,$3,$4,$5,$6,$7,$8,$9,$2,$3,0*
0 Add four circle primitives for the rounded corners*
1,1,$1+$1,$2,$3*
1,1,$1+$1,$4,$5*
1,1,$1+$1,$6,$7*
1,1,$1+$1,$8,$9*
0 Add four rect primitives between the rounded corners*
20,1,$1+$1,$2,$3,$4,$5,0*
20,1,$1+$1,$4,$5,$6,$7,0*
20,1,$1+$1,$6,$7,$8,$9,0*
20,1,$1+$1,$8,$9,$2,$3,0*%
G04 Aperture macros list end*
%ADD10R,1.600000X1.600000*%
%ADD11C,1.600000*%
%ADD12C,3.200000*%
%ADD13R,3.500000X3.500000*%
%ADD14RoundRect,0.750000X-0.750000X-1.000000X0.750000X-1.000000X0.750000X1.000000X-0.750000X1.000000X0*%
%ADD15RoundRect,0.875000X-0.875000X-0.875000X0.875000X-0.875000X0.875000X0.875000X-0.875000X0.875000X0*%
%ADD16R,1.700000X1.700000*%
%ADD17O,1.700000X1.700000*%
%ADD18R,3.000000X3.000000*%
%ADD19C,3.000000*%
%ADD20C,6.500000*%
%ADD21C,2.340000*%
G04 APERTURE END LIST*
D10*
%TO.C,C3*%
X82047348Y-99469999D03*
D11*
X85547349Y-99470000D03*
%TD*%
D12*
%TO.C,H4*%
X52000000Y-133000000D03*
%TD*%
D13*
%TO.C,J2*%
X58499999Y-89999999D03*
D14*
X52500000Y-90000000D03*
D15*
X55500000Y-94700000D03*
%TD*%
D10*
%TO.C,C9*%
X116499999Y-98402650D03*
D11*
X116500000Y-94902651D03*
%TD*%
D16*
%TO.C,M1*%
X62999999Y-120324999D03*
D17*
X62999999Y-122864999D03*
X62999999Y-125404999D03*
%TD*%
D16*
%TO.C,J1*%
X171579999Y-132499999D03*
D17*
X174119999Y-132499999D03*
X176659999Y-132499999D03*
X179199999Y-132499999D03*
X181739999Y-132499999D03*
%TD*%
D16*
%TO.C,U5*%
X62999999Y-134524999D03*
D17*
X62999999Y-131984999D03*
X62999999Y-129444999D03*
%TD*%
D12*
%TO.C,H2*%
X189000000Y-68000000D03*
%TD*%
D18*
%TO.C,RV1*%
X92799999Y-124699999D03*
D19*
X97800000Y-124700000D03*
X102800000Y-124700000D03*
%TD*%
D12*
%TO.C,H1*%
X52000000Y-68000000D03*
%TD*%
D18*
%TO.C,RV4*%
X151149999Y-124699999D03*
D19*
X156150000Y-124700000D03*
X161150000Y-124700000D03*
%TD*%
D20*
%TO.C,U2*%
X65775000Y-76000000D03*
X65775000Y-113000000D03*
X180775000Y-76000000D03*
X180775000Y-113000000D03*
D17*
X106274999Y-113999999D03*
X103734999Y-113999999D03*
X101194999Y-113999999D03*
X98654999Y-113999999D03*
X96114999Y-113999999D03*
X93574999Y-113999999D03*
X91034999Y-113999999D03*
X88494999Y-113999999D03*
X85954999Y-113999999D03*
X83414999Y-113999999D03*
X80874999Y-113999999D03*
X78334999Y-113999999D03*
X75794999Y-113999999D03*
X73254999Y-113999999D03*
X111354999Y-113999999D03*
X108814999Y-113999999D03*
%TD*%
D12*
%TO.C,H3*%
X189000000Y-133000000D03*
%TD*%
D18*
%TO.C,RV2*%
X112249999Y-124699999D03*
D19*
X117250000Y-124700000D03*
X122250000Y-124700000D03*
%TD*%
D21*
%TO.C,RV5*%
X79000000Y-121000000D03*
X84000000Y-123500000D03*
X79000000Y-126000000D03*
%TD*%
D18*
%TO.C,RV3*%
X131699999Y-124699999D03*
D19*
X136700000Y-124700000D03*
X141700000Y-124700000D03*
%TD*%
M02*
