%TF.GenerationSoftware,KiCad,Pcbnew,7.0.0-1.fc37*%
%TF.CreationDate,2023-06-05T08:34:40+02:00*%
%TF.ProjectId,smokePID,736d6f6b-6550-4494-942e-6b696361645f,rev?*%
%TF.SameCoordinates,Original*%
%TF.FileFunction,Copper,L2,Bot*%
%TF.FilePolarity,Positive*%
%FSLAX46Y46*%
G04 Gerber Fmt 4.6, Leading zero omitted, Abs format (unit mm)*
G04 Created by KiCad (PCBNEW 7.0.0-1.fc37) date 2023-06-05 08:34:40*
%MOMM*%
%LPD*%
G01*
G04 APERTURE LIST*
G04 Aperture macros list*
%AMRoundRect*
0 Rectangle with rounded corners*
0 $1 Rounding radius*
0 $2 $3 $4 $5 $6 $7 $8 $9 X,Y pos of 4 corners*
0 Add a 4 corners polygon primitive as box body*
4,1,4,$2,$3,$4,$5,$6,$7,$8,$9,$2,$3,0*
0 Add four circle primitives for the rounded corners*
1,1,$1+$1,$2,$3*
1,1,$1+$1,$4,$5*
1,1,$1+$1,$6,$7*
1,1,$1+$1,$8,$9*
0 Add four rect primitives between the rounded corners*
20,1,$1+$1,$2,$3,$4,$5,0*
20,1,$1+$1,$4,$5,$6,$7,0*
20,1,$1+$1,$6,$7,$8,$9,0*
20,1,$1+$1,$8,$9,$2,$3,0*%
G04 Aperture macros list end*
%TA.AperFunction,ComponentPad*%
%ADD10R,1.600000X1.600000*%
%TD*%
%TA.AperFunction,ComponentPad*%
%ADD11C,1.600000*%
%TD*%
%TA.AperFunction,ComponentPad*%
%ADD12R,3.500000X3.500000*%
%TD*%
%TA.AperFunction,ComponentPad*%
%ADD13RoundRect,0.750000X-0.750000X-1.000000X0.750000X-1.000000X0.750000X1.000000X-0.750000X1.000000X0*%
%TD*%
%TA.AperFunction,ComponentPad*%
%ADD14RoundRect,0.875000X-0.875000X-0.875000X0.875000X-0.875000X0.875000X0.875000X-0.875000X0.875000X0*%
%TD*%
%TA.AperFunction,ComponentPad*%
%ADD15R,1.700000X1.700000*%
%TD*%
%TA.AperFunction,ComponentPad*%
%ADD16O,1.700000X1.700000*%
%TD*%
%TA.AperFunction,ComponentPad*%
%ADD17R,3.000000X3.000000*%
%TD*%
%TA.AperFunction,ComponentPad*%
%ADD18C,3.000000*%
%TD*%
%TA.AperFunction,ComponentPad*%
%ADD19C,6.500000*%
%TD*%
%TA.AperFunction,ComponentPad*%
%ADD20C,2.340000*%
%TD*%
%TA.AperFunction,ViaPad*%
%ADD21C,0.800000*%
%TD*%
%TA.AperFunction,Conductor*%
%ADD22C,0.250000*%
%TD*%
G04 APERTURE END LIST*
D10*
%TO.P,C3,1*%
%TO.N,+3V3*%
X82047348Y-99469999D03*
D11*
%TO.P,C3,2*%
%TO.N,GND*%
X85547349Y-99470000D03*
%TD*%
D12*
%TO.P,J2,1*%
%TO.N,+5V*%
X58499999Y-89999999D03*
D13*
%TO.P,J2,2*%
%TO.N,GND*%
X52500000Y-90000000D03*
D14*
%TO.P,J2,3*%
X55500000Y-94700000D03*
%TD*%
D10*
%TO.P,C9,1*%
%TO.N,+3V3*%
X116499999Y-98402650D03*
D11*
%TO.P,C9,2*%
%TO.N,GND*%
X116500000Y-94902651D03*
%TD*%
D15*
%TO.P,M1,1,PWM*%
%TO.N,/SERVO*%
X62999999Y-120324999D03*
D16*
%TO.P,M1,2,+*%
%TO.N,+5V*%
X62999999Y-122864999D03*
%TO.P,M1,3,-*%
%TO.N,GND*%
X62999999Y-125404999D03*
%TD*%
D15*
%TO.P,J1,1,Pin_1*%
%TO.N,+3V3*%
X171579999Y-132499999D03*
D16*
%TO.P,J1,2,Pin_2*%
%TO.N,/SWDCLK*%
X174119999Y-132499999D03*
%TO.P,J1,3,Pin_3*%
%TO.N,GND*%
X176659999Y-132499999D03*
%TO.P,J1,4,Pin_4*%
%TO.N,/SWDIO*%
X179199999Y-132499999D03*
%TO.P,J1,5,Pin_5*%
%TO.N,/RSTn*%
X181739999Y-132499999D03*
%TD*%
D15*
%TO.P,U5,1,+V_{S}*%
%TO.N,+5V*%
X62999999Y-134524999D03*
D16*
%TO.P,U5,2,V_{OUT}*%
%TO.N,Net-(U5-V_{OUT})*%
X62999999Y-131984999D03*
%TO.P,U5,3,GND*%
%TO.N,GND*%
X62999999Y-129444999D03*
%TD*%
D17*
%TO.P,RV1,1,1*%
%TO.N,+3V3*%
X92799999Y-124699999D03*
D18*
%TO.P,RV1,2,2*%
%TO.N,Net-(R6-Pad1)*%
X97800000Y-124700000D03*
%TO.P,RV1,3,3*%
%TO.N,GND*%
X102800000Y-124700000D03*
%TD*%
D17*
%TO.P,RV4,1,1*%
%TO.N,+3V3*%
X151149999Y-124699999D03*
D18*
%TO.P,RV4,2,2*%
%TO.N,Net-(R3-Pad1)*%
X156150000Y-124700000D03*
%TO.P,RV4,3,3*%
%TO.N,GND*%
X161150000Y-124700000D03*
%TD*%
D19*
%TO.P,U2,*%
%TO.N,*%
X65775000Y-76000000D03*
X65775000Y-113000000D03*
X180775000Y-76000000D03*
X180775000Y-113000000D03*
D16*
%TO.P,U2,1,VSS*%
%TO.N,GND*%
X106274999Y-113999999D03*
%TO.P,U2,2,VDD*%
%TO.N,+5V*%
X103734999Y-113999999D03*
%TO.P,U2,3,VO*%
%TO.N,Net-(U2-VO)*%
X101194999Y-113999999D03*
%TO.P,U2,4,RS*%
%TO.N,/DISP_RS*%
X98654999Y-113999999D03*
%TO.P,U2,5,R/W*%
%TO.N,GND*%
X96114999Y-113999999D03*
%TO.P,U2,6,E*%
%TO.N,/DISP_E*%
X93574999Y-113999999D03*
%TO.P,U2,7,DB0*%
%TO.N,unconnected-(U2-DB0-Pad7)*%
X91034999Y-113999999D03*
%TO.P,U2,8,DB1*%
%TO.N,unconnected-(U2-DB1-Pad8)*%
X88494999Y-113999999D03*
%TO.P,U2,9,DB2*%
%TO.N,unconnected-(U2-DB2-Pad9)*%
X85954999Y-113999999D03*
%TO.P,U2,10,DB3*%
%TO.N,unconnected-(U2-DB3-Pad10)*%
X83414999Y-113999999D03*
%TO.P,U2,11,DB4*%
%TO.N,/DISP_D4*%
X80874999Y-113999999D03*
%TO.P,U2,12,DB5*%
%TO.N,/DISP_D5*%
X78334999Y-113999999D03*
%TO.P,U2,13,DB6*%
%TO.N,/DISP_D6*%
X75794999Y-113999999D03*
%TO.P,U2,14,DB7*%
%TO.N,/DISP_D7*%
X73254999Y-113999999D03*
%TO.P,U2,15,A*%
%TO.N,+5V*%
X111354999Y-113999999D03*
%TO.P,U2,16,K*%
%TO.N,GND*%
X108814999Y-113999999D03*
%TD*%
D17*
%TO.P,RV2,1,1*%
%TO.N,+3V3*%
X112249999Y-124699999D03*
D18*
%TO.P,RV2,2,2*%
%TO.N,Net-(R5-Pad1)*%
X117250000Y-124700000D03*
%TO.P,RV2,3,3*%
%TO.N,GND*%
X122250000Y-124700000D03*
%TD*%
D20*
%TO.P,RV5,1,1*%
%TO.N,GND*%
X79000000Y-121000000D03*
%TO.P,RV5,2,2*%
%TO.N,Net-(U2-VO)*%
X84000000Y-123500000D03*
%TO.P,RV5,3,3*%
%TO.N,+5V*%
X79000000Y-126000000D03*
%TD*%
D17*
%TO.P,RV3,1,1*%
%TO.N,+3V3*%
X131699999Y-124699999D03*
D18*
%TO.P,RV3,2,2*%
%TO.N,Net-(R4-Pad1)*%
X136700000Y-124700000D03*
%TO.P,RV3,3,3*%
%TO.N,GND*%
X141700000Y-124700000D03*
%TD*%
D21*
%TO.N,+5V*%
X123100000Y-108900000D03*
X128600000Y-107200000D03*
%TO.N,+3V3*%
X181300000Y-127100000D03*
X138800000Y-98100000D03*
%TO.N,/TEMP*%
X91700000Y-120900000D03*
X126474500Y-104200902D03*
%TO.N,/SWDCLK*%
X141800000Y-95900000D03*
X151000000Y-109500000D03*
%TO.N,/SWDIO*%
X139900000Y-96500000D03*
X147900000Y-108600000D03*
%TO.N,/RSTn*%
X157900000Y-108400000D03*
X132100000Y-92800000D03*
%TO.N,/SERVO*%
X91600000Y-102800000D03*
X74000000Y-102800000D03*
X133600000Y-105200000D03*
%TO.N,/STATUS_LED*%
X142700000Y-105900000D03*
X134500000Y-103700000D03*
%TO.N,/DISP_RS*%
X97800000Y-99700000D03*
X106000000Y-96700000D03*
%TO.N,/DISP_E*%
X96000000Y-99500000D03*
X109700000Y-94800000D03*
%TO.N,/DISP_D7*%
X132700000Y-102800000D03*
%TO.N,/DISP_D6*%
X131200000Y-103700000D03*
%TO.N,/DISP_D5*%
X130300000Y-102800000D03*
%TO.N,/DISP_D4*%
X128800000Y-103324500D03*
%TO.N,/PA5*%
X139200000Y-101200000D03*
X135100000Y-101700000D03*
%TD*%
D22*
%TO.N,+5V*%
X61825000Y-133350000D02*
X61825000Y-124040000D01*
X79000000Y-126000000D02*
X66135000Y-126000000D01*
X66135000Y-126000000D02*
X63000000Y-122865000D01*
X63000000Y-134525000D02*
X61825000Y-133350000D01*
X128600000Y-107200000D02*
X126900000Y-108900000D01*
X126900000Y-108900000D02*
X123100000Y-108900000D01*
X61825000Y-124040000D02*
X63000000Y-122865000D01*
%TO.N,GND*%
X139875000Y-126525000D02*
X124075000Y-126525000D01*
X120425000Y-126525000D02*
X104625000Y-126525000D01*
X159325000Y-126525000D02*
X143525000Y-126525000D01*
X104625000Y-126525000D02*
X102800000Y-124700000D01*
X143525000Y-126525000D02*
X141700000Y-124700000D01*
X141700000Y-124700000D02*
X139875000Y-126525000D01*
X161150000Y-124700000D02*
X159325000Y-126525000D01*
X122250000Y-124700000D02*
X120425000Y-126525000D01*
X124075000Y-126525000D02*
X122250000Y-124700000D01*
%TO.N,+3V3*%
X116500000Y-98402651D02*
X138497349Y-98402651D01*
X87100000Y-119000000D02*
X92800000Y-124700000D01*
X82047349Y-99470000D02*
X83172349Y-100595000D01*
X176980000Y-127100000D02*
X181300000Y-127100000D01*
X83172349Y-100595000D02*
X114307651Y-100595000D01*
X114307651Y-100595000D02*
X116500000Y-98402651D01*
X79030000Y-99470000D02*
X74430000Y-104070000D01*
X138497349Y-98402651D02*
X138800000Y-98100000D01*
X82047349Y-99470000D02*
X79030000Y-99470000D01*
X74430000Y-104070000D02*
X74430000Y-107570000D01*
X74430000Y-107570000D02*
X71000000Y-111000000D01*
X71000000Y-113500000D02*
X76500000Y-119000000D01*
X171580000Y-132500000D02*
X176980000Y-127100000D01*
X76500000Y-119000000D02*
X87100000Y-119000000D01*
X71000000Y-111000000D02*
X71000000Y-113500000D01*
%TO.N,/TEMP*%
X126474500Y-104200902D02*
X126099098Y-104200902D01*
X109400000Y-120900000D02*
X91700000Y-120900000D01*
X126099098Y-104200902D02*
X109400000Y-120900000D01*
%TO.N,/SWDCLK*%
X151000000Y-109500000D02*
X141800000Y-100300000D01*
X141800000Y-100300000D02*
X141800000Y-95900000D01*
%TO.N,/SWDIO*%
X140287701Y-100987701D02*
X147900000Y-108600000D01*
X140287701Y-96887701D02*
X140287701Y-100987701D01*
X139900000Y-96500000D02*
X140287701Y-96887701D01*
%TO.N,/RSTn*%
X157900000Y-108400000D02*
X143100000Y-93600000D01*
X132900000Y-93600000D02*
X132100000Y-92800000D01*
X143100000Y-93600000D02*
X132900000Y-93600000D01*
%TO.N,/SERVO*%
X92700000Y-101700000D02*
X91600000Y-102800000D01*
X63505814Y-120325000D02*
X70550000Y-113280814D01*
X133600000Y-101100000D02*
X133200000Y-100700000D01*
X133200000Y-100700000D02*
X114839047Y-100700000D01*
X133600000Y-105200000D02*
X133600000Y-101100000D01*
X74000000Y-103400000D02*
X74000000Y-102800000D01*
X70550000Y-113280814D02*
X70550000Y-106850000D01*
X113839047Y-101700000D02*
X92700000Y-101700000D01*
X70550000Y-106850000D02*
X74000000Y-103400000D01*
X114839047Y-100700000D02*
X113839047Y-101700000D01*
X63000000Y-120325000D02*
X63505814Y-120325000D01*
%TO.N,/STATUS_LED*%
X134500000Y-103700000D02*
X136700000Y-105900000D01*
X136700000Y-105900000D02*
X142700000Y-105900000D01*
%TO.N,/DISP_RS*%
X98100000Y-99300000D02*
X97800000Y-99600000D01*
X106000000Y-96700000D02*
X100700000Y-96700000D01*
X97800000Y-99600000D02*
X97800000Y-99700000D01*
X100700000Y-96700000D02*
X98100000Y-99300000D01*
%TO.N,/DISP_E*%
X109700000Y-94800000D02*
X100700000Y-94800000D01*
X100700000Y-94800000D02*
X96000000Y-99500000D01*
%TO.N,/DISP_D7*%
X132700000Y-102800000D02*
X131500000Y-101600000D01*
X74800000Y-111700000D02*
X74800000Y-112455000D01*
X131500000Y-101600000D02*
X121363604Y-101600000D01*
X121363604Y-101600000D02*
X119413604Y-103550000D01*
X119413604Y-103550000D02*
X82950000Y-103550000D01*
X74800000Y-112455000D02*
X73255000Y-114000000D01*
X82950000Y-103550000D02*
X74800000Y-111700000D01*
%TO.N,/DISP_D6*%
X121677208Y-102050000D02*
X130575305Y-102050000D01*
X130575305Y-102050000D02*
X131200000Y-102674695D01*
X119727208Y-104000000D02*
X121677208Y-102050000D01*
X78400000Y-108800000D02*
X83200000Y-104000000D01*
X131200000Y-102674695D02*
X131200000Y-103700000D01*
X83200000Y-104000000D02*
X119727208Y-104000000D01*
X78400000Y-111395000D02*
X78400000Y-108800000D01*
X75795000Y-114000000D02*
X78400000Y-111395000D01*
%TO.N,/DISP_D5*%
X130099500Y-102599500D02*
X126300500Y-102599500D01*
X121313604Y-103050000D02*
X119913604Y-104450000D01*
X83450000Y-104450000D02*
X80300000Y-107600000D01*
X80300000Y-107600000D02*
X80300000Y-112035000D01*
X80300000Y-112035000D02*
X78335000Y-114000000D01*
X125850000Y-103050000D02*
X121313604Y-103050000D01*
X119913604Y-104450000D02*
X83450000Y-104450000D01*
X126300500Y-102599500D02*
X125850000Y-103050000D01*
X130300000Y-102800000D02*
X130099500Y-102599500D01*
%TO.N,/DISP_D4*%
X126325597Y-103324500D02*
X126150097Y-103500000D01*
X120100000Y-104900000D02*
X83700000Y-104900000D01*
X80875000Y-107725000D02*
X80875000Y-114000000D01*
X128800000Y-103324500D02*
X126325597Y-103324500D01*
X121500000Y-103500000D02*
X120100000Y-104900000D01*
X126150097Y-103500000D02*
X121500000Y-103500000D01*
X83700000Y-104900000D02*
X80875000Y-107725000D01*
%TO.N,/PA5*%
X139200000Y-101200000D02*
X138000000Y-101200000D01*
X138000000Y-101200000D02*
X137500000Y-101700000D01*
X137500000Y-101700000D02*
X135100000Y-101700000D01*
%TD*%
%TA.AperFunction,Conductor*%
%TO.N,GND*%
G36*
X62767602Y-78262672D02*
G01*
X62811049Y-78298099D01*
X62869801Y-78374000D01*
X62925620Y-78446112D01*
X63187709Y-78721829D01*
X63476346Y-78969616D01*
X63788571Y-79186931D01*
X64121179Y-79371543D01*
X64124057Y-79372778D01*
X64124061Y-79372780D01*
X64467866Y-79520318D01*
X64470758Y-79521559D01*
X64833720Y-79635439D01*
X65206340Y-79712015D01*
X65584796Y-79750500D01*
X65962062Y-79750500D01*
X65965204Y-79750500D01*
X66343660Y-79712015D01*
X66716280Y-79635439D01*
X67079242Y-79521559D01*
X67428821Y-79371543D01*
X67761429Y-79186931D01*
X68073654Y-78969616D01*
X68362291Y-78721829D01*
X68624380Y-78446112D01*
X68692689Y-78357862D01*
X68738951Y-78298099D01*
X68782398Y-78262672D01*
X68837007Y-78250000D01*
X177712993Y-78250000D01*
X177767602Y-78262672D01*
X177811049Y-78298099D01*
X177869801Y-78374000D01*
X177925620Y-78446112D01*
X178187709Y-78721829D01*
X178476346Y-78969616D01*
X178788571Y-79186931D01*
X179121179Y-79371543D01*
X179124057Y-79372778D01*
X179124061Y-79372780D01*
X179467866Y-79520318D01*
X179470758Y-79521559D01*
X179833720Y-79635439D01*
X180206340Y-79712015D01*
X180584796Y-79750500D01*
X180962062Y-79750500D01*
X180965204Y-79750500D01*
X181343660Y-79712015D01*
X181716280Y-79635439D01*
X182079242Y-79521559D01*
X182428821Y-79371543D01*
X182761429Y-79186931D01*
X183073654Y-78969616D01*
X183362291Y-78721829D01*
X183624380Y-78446112D01*
X183692689Y-78357862D01*
X183738951Y-78298099D01*
X183782398Y-78262672D01*
X183837007Y-78250000D01*
X185126000Y-78250000D01*
X185188000Y-78266613D01*
X185233387Y-78312000D01*
X185250000Y-78374000D01*
X185250000Y-135126000D01*
X185233387Y-135188000D01*
X185188000Y-135233387D01*
X185126000Y-135250000D01*
X64474500Y-135250000D01*
X64412500Y-135233387D01*
X64367113Y-135188000D01*
X64350500Y-135126000D01*
X64350499Y-133630439D01*
X64350499Y-133627128D01*
X64344091Y-133567517D01*
X64293796Y-133432669D01*
X64265281Y-133394578D01*
X170229500Y-133394578D01*
X170229501Y-133397872D01*
X170229853Y-133401150D01*
X170229854Y-133401161D01*
X170235079Y-133449768D01*
X170235080Y-133449773D01*
X170235909Y-133457483D01*
X170238619Y-133464749D01*
X170238620Y-133464753D01*
X170243275Y-133477233D01*
X170286204Y-133592331D01*
X170291518Y-133599430D01*
X170291519Y-133599431D01*
X170347367Y-133674035D01*
X170372454Y-133707546D01*
X170487669Y-133793796D01*
X170622517Y-133844091D01*
X170682127Y-133850500D01*
X172477872Y-133850499D01*
X172537483Y-133844091D01*
X172672331Y-133793796D01*
X172787546Y-133707546D01*
X172873796Y-133592331D01*
X172922810Y-133460916D01*
X172957789Y-133410537D01*
X173012634Y-133383084D01*
X173073927Y-133385273D01*
X173126673Y-133416569D01*
X173248599Y-133538495D01*
X173253031Y-133541598D01*
X173253033Y-133541600D01*
X173386564Y-133635099D01*
X173442170Y-133674035D01*
X173656337Y-133773903D01*
X173884592Y-133835063D01*
X174120000Y-133855659D01*
X174355408Y-133835063D01*
X174583663Y-133773903D01*
X174797830Y-133674035D01*
X174991401Y-133538495D01*
X175158495Y-133371401D01*
X175288730Y-133185405D01*
X175333048Y-133146540D01*
X175390305Y-133132529D01*
X175447562Y-133146540D01*
X175491880Y-133185405D01*
X175618784Y-133366643D01*
X175625721Y-133374909D01*
X175785090Y-133534278D01*
X175793356Y-133541215D01*
X175977991Y-133670498D01*
X175987323Y-133675886D01*
X176191602Y-133771143D01*
X176201736Y-133774831D01*
X176396219Y-133826943D01*
X176407448Y-133827311D01*
X176410000Y-133816369D01*
X176910000Y-133816369D01*
X176912551Y-133827311D01*
X176923780Y-133826943D01*
X177118263Y-133774831D01*
X177128397Y-133771143D01*
X177332676Y-133675886D01*
X177342008Y-133670498D01*
X177526643Y-133541215D01*
X177534909Y-133534278D01*
X177694278Y-133374909D01*
X177701219Y-133366638D01*
X177828119Y-133185406D01*
X177872437Y-133146540D01*
X177929694Y-133132529D01*
X177986951Y-133146540D01*
X178031269Y-133185405D01*
X178158399Y-133366966D01*
X178158402Y-133366970D01*
X178161505Y-133371401D01*
X178328599Y-133538495D01*
X178333031Y-133541598D01*
X178333033Y-133541600D01*
X178466564Y-133635099D01*
X178522170Y-133674035D01*
X178736337Y-133773903D01*
X178964592Y-133835063D01*
X179200000Y-133855659D01*
X179435408Y-133835063D01*
X179663663Y-133773903D01*
X179877830Y-133674035D01*
X180071401Y-133538495D01*
X180238495Y-133371401D01*
X180271301Y-133324550D01*
X180368425Y-133185842D01*
X180412743Y-133146976D01*
X180470000Y-133132965D01*
X180527257Y-133146976D01*
X180571575Y-133185842D01*
X180698395Y-133366961D01*
X180698401Y-133366968D01*
X180701505Y-133371401D01*
X180868599Y-133538495D01*
X180873031Y-133541598D01*
X180873033Y-133541600D01*
X181006564Y-133635099D01*
X181062170Y-133674035D01*
X181276337Y-133773903D01*
X181504592Y-133835063D01*
X181740000Y-133855659D01*
X181975408Y-133835063D01*
X182203663Y-133773903D01*
X182417830Y-133674035D01*
X182611401Y-133538495D01*
X182778495Y-133371401D01*
X182914035Y-133177830D01*
X183013903Y-132963663D01*
X183075063Y-132735408D01*
X183095659Y-132500000D01*
X183075063Y-132264592D01*
X183013903Y-132036337D01*
X182914035Y-131822171D01*
X182778495Y-131628599D01*
X182611401Y-131461505D01*
X182606970Y-131458402D01*
X182606966Y-131458399D01*
X182422259Y-131329066D01*
X182422257Y-131329064D01*
X182417830Y-131325965D01*
X182412933Y-131323681D01*
X182412927Y-131323678D01*
X182208572Y-131228386D01*
X182208570Y-131228385D01*
X182203663Y-131226097D01*
X182198438Y-131224697D01*
X182198430Y-131224694D01*
X181980634Y-131166337D01*
X181980630Y-131166336D01*
X181975408Y-131164937D01*
X181970020Y-131164465D01*
X181970017Y-131164465D01*
X181745395Y-131144813D01*
X181740000Y-131144341D01*
X181734605Y-131144813D01*
X181509982Y-131164465D01*
X181509977Y-131164465D01*
X181504592Y-131164937D01*
X181499371Y-131166335D01*
X181499365Y-131166337D01*
X181281569Y-131224694D01*
X181281557Y-131224698D01*
X181276337Y-131226097D01*
X181271432Y-131228383D01*
X181271427Y-131228386D01*
X181067081Y-131323675D01*
X181067077Y-131323677D01*
X181062171Y-131325965D01*
X181057738Y-131329068D01*
X181057731Y-131329073D01*
X180873034Y-131458399D01*
X180873029Y-131458402D01*
X180868599Y-131461505D01*
X180864775Y-131465328D01*
X180864769Y-131465334D01*
X180705334Y-131624769D01*
X180705328Y-131624775D01*
X180701505Y-131628599D01*
X180698402Y-131633029D01*
X180698399Y-131633034D01*
X180571575Y-131814159D01*
X180527257Y-131853025D01*
X180470000Y-131867036D01*
X180412743Y-131853025D01*
X180368425Y-131814159D01*
X180294900Y-131709154D01*
X180238495Y-131628599D01*
X180071401Y-131461505D01*
X180066970Y-131458402D01*
X180066966Y-131458399D01*
X179882259Y-131329066D01*
X179882257Y-131329064D01*
X179877830Y-131325965D01*
X179872933Y-131323681D01*
X179872927Y-131323678D01*
X179668572Y-131228386D01*
X179668570Y-131228385D01*
X179663663Y-131226097D01*
X179658438Y-131224697D01*
X179658430Y-131224694D01*
X179440634Y-131166337D01*
X179440630Y-131166336D01*
X179435408Y-131164937D01*
X179430020Y-131164465D01*
X179430017Y-131164465D01*
X179205395Y-131144813D01*
X179200000Y-131144341D01*
X179194605Y-131144813D01*
X178969982Y-131164465D01*
X178969977Y-131164465D01*
X178964592Y-131164937D01*
X178959371Y-131166335D01*
X178959365Y-131166337D01*
X178741569Y-131224694D01*
X178741557Y-131224698D01*
X178736337Y-131226097D01*
X178731432Y-131228383D01*
X178731427Y-131228386D01*
X178527081Y-131323675D01*
X178527077Y-131323677D01*
X178522171Y-131325965D01*
X178517738Y-131329068D01*
X178517731Y-131329073D01*
X178333034Y-131458399D01*
X178333029Y-131458402D01*
X178328599Y-131461505D01*
X178324775Y-131465328D01*
X178324769Y-131465334D01*
X178165334Y-131624769D01*
X178165328Y-131624775D01*
X178161505Y-131628599D01*
X178158403Y-131633028D01*
X178158403Y-131633029D01*
X178031269Y-131814596D01*
X177986951Y-131853461D01*
X177929694Y-131867472D01*
X177872437Y-131853461D01*
X177828119Y-131814595D01*
X177701215Y-131633357D01*
X177694280Y-131625092D01*
X177534909Y-131465721D01*
X177526643Y-131458784D01*
X177342008Y-131329501D01*
X177332676Y-131324113D01*
X177128397Y-131228856D01*
X177118263Y-131225168D01*
X176923780Y-131173056D01*
X176912551Y-131172688D01*
X176910000Y-131183631D01*
X176910000Y-133816369D01*
X176410000Y-133816369D01*
X176410000Y-131183631D01*
X176407448Y-131172688D01*
X176396219Y-131173056D01*
X176201736Y-131225168D01*
X176191602Y-131228856D01*
X175987332Y-131324110D01*
X175977982Y-131329508D01*
X175793357Y-131458784D01*
X175785092Y-131465719D01*
X175625719Y-131625092D01*
X175618788Y-131633352D01*
X175491880Y-131814596D01*
X175447562Y-131853461D01*
X175390305Y-131867472D01*
X175333048Y-131853461D01*
X175288730Y-131814595D01*
X175288425Y-131814159D01*
X175158495Y-131628599D01*
X174991401Y-131461505D01*
X174986970Y-131458402D01*
X174986966Y-131458399D01*
X174802259Y-131329066D01*
X174802257Y-131329064D01*
X174797830Y-131325965D01*
X174792933Y-131323681D01*
X174792927Y-131323678D01*
X174588572Y-131228386D01*
X174588570Y-131228385D01*
X174583663Y-131226097D01*
X174578438Y-131224697D01*
X174578430Y-131224694D01*
X174360634Y-131166337D01*
X174360630Y-131166336D01*
X174355408Y-131164937D01*
X174350020Y-131164465D01*
X174350017Y-131164465D01*
X174125395Y-131144813D01*
X174120000Y-131144341D01*
X174117928Y-131144522D01*
X174062844Y-131131298D01*
X174018821Y-131093698D01*
X173996666Y-131040211D01*
X174001208Y-130982495D01*
X174031458Y-130933132D01*
X177202772Y-127761819D01*
X177243000Y-127734939D01*
X177290453Y-127725500D01*
X180596252Y-127725500D01*
X180646685Y-127736219D01*
X180684781Y-127763895D01*
X180684950Y-127763709D01*
X180686728Y-127765310D01*
X180688398Y-127766523D01*
X180694129Y-127772888D01*
X180847270Y-127884151D01*
X181020197Y-127961144D01*
X181205354Y-128000500D01*
X181388143Y-128000500D01*
X181394646Y-128000500D01*
X181579803Y-127961144D01*
X181752730Y-127884151D01*
X181905871Y-127772888D01*
X182032533Y-127632216D01*
X182127179Y-127468284D01*
X182185674Y-127288256D01*
X182205460Y-127100000D01*
X182185674Y-126911744D01*
X182127179Y-126731716D01*
X182032533Y-126567784D01*
X182016924Y-126550449D01*
X181910220Y-126431942D01*
X181910219Y-126431941D01*
X181905871Y-126427112D01*
X181900613Y-126423292D01*
X181900611Y-126423290D01*
X181757988Y-126319669D01*
X181757987Y-126319668D01*
X181752730Y-126315849D01*
X181733940Y-126307483D01*
X181585745Y-126241501D01*
X181585740Y-126241499D01*
X181579803Y-126238856D01*
X181573444Y-126237504D01*
X181573440Y-126237503D01*
X181401008Y-126200852D01*
X181401005Y-126200851D01*
X181394646Y-126199500D01*
X181205354Y-126199500D01*
X181198995Y-126200851D01*
X181198991Y-126200852D01*
X181026559Y-126237503D01*
X181026552Y-126237505D01*
X181020197Y-126238856D01*
X181014262Y-126241498D01*
X181014254Y-126241501D01*
X180853207Y-126313205D01*
X180853202Y-126313207D01*
X180847270Y-126315849D01*
X180842016Y-126319665D01*
X180842011Y-126319669D01*
X180699388Y-126423290D01*
X180699381Y-126423295D01*
X180694129Y-126427112D01*
X180689780Y-126431941D01*
X180689781Y-126431941D01*
X180688399Y-126433476D01*
X180686728Y-126434689D01*
X180684950Y-126436291D01*
X180684781Y-126436104D01*
X180646685Y-126463781D01*
X180596252Y-126474500D01*
X177057771Y-126474500D01*
X177046718Y-126473979D01*
X177039332Y-126472328D01*
X177031534Y-126472573D01*
X176972144Y-126474439D01*
X176968250Y-126474500D01*
X176940650Y-126474500D01*
X176936799Y-126474986D01*
X176936768Y-126474988D01*
X176936640Y-126475005D01*
X176925029Y-126475918D01*
X176889172Y-126477045D01*
X176889165Y-126477046D01*
X176881373Y-126477291D01*
X176873888Y-126479465D01*
X176873872Y-126479468D01*
X176862126Y-126482881D01*
X176843083Y-126486825D01*
X176830949Y-126488358D01*
X176830948Y-126488358D01*
X176823208Y-126489336D01*
X176815958Y-126492205D01*
X176815951Y-126492208D01*
X176782598Y-126505413D01*
X176771554Y-126509194D01*
X176737105Y-126519203D01*
X176737095Y-126519207D01*
X176729610Y-126521382D01*
X176722900Y-126525349D01*
X176722898Y-126525351D01*
X176719505Y-126527357D01*
X176712360Y-126531583D01*
X176694900Y-126540136D01*
X176676268Y-126547514D01*
X176669965Y-126552092D01*
X176669958Y-126552097D01*
X176640939Y-126573181D01*
X176631179Y-126579592D01*
X176600294Y-126597857D01*
X176600284Y-126597864D01*
X176593579Y-126601830D01*
X176588063Y-126607345D01*
X176588060Y-126607348D01*
X176579407Y-126616000D01*
X176564624Y-126628626D01*
X176554727Y-126635817D01*
X176554720Y-126635823D01*
X176548413Y-126640406D01*
X176543446Y-126646408D01*
X176543435Y-126646420D01*
X176520570Y-126674059D01*
X176512710Y-126682697D01*
X172082226Y-131113181D01*
X172041998Y-131140061D01*
X171994545Y-131149500D01*
X170685439Y-131149500D01*
X170685420Y-131149500D01*
X170682128Y-131149501D01*
X170678850Y-131149853D01*
X170678838Y-131149854D01*
X170630231Y-131155079D01*
X170630225Y-131155080D01*
X170622517Y-131155909D01*
X170615252Y-131158618D01*
X170615246Y-131158620D01*
X170495980Y-131203104D01*
X170495978Y-131203104D01*
X170487669Y-131206204D01*
X170480572Y-131211516D01*
X170480568Y-131211519D01*
X170379550Y-131287141D01*
X170379546Y-131287144D01*
X170372454Y-131292454D01*
X170367144Y-131299546D01*
X170367141Y-131299550D01*
X170291519Y-131400568D01*
X170291516Y-131400572D01*
X170286204Y-131407669D01*
X170283104Y-131415978D01*
X170283104Y-131415980D01*
X170238620Y-131535247D01*
X170238619Y-131535250D01*
X170235909Y-131542517D01*
X170235079Y-131550227D01*
X170235079Y-131550232D01*
X170229855Y-131598819D01*
X170229854Y-131598831D01*
X170229500Y-131602127D01*
X170229500Y-131605448D01*
X170229500Y-131605449D01*
X170229500Y-133394560D01*
X170229500Y-133394578D01*
X64265281Y-133394578D01*
X64207546Y-133317454D01*
X64092331Y-133231204D01*
X64022359Y-133205106D01*
X63960916Y-133182189D01*
X63910537Y-133147210D01*
X63883084Y-133092365D01*
X63885273Y-133031072D01*
X63916566Y-132978329D01*
X64038495Y-132856401D01*
X64174035Y-132662830D01*
X64273903Y-132448663D01*
X64335063Y-132220408D01*
X64355659Y-131985000D01*
X64335063Y-131749592D01*
X64273903Y-131521337D01*
X64174035Y-131307171D01*
X64038495Y-131113599D01*
X63871401Y-130946505D01*
X63866970Y-130943402D01*
X63866966Y-130943399D01*
X63685405Y-130816269D01*
X63646540Y-130771951D01*
X63632529Y-130714694D01*
X63646540Y-130657437D01*
X63685406Y-130613119D01*
X63866638Y-130486219D01*
X63874909Y-130479278D01*
X64034278Y-130319909D01*
X64041215Y-130311643D01*
X64170498Y-130127008D01*
X64175886Y-130117676D01*
X64271143Y-129913397D01*
X64274831Y-129903263D01*
X64326943Y-129708780D01*
X64327311Y-129697551D01*
X64316369Y-129695000D01*
X62874000Y-129695000D01*
X62812000Y-129678387D01*
X62766613Y-129633000D01*
X62750000Y-129571000D01*
X62750000Y-129178674D01*
X63250000Y-129178674D01*
X63253450Y-129191549D01*
X63266326Y-129195000D01*
X64316369Y-129195000D01*
X64327311Y-129192448D01*
X64326943Y-129181219D01*
X64274831Y-128986736D01*
X64271143Y-128976602D01*
X64175889Y-128772332D01*
X64170491Y-128762982D01*
X64041215Y-128578357D01*
X64034280Y-128570092D01*
X63874909Y-128410721D01*
X63866643Y-128403784D01*
X63682008Y-128274501D01*
X63672676Y-128269113D01*
X63468397Y-128173856D01*
X63458263Y-128170168D01*
X63263780Y-128118056D01*
X63252551Y-128117688D01*
X63250000Y-128128631D01*
X63250000Y-129178674D01*
X62750000Y-129178674D01*
X62750000Y-128128631D01*
X62747448Y-128117688D01*
X62736219Y-128118056D01*
X62606594Y-128152790D01*
X62550309Y-128154632D01*
X62499014Y-128131391D01*
X62463288Y-128087859D01*
X62450500Y-128033015D01*
X62450500Y-126816985D01*
X62463288Y-126762141D01*
X62499014Y-126718609D01*
X62550309Y-126695368D01*
X62606594Y-126697210D01*
X62736219Y-126731943D01*
X62747448Y-126732311D01*
X62750000Y-126721369D01*
X63250000Y-126721369D01*
X63252551Y-126732311D01*
X63263780Y-126731943D01*
X63458263Y-126679831D01*
X63468397Y-126676143D01*
X63672676Y-126580886D01*
X63682008Y-126575498D01*
X63866643Y-126446215D01*
X63874909Y-126439278D01*
X64034278Y-126279909D01*
X64041215Y-126271643D01*
X64170498Y-126087008D01*
X64175886Y-126077676D01*
X64271143Y-125873397D01*
X64274831Y-125863263D01*
X64326943Y-125668780D01*
X64327311Y-125657551D01*
X64316369Y-125655000D01*
X63266326Y-125655000D01*
X63253450Y-125658450D01*
X63250000Y-125671326D01*
X63250000Y-126721369D01*
X62750000Y-126721369D01*
X62750000Y-125279000D01*
X62766613Y-125217000D01*
X62812000Y-125171613D01*
X62874000Y-125155000D01*
X64316372Y-125155000D01*
X64321462Y-125153813D01*
X64383669Y-125155339D01*
X64437302Y-125186892D01*
X65637707Y-126387297D01*
X65645156Y-126395483D01*
X65649214Y-126401877D01*
X65654899Y-126407215D01*
X65654901Y-126407218D01*
X65698239Y-126447915D01*
X65701036Y-126450626D01*
X65720530Y-126470120D01*
X65723615Y-126472513D01*
X65723701Y-126472580D01*
X65732573Y-126480158D01*
X65742249Y-126489244D01*
X65764418Y-126510062D01*
X65771248Y-126513817D01*
X65771251Y-126513819D01*
X65781971Y-126519712D01*
X65798222Y-126530386D01*
X65814064Y-126542674D01*
X65821221Y-126545771D01*
X65821223Y-126545772D01*
X65854155Y-126560022D01*
X65864650Y-126565164D01*
X65902908Y-126586197D01*
X65922312Y-126591179D01*
X65940714Y-126597480D01*
X65950767Y-126601830D01*
X65959105Y-126605438D01*
X65996697Y-126611391D01*
X66002239Y-126612269D01*
X66013682Y-126614639D01*
X66048425Y-126623560D01*
X66048426Y-126623560D01*
X66055981Y-126625500D01*
X66076017Y-126625500D01*
X66095402Y-126627025D01*
X66115196Y-126630160D01*
X66153276Y-126626560D01*
X66158676Y-126626050D01*
X66170345Y-126625500D01*
X77366399Y-126625500D01*
X77414565Y-126635237D01*
X77455167Y-126662919D01*
X77481825Y-126704195D01*
X77490711Y-126726835D01*
X77493029Y-126730850D01*
X77493032Y-126730856D01*
X77511095Y-126762141D01*
X77615898Y-126943665D01*
X77618790Y-126947291D01*
X77769109Y-127135786D01*
X77769114Y-127135791D01*
X77772003Y-127139414D01*
X77955540Y-127309712D01*
X77959361Y-127312317D01*
X77959366Y-127312321D01*
X78043123Y-127369425D01*
X78162408Y-127450752D01*
X78387987Y-127559385D01*
X78392415Y-127560751D01*
X78392418Y-127560752D01*
X78507611Y-127596284D01*
X78627236Y-127633184D01*
X78874813Y-127670500D01*
X79120550Y-127670500D01*
X79125187Y-127670500D01*
X79372764Y-127633184D01*
X79612013Y-127559385D01*
X79837592Y-127450752D01*
X80044460Y-127309712D01*
X80227997Y-127139414D01*
X80384102Y-126943665D01*
X80509289Y-126726835D01*
X80600760Y-126493769D01*
X80656474Y-126249673D01*
X80675184Y-126000000D01*
X80656474Y-125750327D01*
X80600760Y-125506231D01*
X80509289Y-125273165D01*
X80506911Y-125269047D01*
X80450015Y-125170500D01*
X80384102Y-125056335D01*
X80297816Y-124948136D01*
X80230890Y-124864213D01*
X80230886Y-124864208D01*
X80227997Y-124860586D01*
X80044460Y-124690288D01*
X80040639Y-124687683D01*
X80040633Y-124687678D01*
X79901503Y-124592821D01*
X79837592Y-124549248D01*
X79833406Y-124547232D01*
X79616192Y-124442627D01*
X79616186Y-124442624D01*
X79612013Y-124440615D01*
X79607591Y-124439251D01*
X79607581Y-124439247D01*
X79377194Y-124368182D01*
X79377187Y-124368180D01*
X79372764Y-124366816D01*
X79368188Y-124366126D01*
X79368178Y-124366124D01*
X79129772Y-124330191D01*
X79129771Y-124330190D01*
X79125187Y-124329500D01*
X78874813Y-124329500D01*
X78870229Y-124330190D01*
X78870227Y-124330191D01*
X78631821Y-124366124D01*
X78631809Y-124366126D01*
X78627236Y-124366816D01*
X78622814Y-124368179D01*
X78622805Y-124368182D01*
X78392418Y-124439247D01*
X78392403Y-124439252D01*
X78387987Y-124440615D01*
X78383818Y-124442622D01*
X78383807Y-124442627D01*
X78166593Y-124547232D01*
X78166586Y-124547235D01*
X78162408Y-124549248D01*
X78158575Y-124551861D01*
X78158572Y-124551863D01*
X77959366Y-124687678D01*
X77959353Y-124687688D01*
X77955540Y-124690288D01*
X77952148Y-124693434D01*
X77952142Y-124693440D01*
X77824020Y-124812321D01*
X77772003Y-124860586D01*
X77769120Y-124864201D01*
X77769109Y-124864213D01*
X77618790Y-125052708D01*
X77615898Y-125056335D01*
X77613579Y-125060351D01*
X77613578Y-125060353D01*
X77493032Y-125269143D01*
X77493026Y-125269154D01*
X77490711Y-125273165D01*
X77481825Y-125295804D01*
X77455167Y-125337081D01*
X77414565Y-125364763D01*
X77366399Y-125374500D01*
X66445453Y-125374500D01*
X66398000Y-125365061D01*
X66357772Y-125338181D01*
X64519591Y-123500000D01*
X82324816Y-123500000D01*
X82325163Y-123504630D01*
X82338827Y-123686975D01*
X82343526Y-123749673D01*
X82344556Y-123754186D01*
X82344557Y-123754192D01*
X82396329Y-123981017D01*
X82399240Y-123993769D01*
X82400935Y-123998088D01*
X82400936Y-123998091D01*
X82489013Y-124222510D01*
X82489016Y-124222516D01*
X82490711Y-124226835D01*
X82493029Y-124230850D01*
X82493032Y-124230856D01*
X82532427Y-124299090D01*
X82615898Y-124443665D01*
X82618790Y-124447291D01*
X82769109Y-124635786D01*
X82769114Y-124635791D01*
X82772003Y-124639414D01*
X82955540Y-124809712D01*
X82959361Y-124812317D01*
X82959366Y-124812321D01*
X83035478Y-124864213D01*
X83162408Y-124950752D01*
X83387987Y-125059385D01*
X83392415Y-125060751D01*
X83392418Y-125060752D01*
X83406498Y-125065095D01*
X83627236Y-125133184D01*
X83874813Y-125170500D01*
X84120550Y-125170500D01*
X84125187Y-125170500D01*
X84372764Y-125133184D01*
X84612013Y-125059385D01*
X84837592Y-124950752D01*
X85044460Y-124809712D01*
X85227997Y-124639414D01*
X85384102Y-124443665D01*
X85509289Y-124226835D01*
X85600760Y-123993769D01*
X85656474Y-123749673D01*
X85675184Y-123500000D01*
X85656474Y-123250327D01*
X85600760Y-123006231D01*
X85509289Y-122773165D01*
X85384102Y-122556335D01*
X85297467Y-122447698D01*
X85230890Y-122364213D01*
X85230886Y-122364208D01*
X85227997Y-122360586D01*
X85044460Y-122190288D01*
X85040639Y-122187683D01*
X85040633Y-122187678D01*
X84901503Y-122092821D01*
X84837592Y-122049248D01*
X84833406Y-122047232D01*
X84616192Y-121942627D01*
X84616186Y-121942624D01*
X84612013Y-121940615D01*
X84607591Y-121939251D01*
X84607581Y-121939247D01*
X84377194Y-121868182D01*
X84377187Y-121868180D01*
X84372764Y-121866816D01*
X84368188Y-121866126D01*
X84368178Y-121866124D01*
X84129772Y-121830191D01*
X84129771Y-121830190D01*
X84125187Y-121829500D01*
X83874813Y-121829500D01*
X83870229Y-121830190D01*
X83870227Y-121830191D01*
X83631821Y-121866124D01*
X83631809Y-121866126D01*
X83627236Y-121866816D01*
X83622814Y-121868179D01*
X83622805Y-121868182D01*
X83392418Y-121939247D01*
X83392403Y-121939252D01*
X83387987Y-121940615D01*
X83383818Y-121942622D01*
X83383807Y-121942627D01*
X83166593Y-122047232D01*
X83166586Y-122047235D01*
X83162408Y-122049248D01*
X83158575Y-122051861D01*
X83158572Y-122051863D01*
X82959366Y-122187678D01*
X82959353Y-122187688D01*
X82955540Y-122190288D01*
X82952148Y-122193434D01*
X82952142Y-122193440D01*
X82780336Y-122352854D01*
X82772003Y-122360586D01*
X82769120Y-122364201D01*
X82769109Y-122364213D01*
X82618790Y-122552708D01*
X82615898Y-122556335D01*
X82613579Y-122560351D01*
X82613578Y-122560353D01*
X82493032Y-122769143D01*
X82493026Y-122769154D01*
X82490711Y-122773165D01*
X82489018Y-122777478D01*
X82489013Y-122777489D01*
X82400936Y-123001908D01*
X82400933Y-123001915D01*
X82399240Y-123006231D01*
X82398208Y-123010749D01*
X82398207Y-123010755D01*
X82344557Y-123245807D01*
X82344555Y-123245815D01*
X82343526Y-123250327D01*
X82343179Y-123254946D01*
X82343179Y-123254952D01*
X82333047Y-123390156D01*
X82324816Y-123500000D01*
X64519591Y-123500000D01*
X64340237Y-123320646D01*
X64308143Y-123265058D01*
X64308143Y-123200876D01*
X64335063Y-123100408D01*
X64355659Y-122865000D01*
X64335063Y-122629592D01*
X64273903Y-122401337D01*
X64247537Y-122344796D01*
X78012157Y-122344796D01*
X78019705Y-122352854D01*
X78158817Y-122447698D01*
X78166850Y-122452336D01*
X78383990Y-122556905D01*
X78392600Y-122560284D01*
X78622917Y-122631328D01*
X78631933Y-122633386D01*
X78870265Y-122669308D01*
X78879488Y-122670000D01*
X79120512Y-122670000D01*
X79129734Y-122669308D01*
X79368066Y-122633386D01*
X79377082Y-122631328D01*
X79607399Y-122560284D01*
X79616010Y-122556904D01*
X79833158Y-122452332D01*
X79841178Y-122447702D01*
X79980293Y-122352855D01*
X79987840Y-122344796D01*
X79981923Y-122335476D01*
X79011542Y-121365095D01*
X79000000Y-121358431D01*
X78988457Y-121365095D01*
X78018073Y-122335478D01*
X78012157Y-122344796D01*
X64247537Y-122344796D01*
X64174035Y-122187171D01*
X64038495Y-121993599D01*
X63916568Y-121871672D01*
X63885273Y-121818927D01*
X63883084Y-121757634D01*
X63910537Y-121702789D01*
X63960916Y-121667810D01*
X64092331Y-121618796D01*
X64207546Y-121532546D01*
X64293796Y-121417331D01*
X64344091Y-121282483D01*
X64350500Y-121222873D01*
X64350500Y-121004630D01*
X77325664Y-121004630D01*
X77343675Y-121244970D01*
X77345054Y-121254123D01*
X77398683Y-121489089D01*
X77401416Y-121497949D01*
X77489465Y-121722293D01*
X77493484Y-121730639D01*
X77613994Y-121939368D01*
X77619200Y-121947004D01*
X77643884Y-121977958D01*
X77655120Y-121985930D01*
X77667179Y-121979266D01*
X78634904Y-121011542D01*
X78641568Y-121000000D01*
X79358431Y-121000000D01*
X79365095Y-121011542D01*
X80332820Y-121979267D01*
X80344877Y-121985931D01*
X80356114Y-121977958D01*
X80380796Y-121947009D01*
X80386007Y-121939364D01*
X80506515Y-121730639D01*
X80510534Y-121722293D01*
X80598583Y-121497949D01*
X80601316Y-121489089D01*
X80654945Y-121254123D01*
X80656324Y-121244970D01*
X80674336Y-121004630D01*
X80674336Y-120995370D01*
X80656324Y-120755029D01*
X80654945Y-120745876D01*
X80601316Y-120510910D01*
X80598583Y-120502050D01*
X80510534Y-120277706D01*
X80506515Y-120269360D01*
X80386009Y-120060637D01*
X80380791Y-120052985D01*
X80356114Y-120022041D01*
X80344877Y-120014067D01*
X80332820Y-120020731D01*
X79365095Y-120988457D01*
X79358431Y-121000000D01*
X78641568Y-121000000D01*
X78634904Y-120988457D01*
X77667179Y-120020732D01*
X77655120Y-120014067D01*
X77643885Y-120022040D01*
X77619204Y-120052989D01*
X77613993Y-120060633D01*
X77493484Y-120269360D01*
X77489465Y-120277706D01*
X77401416Y-120502050D01*
X77398683Y-120510910D01*
X77345054Y-120745876D01*
X77343675Y-120755029D01*
X77325664Y-120995370D01*
X77325664Y-121004630D01*
X64350500Y-121004630D01*
X64350499Y-120416264D01*
X64359938Y-120368812D01*
X64386815Y-120328587D01*
X70577729Y-114137674D01*
X70633312Y-114105583D01*
X70697500Y-114105583D01*
X70753087Y-114137677D01*
X76002707Y-119387297D01*
X76010156Y-119395483D01*
X76014214Y-119401877D01*
X76019899Y-119407215D01*
X76019901Y-119407218D01*
X76063239Y-119447915D01*
X76066036Y-119450626D01*
X76085530Y-119470120D01*
X76088615Y-119472513D01*
X76088701Y-119472580D01*
X76097573Y-119480158D01*
X76129418Y-119510062D01*
X76136248Y-119513817D01*
X76136251Y-119513819D01*
X76146971Y-119519712D01*
X76163222Y-119530386D01*
X76179064Y-119542674D01*
X76186221Y-119545771D01*
X76186223Y-119545772D01*
X76219155Y-119560022D01*
X76229650Y-119565164D01*
X76267908Y-119586197D01*
X76287312Y-119591179D01*
X76305714Y-119597480D01*
X76316941Y-119602338D01*
X76324105Y-119605438D01*
X76361697Y-119611391D01*
X76367239Y-119612269D01*
X76378682Y-119614639D01*
X76413425Y-119623560D01*
X76413426Y-119623560D01*
X76420981Y-119625500D01*
X76441017Y-119625500D01*
X76460402Y-119627025D01*
X76480196Y-119630160D01*
X76518276Y-119626560D01*
X76523676Y-119626050D01*
X76535345Y-119625500D01*
X77927691Y-119625500D01*
X77975144Y-119634939D01*
X78015372Y-119661819D01*
X78988457Y-120634904D01*
X79000000Y-120641568D01*
X79011542Y-120634904D01*
X79984627Y-119661819D01*
X80024855Y-119634939D01*
X80072308Y-119625500D01*
X86789548Y-119625500D01*
X86837001Y-119634939D01*
X86877229Y-119661819D01*
X90763181Y-123547771D01*
X90790061Y-123587999D01*
X90799500Y-123635452D01*
X90799500Y-126244560D01*
X90799500Y-126244578D01*
X90799501Y-126247872D01*
X90799853Y-126251150D01*
X90799854Y-126251161D01*
X90805079Y-126299768D01*
X90805080Y-126299773D01*
X90805909Y-126307483D01*
X90808619Y-126314749D01*
X90808620Y-126314753D01*
X90838901Y-126395939D01*
X90856204Y-126442331D01*
X90861518Y-126449430D01*
X90861519Y-126449431D01*
X90932795Y-126544644D01*
X90942454Y-126557546D01*
X91057669Y-126643796D01*
X91192517Y-126694091D01*
X91252127Y-126700500D01*
X94347872Y-126700499D01*
X94407483Y-126694091D01*
X94542331Y-126643796D01*
X94657546Y-126557546D01*
X94743796Y-126442331D01*
X94794091Y-126307483D01*
X94800500Y-126247873D01*
X94800499Y-124700000D01*
X95794390Y-124700000D01*
X95794706Y-124704418D01*
X95814487Y-124981005D01*
X95814488Y-124981014D01*
X95814804Y-124985428D01*
X95815744Y-124989753D01*
X95815746Y-124989761D01*
X95851434Y-125153813D01*
X95875631Y-125265046D01*
X95877175Y-125269185D01*
X95877176Y-125269189D01*
X95974007Y-125528803D01*
X95975633Y-125533161D01*
X95977753Y-125537043D01*
X95977756Y-125537050D01*
X96110500Y-125780150D01*
X96112774Y-125784315D01*
X96284261Y-126013395D01*
X96486605Y-126215739D01*
X96715685Y-126387226D01*
X96966839Y-126524367D01*
X97234954Y-126624369D01*
X97514572Y-126685196D01*
X97800000Y-126705610D01*
X98085428Y-126685196D01*
X98365046Y-126624369D01*
X98633161Y-126524367D01*
X98884315Y-126387226D01*
X99027968Y-126279689D01*
X101579392Y-126279689D01*
X101587710Y-126290800D01*
X101712406Y-126384147D01*
X101719849Y-126388931D01*
X101963158Y-126521787D01*
X101971196Y-126525458D01*
X102230952Y-126622342D01*
X102239421Y-126624828D01*
X102510309Y-126683757D01*
X102519065Y-126685016D01*
X102795582Y-126704793D01*
X102804418Y-126704793D01*
X103080934Y-126685016D01*
X103089690Y-126683757D01*
X103360578Y-126624828D01*
X103369047Y-126622342D01*
X103628803Y-126525458D01*
X103636841Y-126521787D01*
X103880150Y-126388931D01*
X103887593Y-126384147D01*
X104012288Y-126290800D01*
X104020606Y-126279689D01*
X104013954Y-126267508D01*
X103991024Y-126244578D01*
X110249500Y-126244578D01*
X110249501Y-126247872D01*
X110249853Y-126251150D01*
X110249854Y-126251161D01*
X110255079Y-126299768D01*
X110255080Y-126299773D01*
X110255909Y-126307483D01*
X110258619Y-126314749D01*
X110258620Y-126314753D01*
X110288901Y-126395939D01*
X110306204Y-126442331D01*
X110311518Y-126449430D01*
X110311519Y-126449431D01*
X110382795Y-126544644D01*
X110392454Y-126557546D01*
X110507669Y-126643796D01*
X110642517Y-126694091D01*
X110702127Y-126700500D01*
X113797872Y-126700499D01*
X113857483Y-126694091D01*
X113992331Y-126643796D01*
X114107546Y-126557546D01*
X114193796Y-126442331D01*
X114244091Y-126307483D01*
X114250500Y-126247873D01*
X114250499Y-124700000D01*
X115244390Y-124700000D01*
X115244706Y-124704418D01*
X115264487Y-124981005D01*
X115264488Y-124981014D01*
X115264804Y-124985428D01*
X115265744Y-124989753D01*
X115265746Y-124989761D01*
X115301434Y-125153813D01*
X115325631Y-125265046D01*
X115327175Y-125269185D01*
X115327176Y-125269189D01*
X115424007Y-125528803D01*
X115425633Y-125533161D01*
X115427753Y-125537043D01*
X115427756Y-125537050D01*
X115560500Y-125780150D01*
X115562774Y-125784315D01*
X115734261Y-126013395D01*
X115936605Y-126215739D01*
X116165685Y-126387226D01*
X116416839Y-126524367D01*
X116684954Y-126624369D01*
X116964572Y-126685196D01*
X117250000Y-126705610D01*
X117535428Y-126685196D01*
X117815046Y-126624369D01*
X118083161Y-126524367D01*
X118334315Y-126387226D01*
X118477968Y-126279689D01*
X121029392Y-126279689D01*
X121037710Y-126290800D01*
X121162406Y-126384147D01*
X121169849Y-126388931D01*
X121413158Y-126521787D01*
X121421196Y-126525458D01*
X121680952Y-126622342D01*
X121689421Y-126624828D01*
X121960309Y-126683757D01*
X121969065Y-126685016D01*
X122245582Y-126704793D01*
X122254418Y-126704793D01*
X122530934Y-126685016D01*
X122539690Y-126683757D01*
X122810578Y-126624828D01*
X122819047Y-126622342D01*
X123078803Y-126525458D01*
X123086841Y-126521787D01*
X123330150Y-126388931D01*
X123337593Y-126384147D01*
X123462288Y-126290800D01*
X123470606Y-126279689D01*
X123463954Y-126267508D01*
X123441024Y-126244578D01*
X129699500Y-126244578D01*
X129699501Y-126247872D01*
X129699853Y-126251150D01*
X129699854Y-126251161D01*
X129705079Y-126299768D01*
X129705080Y-126299773D01*
X129705909Y-126307483D01*
X129708619Y-126314749D01*
X129708620Y-126314753D01*
X129738901Y-126395939D01*
X129756204Y-126442331D01*
X129761518Y-126449430D01*
X129761519Y-126449431D01*
X129832795Y-126544644D01*
X129842454Y-126557546D01*
X129957669Y-126643796D01*
X130092517Y-126694091D01*
X130152127Y-126700500D01*
X133247872Y-126700499D01*
X133307483Y-126694091D01*
X133442331Y-126643796D01*
X133557546Y-126557546D01*
X133643796Y-126442331D01*
X133694091Y-126307483D01*
X133700500Y-126247873D01*
X133700499Y-124700000D01*
X134694390Y-124700000D01*
X134694706Y-124704418D01*
X134714487Y-124981005D01*
X134714488Y-124981014D01*
X134714804Y-124985428D01*
X134715744Y-124989753D01*
X134715746Y-124989761D01*
X134751434Y-125153813D01*
X134775631Y-125265046D01*
X134777175Y-125269185D01*
X134777176Y-125269189D01*
X134874007Y-125528803D01*
X134875633Y-125533161D01*
X134877753Y-125537043D01*
X134877756Y-125537050D01*
X135010500Y-125780150D01*
X135012774Y-125784315D01*
X135184261Y-126013395D01*
X135386605Y-126215739D01*
X135615685Y-126387226D01*
X135866839Y-126524367D01*
X136134954Y-126624369D01*
X136414572Y-126685196D01*
X136700000Y-126705610D01*
X136985428Y-126685196D01*
X137265046Y-126624369D01*
X137533161Y-126524367D01*
X137784315Y-126387226D01*
X137927968Y-126279689D01*
X140479392Y-126279689D01*
X140487710Y-126290800D01*
X140612406Y-126384147D01*
X140619849Y-126388931D01*
X140863158Y-126521787D01*
X140871196Y-126525458D01*
X141130952Y-126622342D01*
X141139421Y-126624828D01*
X141410309Y-126683757D01*
X141419065Y-126685016D01*
X141695582Y-126704793D01*
X141704418Y-126704793D01*
X141980934Y-126685016D01*
X141989690Y-126683757D01*
X142260578Y-126624828D01*
X142269047Y-126622342D01*
X142528803Y-126525458D01*
X142536841Y-126521787D01*
X142780150Y-126388931D01*
X142787593Y-126384147D01*
X142912288Y-126290800D01*
X142920606Y-126279689D01*
X142913954Y-126267508D01*
X142891024Y-126244578D01*
X149149500Y-126244578D01*
X149149501Y-126247872D01*
X149149853Y-126251150D01*
X149149854Y-126251161D01*
X149155079Y-126299768D01*
X149155080Y-126299773D01*
X149155909Y-126307483D01*
X149158619Y-126314749D01*
X149158620Y-126314753D01*
X149188901Y-126395939D01*
X149206204Y-126442331D01*
X149211518Y-126449430D01*
X149211519Y-126449431D01*
X149282795Y-126544644D01*
X149292454Y-126557546D01*
X149407669Y-126643796D01*
X149542517Y-126694091D01*
X149602127Y-126700500D01*
X152697872Y-126700499D01*
X152757483Y-126694091D01*
X152892331Y-126643796D01*
X153007546Y-126557546D01*
X153093796Y-126442331D01*
X153144091Y-126307483D01*
X153150500Y-126247873D01*
X153150499Y-124700000D01*
X154144390Y-124700000D01*
X154144706Y-124704418D01*
X154164487Y-124981005D01*
X154164488Y-124981014D01*
X154164804Y-124985428D01*
X154165744Y-124989753D01*
X154165746Y-124989761D01*
X154201434Y-125153813D01*
X154225631Y-125265046D01*
X154227175Y-125269185D01*
X154227176Y-125269189D01*
X154324007Y-125528803D01*
X154325633Y-125533161D01*
X154327753Y-125537043D01*
X154327756Y-125537050D01*
X154460500Y-125780150D01*
X154462774Y-125784315D01*
X154634261Y-126013395D01*
X154836605Y-126215739D01*
X155065685Y-126387226D01*
X155316839Y-126524367D01*
X155584954Y-126624369D01*
X155864572Y-126685196D01*
X156150000Y-126705610D01*
X156435428Y-126685196D01*
X156715046Y-126624369D01*
X156983161Y-126524367D01*
X157234315Y-126387226D01*
X157377968Y-126279689D01*
X159929392Y-126279689D01*
X159937710Y-126290800D01*
X160062406Y-126384147D01*
X160069849Y-126388931D01*
X160313158Y-126521787D01*
X160321196Y-126525458D01*
X160580952Y-126622342D01*
X160589421Y-126624828D01*
X160860309Y-126683757D01*
X160869065Y-126685016D01*
X161145582Y-126704793D01*
X161154418Y-126704793D01*
X161430934Y-126685016D01*
X161439690Y-126683757D01*
X161710578Y-126624828D01*
X161719047Y-126622342D01*
X161978803Y-126525458D01*
X161986841Y-126521787D01*
X162230150Y-126388931D01*
X162237593Y-126384147D01*
X162362288Y-126290800D01*
X162370606Y-126279689D01*
X162363954Y-126267508D01*
X161161542Y-125065095D01*
X161149999Y-125058431D01*
X161138457Y-125065095D01*
X159936044Y-126267508D01*
X159929392Y-126279689D01*
X157377968Y-126279689D01*
X157463395Y-126215739D01*
X157665739Y-126013395D01*
X157837226Y-125784315D01*
X157974367Y-125533161D01*
X158074369Y-125265046D01*
X158135196Y-124985428D01*
X158155294Y-124704418D01*
X159145207Y-124704418D01*
X159164983Y-124980934D01*
X159166242Y-124989690D01*
X159225171Y-125260578D01*
X159227657Y-125269047D01*
X159324541Y-125528803D01*
X159328212Y-125536841D01*
X159461068Y-125780150D01*
X159465852Y-125787593D01*
X159559198Y-125912288D01*
X159570309Y-125920606D01*
X159582490Y-125913954D01*
X160784903Y-124711542D01*
X160791567Y-124699999D01*
X161508431Y-124699999D01*
X161515095Y-124711541D01*
X162717508Y-125913954D01*
X162729689Y-125920606D01*
X162740800Y-125912288D01*
X162834147Y-125787593D01*
X162838931Y-125780150D01*
X162971787Y-125536841D01*
X162975458Y-125528803D01*
X163072342Y-125269047D01*
X163074828Y-125260578D01*
X163133757Y-124989690D01*
X163135016Y-124980934D01*
X163154793Y-124704418D01*
X163154793Y-124695582D01*
X163135016Y-124419065D01*
X163133757Y-124410309D01*
X163074828Y-124139421D01*
X163072342Y-124130952D01*
X162975458Y-123871196D01*
X162971787Y-123863158D01*
X162838931Y-123619849D01*
X162834147Y-123612406D01*
X162740800Y-123487710D01*
X162729689Y-123479392D01*
X162717508Y-123486044D01*
X161515095Y-124688456D01*
X161508431Y-124699999D01*
X160791567Y-124699999D01*
X160784903Y-124688457D01*
X159579308Y-123482862D01*
X159570135Y-123476967D01*
X159561894Y-123484108D01*
X159465855Y-123612402D01*
X159461068Y-123619850D01*
X159328212Y-123863158D01*
X159324541Y-123871196D01*
X159227657Y-124130952D01*
X159225171Y-124139421D01*
X159166242Y-124410309D01*
X159164983Y-124419065D01*
X159145207Y-124695582D01*
X159145207Y-124704418D01*
X158155294Y-124704418D01*
X158155610Y-124700000D01*
X158135196Y-124414572D01*
X158074369Y-124134954D01*
X157974367Y-123866839D01*
X157837226Y-123615685D01*
X157665739Y-123386605D01*
X157463395Y-123184261D01*
X157377733Y-123120135D01*
X159926967Y-123120135D01*
X159932862Y-123129308D01*
X161138457Y-124334903D01*
X161149999Y-124341567D01*
X161161542Y-124334903D01*
X162363954Y-123132490D01*
X162370606Y-123120309D01*
X162362288Y-123109198D01*
X162237593Y-123015852D01*
X162230150Y-123011068D01*
X161986841Y-122878212D01*
X161978803Y-122874541D01*
X161719047Y-122777657D01*
X161710578Y-122775171D01*
X161439690Y-122716242D01*
X161430934Y-122714983D01*
X161154418Y-122695207D01*
X161145582Y-122695207D01*
X160869065Y-122714983D01*
X160860309Y-122716242D01*
X160589421Y-122775171D01*
X160580952Y-122777657D01*
X160321196Y-122874541D01*
X160313158Y-122878212D01*
X160069850Y-123011068D01*
X160062402Y-123015855D01*
X159934108Y-123111894D01*
X159926967Y-123120135D01*
X157377733Y-123120135D01*
X157234315Y-123012774D01*
X157230420Y-123010647D01*
X156987050Y-122877756D01*
X156987043Y-122877753D01*
X156983161Y-122875633D01*
X156979017Y-122874087D01*
X156979012Y-122874085D01*
X156719189Y-122777176D01*
X156719185Y-122777175D01*
X156715046Y-122775631D01*
X156650174Y-122761519D01*
X156439761Y-122715746D01*
X156439753Y-122715744D01*
X156435428Y-122714804D01*
X156431014Y-122714488D01*
X156431005Y-122714487D01*
X156154418Y-122694706D01*
X156150000Y-122694390D01*
X156145582Y-122694706D01*
X155868994Y-122714487D01*
X155868983Y-122714488D01*
X155864572Y-122714804D01*
X155860248Y-122715744D01*
X155860238Y-122715746D01*
X155589279Y-122774690D01*
X155589276Y-122774690D01*
X155584954Y-122775631D01*
X155580818Y-122777173D01*
X155580810Y-122777176D01*
X155320987Y-122874085D01*
X155320976Y-122874089D01*
X155316839Y-122875633D01*
X155312961Y-122877750D01*
X155312949Y-122877756D01*
X155069579Y-123010647D01*
X155069571Y-123010651D01*
X155065685Y-123012774D01*
X155062135Y-123015431D01*
X155062131Y-123015434D01*
X154840156Y-123181602D01*
X154840149Y-123181607D01*
X154836605Y-123184261D01*
X154833474Y-123187391D01*
X154833467Y-123187398D01*
X154637398Y-123383467D01*
X154637391Y-123383474D01*
X154634261Y-123386605D01*
X154631607Y-123390149D01*
X154631602Y-123390156D01*
X154470012Y-123606016D01*
X154462774Y-123615685D01*
X154460651Y-123619571D01*
X154460647Y-123619579D01*
X154327756Y-123862949D01*
X154327750Y-123862961D01*
X154325633Y-123866839D01*
X154324089Y-123870976D01*
X154324085Y-123870987D01*
X154227176Y-124130810D01*
X154227173Y-124130818D01*
X154225631Y-124134954D01*
X154224690Y-124139276D01*
X154224690Y-124139279D01*
X154165746Y-124410238D01*
X154165744Y-124410248D01*
X154164804Y-124414572D01*
X154164488Y-124418983D01*
X154164487Y-124418994D01*
X154145272Y-124687654D01*
X154144390Y-124700000D01*
X153150499Y-124700000D01*
X153150499Y-123152128D01*
X153144091Y-123092517D01*
X153093796Y-122957669D01*
X153007546Y-122842454D01*
X152920988Y-122777657D01*
X152899431Y-122761519D01*
X152899430Y-122761518D01*
X152892331Y-122756204D01*
X152821965Y-122729959D01*
X152764752Y-122708620D01*
X152764750Y-122708619D01*
X152757483Y-122705909D01*
X152749770Y-122705079D01*
X152749767Y-122705079D01*
X152701180Y-122699855D01*
X152701169Y-122699854D01*
X152697873Y-122699500D01*
X152694550Y-122699500D01*
X149605439Y-122699500D01*
X149605420Y-122699500D01*
X149602128Y-122699501D01*
X149598850Y-122699853D01*
X149598838Y-122699854D01*
X149550231Y-122705079D01*
X149550225Y-122705080D01*
X149542517Y-122705909D01*
X149535252Y-122708618D01*
X149535246Y-122708620D01*
X149415980Y-122753104D01*
X149415978Y-122753104D01*
X149407669Y-122756204D01*
X149400572Y-122761516D01*
X149400568Y-122761519D01*
X149299550Y-122837141D01*
X149299546Y-122837144D01*
X149292454Y-122842454D01*
X149287144Y-122849546D01*
X149287141Y-122849550D01*
X149211519Y-122950568D01*
X149211516Y-122950572D01*
X149206204Y-122957669D01*
X149203104Y-122965978D01*
X149203104Y-122965980D01*
X149158620Y-123085247D01*
X149158619Y-123085250D01*
X149155909Y-123092517D01*
X149155079Y-123100227D01*
X149155079Y-123100232D01*
X149149855Y-123148819D01*
X149149854Y-123148831D01*
X149149500Y-123152127D01*
X149149500Y-123155448D01*
X149149500Y-123155449D01*
X149149500Y-126244560D01*
X149149500Y-126244578D01*
X142891024Y-126244578D01*
X141711542Y-125065095D01*
X141699999Y-125058431D01*
X141688457Y-125065095D01*
X140486044Y-126267508D01*
X140479392Y-126279689D01*
X137927968Y-126279689D01*
X138013395Y-126215739D01*
X138215739Y-126013395D01*
X138387226Y-125784315D01*
X138524367Y-125533161D01*
X138624369Y-125265046D01*
X138685196Y-124985428D01*
X138705294Y-124704418D01*
X139695207Y-124704418D01*
X139714983Y-124980934D01*
X139716242Y-124989690D01*
X139775171Y-125260578D01*
X139777657Y-125269047D01*
X139874541Y-125528803D01*
X139878212Y-125536841D01*
X140011068Y-125780150D01*
X140015852Y-125787593D01*
X140109198Y-125912288D01*
X140120309Y-125920606D01*
X140132490Y-125913954D01*
X141334903Y-124711542D01*
X141341566Y-124700000D01*
X142058431Y-124700000D01*
X142065095Y-124711542D01*
X143267508Y-125913954D01*
X143279689Y-125920606D01*
X143290800Y-125912288D01*
X143384147Y-125787593D01*
X143388931Y-125780150D01*
X143521787Y-125536841D01*
X143525458Y-125528803D01*
X143622342Y-125269047D01*
X143624828Y-125260578D01*
X143683757Y-124989690D01*
X143685016Y-124980934D01*
X143704793Y-124704418D01*
X143704793Y-124695582D01*
X143685016Y-124419065D01*
X143683757Y-124410309D01*
X143624828Y-124139421D01*
X143622342Y-124130952D01*
X143525458Y-123871196D01*
X143521787Y-123863158D01*
X143388931Y-123619849D01*
X143384147Y-123612406D01*
X143290800Y-123487710D01*
X143279689Y-123479392D01*
X143267508Y-123486044D01*
X142065095Y-124688457D01*
X142058431Y-124700000D01*
X141341566Y-124700000D01*
X141341567Y-124699999D01*
X141334903Y-124688457D01*
X140129308Y-123482862D01*
X140120135Y-123476967D01*
X140111894Y-123484108D01*
X140015855Y-123612402D01*
X140011068Y-123619850D01*
X139878212Y-123863158D01*
X139874541Y-123871196D01*
X139777657Y-124130952D01*
X139775171Y-124139421D01*
X139716242Y-124410309D01*
X139714983Y-124419065D01*
X139695207Y-124695582D01*
X139695207Y-124704418D01*
X138705294Y-124704418D01*
X138705610Y-124700000D01*
X138685196Y-124414572D01*
X138624369Y-124134954D01*
X138524367Y-123866839D01*
X138387226Y-123615685D01*
X138215739Y-123386605D01*
X138013395Y-123184261D01*
X137927733Y-123120135D01*
X140476967Y-123120135D01*
X140482862Y-123129308D01*
X141688457Y-124334903D01*
X141699999Y-124341567D01*
X141711542Y-124334903D01*
X142913954Y-123132490D01*
X142920606Y-123120309D01*
X142912288Y-123109198D01*
X142787593Y-123015852D01*
X142780150Y-123011068D01*
X142536841Y-122878212D01*
X142528803Y-122874541D01*
X142269047Y-122777657D01*
X142260578Y-122775171D01*
X141989690Y-122716242D01*
X141980934Y-122714983D01*
X141704418Y-122695207D01*
X141695582Y-122695207D01*
X141419065Y-122714983D01*
X141410309Y-122716242D01*
X141139421Y-122775171D01*
X141130952Y-122777657D01*
X140871196Y-122874541D01*
X140863158Y-122878212D01*
X140619850Y-123011068D01*
X140612402Y-123015855D01*
X140484108Y-123111894D01*
X140476967Y-123120135D01*
X137927733Y-123120135D01*
X137784315Y-123012774D01*
X137780420Y-123010647D01*
X137537050Y-122877756D01*
X137537043Y-122877753D01*
X137533161Y-122875633D01*
X137529017Y-122874087D01*
X137529012Y-122874085D01*
X137269189Y-122777176D01*
X137269185Y-122777175D01*
X137265046Y-122775631D01*
X137200174Y-122761519D01*
X136989761Y-122715746D01*
X136989753Y-122715744D01*
X136985428Y-122714804D01*
X136981014Y-122714488D01*
X136981005Y-122714487D01*
X136704418Y-122694706D01*
X136700000Y-122694390D01*
X136695582Y-122694706D01*
X136418994Y-122714487D01*
X136418983Y-122714488D01*
X136414572Y-122714804D01*
X136410248Y-122715744D01*
X136410238Y-122715746D01*
X136139279Y-122774690D01*
X136139276Y-122774690D01*
X136134954Y-122775631D01*
X136130818Y-122777173D01*
X136130810Y-122777176D01*
X135870987Y-122874085D01*
X135870976Y-122874089D01*
X135866839Y-122875633D01*
X135862961Y-122877750D01*
X135862949Y-122877756D01*
X135619579Y-123010647D01*
X135619571Y-123010651D01*
X135615685Y-123012774D01*
X135612135Y-123015431D01*
X135612131Y-123015434D01*
X135390156Y-123181602D01*
X135390149Y-123181607D01*
X135386605Y-123184261D01*
X135383474Y-123187391D01*
X135383467Y-123187398D01*
X135187398Y-123383467D01*
X135187391Y-123383474D01*
X135184261Y-123386605D01*
X135181607Y-123390149D01*
X135181602Y-123390156D01*
X135020012Y-123606016D01*
X135012774Y-123615685D01*
X135010651Y-123619571D01*
X135010647Y-123619579D01*
X134877756Y-123862949D01*
X134877750Y-123862961D01*
X134875633Y-123866839D01*
X134874089Y-123870976D01*
X134874085Y-123870987D01*
X134777176Y-124130810D01*
X134777173Y-124130818D01*
X134775631Y-124134954D01*
X134774690Y-124139276D01*
X134774690Y-124139279D01*
X134715746Y-124410238D01*
X134715744Y-124410248D01*
X134714804Y-124414572D01*
X134714488Y-124418983D01*
X134714487Y-124418994D01*
X134695272Y-124687654D01*
X134694390Y-124700000D01*
X133700499Y-124700000D01*
X133700499Y-123152128D01*
X133694091Y-123092517D01*
X133643796Y-122957669D01*
X133557546Y-122842454D01*
X133470988Y-122777657D01*
X133449431Y-122761519D01*
X133449430Y-122761518D01*
X133442331Y-122756204D01*
X133371965Y-122729959D01*
X133314752Y-122708620D01*
X133314750Y-122708619D01*
X133307483Y-122705909D01*
X133299770Y-122705079D01*
X133299767Y-122705079D01*
X133251180Y-122699855D01*
X133251169Y-122699854D01*
X133247873Y-122699500D01*
X133244550Y-122699500D01*
X130155439Y-122699500D01*
X130155420Y-122699500D01*
X130152128Y-122699501D01*
X130148850Y-122699853D01*
X130148838Y-122699854D01*
X130100231Y-122705079D01*
X130100225Y-122705080D01*
X130092517Y-122705909D01*
X130085252Y-122708618D01*
X130085246Y-122708620D01*
X129965980Y-122753104D01*
X129965978Y-122753104D01*
X129957669Y-122756204D01*
X129950572Y-122761516D01*
X129950568Y-122761519D01*
X129849550Y-122837141D01*
X129849546Y-122837144D01*
X129842454Y-122842454D01*
X129837144Y-122849546D01*
X129837141Y-122849550D01*
X129761519Y-122950568D01*
X129761516Y-122950572D01*
X129756204Y-122957669D01*
X129753104Y-122965978D01*
X129753104Y-122965980D01*
X129708620Y-123085247D01*
X129708619Y-123085250D01*
X129705909Y-123092517D01*
X129705079Y-123100227D01*
X129705079Y-123100232D01*
X129699855Y-123148819D01*
X129699854Y-123148831D01*
X129699500Y-123152127D01*
X129699500Y-123155448D01*
X129699500Y-123155449D01*
X129699500Y-126244560D01*
X129699500Y-126244578D01*
X123441024Y-126244578D01*
X122261542Y-125065095D01*
X122249999Y-125058431D01*
X122238457Y-125065095D01*
X121036044Y-126267508D01*
X121029392Y-126279689D01*
X118477968Y-126279689D01*
X118563395Y-126215739D01*
X118765739Y-126013395D01*
X118937226Y-125784315D01*
X119074367Y-125533161D01*
X119174369Y-125265046D01*
X119235196Y-124985428D01*
X119255294Y-124704418D01*
X120245207Y-124704418D01*
X120264983Y-124980934D01*
X120266242Y-124989690D01*
X120325171Y-125260578D01*
X120327657Y-125269047D01*
X120424541Y-125528803D01*
X120428212Y-125536841D01*
X120561068Y-125780150D01*
X120565852Y-125787593D01*
X120659198Y-125912288D01*
X120670309Y-125920606D01*
X120682490Y-125913954D01*
X121884903Y-124711542D01*
X121891566Y-124700000D01*
X122608431Y-124700000D01*
X122615095Y-124711542D01*
X123817508Y-125913954D01*
X123829689Y-125920606D01*
X123840800Y-125912288D01*
X123934147Y-125787593D01*
X123938931Y-125780150D01*
X124071787Y-125536841D01*
X124075458Y-125528803D01*
X124172342Y-125269047D01*
X124174828Y-125260578D01*
X124233757Y-124989690D01*
X124235016Y-124980934D01*
X124254793Y-124704418D01*
X124254793Y-124695582D01*
X124235016Y-124419065D01*
X124233757Y-124410309D01*
X124174828Y-124139421D01*
X124172342Y-124130952D01*
X124075458Y-123871196D01*
X124071787Y-123863158D01*
X123938931Y-123619849D01*
X123934147Y-123612406D01*
X123840800Y-123487710D01*
X123829689Y-123479392D01*
X123817508Y-123486044D01*
X122615095Y-124688457D01*
X122608431Y-124700000D01*
X121891566Y-124700000D01*
X121891567Y-124699999D01*
X121884903Y-124688457D01*
X120679308Y-123482862D01*
X120670135Y-123476967D01*
X120661894Y-123484108D01*
X120565855Y-123612402D01*
X120561068Y-123619850D01*
X120428212Y-123863158D01*
X120424541Y-123871196D01*
X120327657Y-124130952D01*
X120325171Y-124139421D01*
X120266242Y-124410309D01*
X120264983Y-124419065D01*
X120245207Y-124695582D01*
X120245207Y-124704418D01*
X119255294Y-124704418D01*
X119255610Y-124700000D01*
X119235196Y-124414572D01*
X119174369Y-124134954D01*
X119074367Y-123866839D01*
X118937226Y-123615685D01*
X118765739Y-123386605D01*
X118563395Y-123184261D01*
X118477733Y-123120135D01*
X121026967Y-123120135D01*
X121032864Y-123129310D01*
X122238456Y-124334903D01*
X122249998Y-124341567D01*
X122261541Y-124334903D01*
X123463954Y-123132490D01*
X123470606Y-123120309D01*
X123462288Y-123109198D01*
X123337593Y-123015852D01*
X123330150Y-123011068D01*
X123086841Y-122878212D01*
X123078803Y-122874541D01*
X122819047Y-122777657D01*
X122810578Y-122775171D01*
X122539690Y-122716242D01*
X122530934Y-122714983D01*
X122254418Y-122695207D01*
X122245582Y-122695207D01*
X121969065Y-122714983D01*
X121960309Y-122716242D01*
X121689421Y-122775171D01*
X121680952Y-122777657D01*
X121421196Y-122874541D01*
X121413158Y-122878212D01*
X121169850Y-123011068D01*
X121162402Y-123015855D01*
X121034108Y-123111894D01*
X121026967Y-123120135D01*
X118477733Y-123120135D01*
X118334315Y-123012774D01*
X118330420Y-123010647D01*
X118087050Y-122877756D01*
X118087043Y-122877753D01*
X118083161Y-122875633D01*
X118079017Y-122874087D01*
X118079012Y-122874085D01*
X117819189Y-122777176D01*
X117819185Y-122777175D01*
X117815046Y-122775631D01*
X117750174Y-122761519D01*
X117539761Y-122715746D01*
X117539753Y-122715744D01*
X117535428Y-122714804D01*
X117531014Y-122714488D01*
X117531005Y-122714487D01*
X117254418Y-122694706D01*
X117250000Y-122694390D01*
X117245582Y-122694706D01*
X116968994Y-122714487D01*
X116968983Y-122714488D01*
X116964572Y-122714804D01*
X116960248Y-122715744D01*
X116960238Y-122715746D01*
X116689279Y-122774690D01*
X116689276Y-122774690D01*
X116684954Y-122775631D01*
X116680818Y-122777173D01*
X116680810Y-122777176D01*
X116420987Y-122874085D01*
X116420976Y-122874089D01*
X116416839Y-122875633D01*
X116412961Y-122877750D01*
X116412949Y-122877756D01*
X116169579Y-123010647D01*
X116169571Y-123010651D01*
X116165685Y-123012774D01*
X116162135Y-123015431D01*
X116162131Y-123015434D01*
X115940156Y-123181602D01*
X115940149Y-123181607D01*
X115936605Y-123184261D01*
X115933474Y-123187391D01*
X115933467Y-123187398D01*
X115737398Y-123383467D01*
X115737391Y-123383474D01*
X115734261Y-123386605D01*
X115731607Y-123390149D01*
X115731602Y-123390156D01*
X115570012Y-123606016D01*
X115562774Y-123615685D01*
X115560651Y-123619571D01*
X115560647Y-123619579D01*
X115427756Y-123862949D01*
X115427750Y-123862961D01*
X115425633Y-123866839D01*
X115424089Y-123870976D01*
X115424085Y-123870987D01*
X115327176Y-124130810D01*
X115327173Y-124130818D01*
X115325631Y-124134954D01*
X115324690Y-124139276D01*
X115324690Y-124139279D01*
X115265746Y-124410238D01*
X115265744Y-124410248D01*
X115264804Y-124414572D01*
X115264488Y-124418983D01*
X115264487Y-124418994D01*
X115245272Y-124687654D01*
X115244390Y-124700000D01*
X114250499Y-124700000D01*
X114250499Y-123152128D01*
X114244091Y-123092517D01*
X114193796Y-122957669D01*
X114107546Y-122842454D01*
X114020988Y-122777657D01*
X113999431Y-122761519D01*
X113999430Y-122761518D01*
X113992331Y-122756204D01*
X113921965Y-122729959D01*
X113864752Y-122708620D01*
X113864750Y-122708619D01*
X113857483Y-122705909D01*
X113849770Y-122705079D01*
X113849767Y-122705079D01*
X113801180Y-122699855D01*
X113801169Y-122699854D01*
X113797873Y-122699500D01*
X113794550Y-122699500D01*
X110705439Y-122699500D01*
X110705420Y-122699500D01*
X110702128Y-122699501D01*
X110698850Y-122699853D01*
X110698838Y-122699854D01*
X110650231Y-122705079D01*
X110650225Y-122705080D01*
X110642517Y-122705909D01*
X110635252Y-122708618D01*
X110635246Y-122708620D01*
X110515980Y-122753104D01*
X110515978Y-122753104D01*
X110507669Y-122756204D01*
X110500572Y-122761516D01*
X110500568Y-122761519D01*
X110399550Y-122837141D01*
X110399546Y-122837144D01*
X110392454Y-122842454D01*
X110387144Y-122849546D01*
X110387141Y-122849550D01*
X110311519Y-122950568D01*
X110311516Y-122950572D01*
X110306204Y-122957669D01*
X110303104Y-122965978D01*
X110303104Y-122965980D01*
X110258620Y-123085247D01*
X110258619Y-123085250D01*
X110255909Y-123092517D01*
X110255079Y-123100227D01*
X110255079Y-123100232D01*
X110249855Y-123148819D01*
X110249854Y-123148831D01*
X110249500Y-123152127D01*
X110249500Y-123155448D01*
X110249500Y-123155449D01*
X110249500Y-126244560D01*
X110249500Y-126244578D01*
X103991024Y-126244578D01*
X102811542Y-125065095D01*
X102799999Y-125058431D01*
X102788457Y-125065095D01*
X101586044Y-126267508D01*
X101579392Y-126279689D01*
X99027968Y-126279689D01*
X99113395Y-126215739D01*
X99315739Y-126013395D01*
X99487226Y-125784315D01*
X99624367Y-125533161D01*
X99724369Y-125265046D01*
X99785196Y-124985428D01*
X99805294Y-124704418D01*
X100795207Y-124704418D01*
X100814983Y-124980934D01*
X100816242Y-124989690D01*
X100875171Y-125260578D01*
X100877657Y-125269047D01*
X100974541Y-125528803D01*
X100978212Y-125536841D01*
X101111068Y-125780150D01*
X101115852Y-125787593D01*
X101209198Y-125912288D01*
X101220309Y-125920606D01*
X101232490Y-125913954D01*
X102434903Y-124711542D01*
X102441566Y-124700000D01*
X103158431Y-124700000D01*
X103165095Y-124711542D01*
X104367508Y-125913954D01*
X104379689Y-125920606D01*
X104390800Y-125912288D01*
X104484147Y-125787593D01*
X104488931Y-125780150D01*
X104621787Y-125536841D01*
X104625458Y-125528803D01*
X104722342Y-125269047D01*
X104724828Y-125260578D01*
X104783757Y-124989690D01*
X104785016Y-124980934D01*
X104804793Y-124704418D01*
X104804793Y-124695582D01*
X104785016Y-124419065D01*
X104783757Y-124410309D01*
X104724828Y-124139421D01*
X104722342Y-124130952D01*
X104625458Y-123871196D01*
X104621787Y-123863158D01*
X104488931Y-123619849D01*
X104484147Y-123612406D01*
X104390800Y-123487710D01*
X104379689Y-123479392D01*
X104367508Y-123486044D01*
X103165095Y-124688457D01*
X103158431Y-124700000D01*
X102441566Y-124700000D01*
X102441567Y-124699999D01*
X102434903Y-124688457D01*
X101229308Y-123482862D01*
X101220135Y-123476967D01*
X101211894Y-123484108D01*
X101115855Y-123612402D01*
X101111068Y-123619850D01*
X100978212Y-123863158D01*
X100974541Y-123871196D01*
X100877657Y-124130952D01*
X100875171Y-124139421D01*
X100816242Y-124410309D01*
X100814983Y-124419065D01*
X100795207Y-124695582D01*
X100795207Y-124704418D01*
X99805294Y-124704418D01*
X99805610Y-124700000D01*
X99785196Y-124414572D01*
X99724369Y-124134954D01*
X99624367Y-123866839D01*
X99487226Y-123615685D01*
X99315739Y-123386605D01*
X99113395Y-123184261D01*
X99027733Y-123120135D01*
X101576967Y-123120135D01*
X101582864Y-123129310D01*
X102788456Y-124334903D01*
X102799998Y-124341567D01*
X102811541Y-124334903D01*
X104013954Y-123132490D01*
X104020606Y-123120309D01*
X104012288Y-123109198D01*
X103887593Y-123015852D01*
X103880150Y-123011068D01*
X103636841Y-122878212D01*
X103628803Y-122874541D01*
X103369047Y-122777657D01*
X103360578Y-122775171D01*
X103089690Y-122716242D01*
X103080934Y-122714983D01*
X102804418Y-122695207D01*
X102795582Y-122695207D01*
X102519065Y-122714983D01*
X102510309Y-122716242D01*
X102239421Y-122775171D01*
X102230952Y-122777657D01*
X101971196Y-122874541D01*
X101963158Y-122878212D01*
X101719850Y-123011068D01*
X101712402Y-123015855D01*
X101584108Y-123111894D01*
X101576967Y-123120135D01*
X99027733Y-123120135D01*
X98884315Y-123012774D01*
X98880420Y-123010647D01*
X98637050Y-122877756D01*
X98637043Y-122877753D01*
X98633161Y-122875633D01*
X98629017Y-122874087D01*
X98629012Y-122874085D01*
X98369189Y-122777176D01*
X98369185Y-122777175D01*
X98365046Y-122775631D01*
X98300174Y-122761519D01*
X98089761Y-122715746D01*
X98089753Y-122715744D01*
X98085428Y-122714804D01*
X98081014Y-122714488D01*
X98081005Y-122714487D01*
X97804418Y-122694706D01*
X97800000Y-122694390D01*
X97795582Y-122694706D01*
X97518994Y-122714487D01*
X97518983Y-122714488D01*
X97514572Y-122714804D01*
X97510248Y-122715744D01*
X97510238Y-122715746D01*
X97239279Y-122774690D01*
X97239276Y-122774690D01*
X97234954Y-122775631D01*
X97230818Y-122777173D01*
X97230810Y-122777176D01*
X96970987Y-122874085D01*
X96970976Y-122874089D01*
X96966839Y-122875633D01*
X96962961Y-122877750D01*
X96962949Y-122877756D01*
X96719579Y-123010647D01*
X96719571Y-123010651D01*
X96715685Y-123012774D01*
X96712135Y-123015431D01*
X96712131Y-123015434D01*
X96490156Y-123181602D01*
X96490149Y-123181607D01*
X96486605Y-123184261D01*
X96483474Y-123187391D01*
X96483467Y-123187398D01*
X96287398Y-123383467D01*
X96287391Y-123383474D01*
X96284261Y-123386605D01*
X96281607Y-123390149D01*
X96281602Y-123390156D01*
X96120012Y-123606016D01*
X96112774Y-123615685D01*
X96110651Y-123619571D01*
X96110647Y-123619579D01*
X95977756Y-123862949D01*
X95977750Y-123862961D01*
X95975633Y-123866839D01*
X95974089Y-123870976D01*
X95974085Y-123870987D01*
X95877176Y-124130810D01*
X95877173Y-124130818D01*
X95875631Y-124134954D01*
X95874690Y-124139276D01*
X95874690Y-124139279D01*
X95815746Y-124410238D01*
X95815744Y-124410248D01*
X95814804Y-124414572D01*
X95814488Y-124418983D01*
X95814487Y-124418994D01*
X95795272Y-124687654D01*
X95794390Y-124700000D01*
X94800499Y-124700000D01*
X94800499Y-123152128D01*
X94794091Y-123092517D01*
X94743796Y-122957669D01*
X94657546Y-122842454D01*
X94570988Y-122777657D01*
X94549431Y-122761519D01*
X94549430Y-122761518D01*
X94542331Y-122756204D01*
X94471965Y-122729959D01*
X94414752Y-122708620D01*
X94414750Y-122708619D01*
X94407483Y-122705909D01*
X94399770Y-122705079D01*
X94399767Y-122705079D01*
X94351180Y-122699855D01*
X94351169Y-122699854D01*
X94347873Y-122699500D01*
X94344551Y-122699500D01*
X91735453Y-122699500D01*
X91688000Y-122690061D01*
X91647772Y-122663181D01*
X87597286Y-118612695D01*
X87589842Y-118604514D01*
X87585786Y-118598123D01*
X87536775Y-118552098D01*
X87533978Y-118549387D01*
X87517227Y-118532636D01*
X87514471Y-118529880D01*
X87511290Y-118527412D01*
X87502414Y-118519830D01*
X87476269Y-118495278D01*
X87476267Y-118495276D01*
X87470582Y-118489938D01*
X87463749Y-118486182D01*
X87463743Y-118486177D01*
X87453025Y-118480285D01*
X87436766Y-118469606D01*
X87427095Y-118462104D01*
X87427092Y-118462102D01*
X87420936Y-118457327D01*
X87413779Y-118454229D01*
X87413776Y-118454228D01*
X87380849Y-118439978D01*
X87370363Y-118434841D01*
X87338932Y-118417562D01*
X87338923Y-118417558D01*
X87332092Y-118413803D01*
X87324535Y-118411862D01*
X87324531Y-118411861D01*
X87312688Y-118408820D01*
X87294284Y-118402519D01*
X87283057Y-118397660D01*
X87283050Y-118397658D01*
X87275896Y-118394562D01*
X87268192Y-118393341D01*
X87268190Y-118393341D01*
X87232759Y-118387729D01*
X87221324Y-118385361D01*
X87186571Y-118376438D01*
X87186563Y-118376437D01*
X87179019Y-118374500D01*
X87171223Y-118374500D01*
X87158983Y-118374500D01*
X87139597Y-118372974D01*
X87119804Y-118369840D01*
X87112038Y-118370574D01*
X87112035Y-118370574D01*
X87076324Y-118373950D01*
X87064655Y-118374500D01*
X76810452Y-118374500D01*
X76762999Y-118365061D01*
X76722771Y-118338181D01*
X73802849Y-115418259D01*
X73772269Y-115367865D01*
X73768414Y-115309045D01*
X73792155Y-115255091D01*
X73838125Y-115218196D01*
X73932830Y-115174035D01*
X74126401Y-115038495D01*
X74293495Y-114871401D01*
X74423424Y-114685842D01*
X74467743Y-114646976D01*
X74525000Y-114632965D01*
X74582257Y-114646976D01*
X74626575Y-114685842D01*
X74753395Y-114866961D01*
X74753401Y-114866968D01*
X74756505Y-114871401D01*
X74923599Y-115038495D01*
X75117170Y-115174035D01*
X75122070Y-115176320D01*
X75122072Y-115176321D01*
X75176443Y-115201674D01*
X75331337Y-115273903D01*
X75559592Y-115335063D01*
X75795000Y-115355659D01*
X76030408Y-115335063D01*
X76258663Y-115273903D01*
X76472830Y-115174035D01*
X76666401Y-115038495D01*
X76833495Y-114871401D01*
X76963424Y-114685842D01*
X77007743Y-114646976D01*
X77065000Y-114632965D01*
X77122257Y-114646976D01*
X77166575Y-114685842D01*
X77293395Y-114866961D01*
X77293401Y-114866968D01*
X77296505Y-114871401D01*
X77463599Y-115038495D01*
X77657170Y-115174035D01*
X77662070Y-115176320D01*
X77662072Y-115176321D01*
X77716443Y-115201674D01*
X77871337Y-115273903D01*
X78099592Y-115335063D01*
X78335000Y-115355659D01*
X78570408Y-115335063D01*
X78798663Y-115273903D01*
X79012830Y-115174035D01*
X79206401Y-115038495D01*
X79373495Y-114871401D01*
X79503424Y-114685842D01*
X79547743Y-114646976D01*
X79605000Y-114632965D01*
X79662257Y-114646976D01*
X79706575Y-114685842D01*
X79833395Y-114866961D01*
X79833401Y-114866968D01*
X79836505Y-114871401D01*
X80003599Y-115038495D01*
X80197170Y-115174035D01*
X80202070Y-115176320D01*
X80202072Y-115176321D01*
X80256443Y-115201674D01*
X80411337Y-115273903D01*
X80639592Y-115335063D01*
X80875000Y-115355659D01*
X81110408Y-115335063D01*
X81338663Y-115273903D01*
X81552830Y-115174035D01*
X81746401Y-115038495D01*
X81913495Y-114871401D01*
X82043424Y-114685842D01*
X82087743Y-114646976D01*
X82145000Y-114632965D01*
X82202257Y-114646976D01*
X82246575Y-114685842D01*
X82373395Y-114866961D01*
X82373401Y-114866968D01*
X82376505Y-114871401D01*
X82543599Y-115038495D01*
X82737170Y-115174035D01*
X82742070Y-115176320D01*
X82742072Y-115176321D01*
X82796443Y-115201674D01*
X82951337Y-115273903D01*
X83179592Y-115335063D01*
X83415000Y-115355659D01*
X83650408Y-115335063D01*
X83878663Y-115273903D01*
X84092830Y-115174035D01*
X84286401Y-115038495D01*
X84453495Y-114871401D01*
X84583424Y-114685842D01*
X84627743Y-114646976D01*
X84685000Y-114632965D01*
X84742257Y-114646976D01*
X84786575Y-114685842D01*
X84913395Y-114866961D01*
X84913401Y-114866968D01*
X84916505Y-114871401D01*
X85083599Y-115038495D01*
X85277170Y-115174035D01*
X85282070Y-115176320D01*
X85282072Y-115176321D01*
X85336443Y-115201674D01*
X85491337Y-115273903D01*
X85719592Y-115335063D01*
X85955000Y-115355659D01*
X86190408Y-115335063D01*
X86418663Y-115273903D01*
X86632830Y-115174035D01*
X86826401Y-115038495D01*
X86993495Y-114871401D01*
X87123424Y-114685842D01*
X87167743Y-114646976D01*
X87225000Y-114632965D01*
X87282257Y-114646976D01*
X87326575Y-114685842D01*
X87453395Y-114866961D01*
X87453401Y-114866968D01*
X87456505Y-114871401D01*
X87623599Y-115038495D01*
X87817170Y-115174035D01*
X87822070Y-115176320D01*
X87822072Y-115176321D01*
X87876443Y-115201674D01*
X88031337Y-115273903D01*
X88259592Y-115335063D01*
X88495000Y-115355659D01*
X88730408Y-115335063D01*
X88958663Y-115273903D01*
X89172830Y-115174035D01*
X89366401Y-115038495D01*
X89533495Y-114871401D01*
X89663424Y-114685842D01*
X89707743Y-114646976D01*
X89765000Y-114632965D01*
X89822257Y-114646976D01*
X89866575Y-114685842D01*
X89993395Y-114866961D01*
X89993401Y-114866968D01*
X89996505Y-114871401D01*
X90163599Y-115038495D01*
X90357170Y-115174035D01*
X90362070Y-115176320D01*
X90362072Y-115176321D01*
X90416443Y-115201674D01*
X90571337Y-115273903D01*
X90799592Y-115335063D01*
X91035000Y-115355659D01*
X91270408Y-115335063D01*
X91498663Y-115273903D01*
X91712830Y-115174035D01*
X91906401Y-115038495D01*
X92073495Y-114871401D01*
X92203424Y-114685842D01*
X92247743Y-114646976D01*
X92305000Y-114632965D01*
X92362257Y-114646976D01*
X92406575Y-114685842D01*
X92533395Y-114866961D01*
X92533401Y-114866968D01*
X92536505Y-114871401D01*
X92703599Y-115038495D01*
X92897170Y-115174035D01*
X92902070Y-115176320D01*
X92902072Y-115176321D01*
X92956443Y-115201674D01*
X93111337Y-115273903D01*
X93339592Y-115335063D01*
X93575000Y-115355659D01*
X93810408Y-115335063D01*
X94038663Y-115273903D01*
X94252830Y-115174035D01*
X94446401Y-115038495D01*
X94613495Y-114871401D01*
X94743730Y-114685405D01*
X94788048Y-114646540D01*
X94845305Y-114632529D01*
X94902562Y-114646540D01*
X94946880Y-114685405D01*
X95073784Y-114866643D01*
X95080721Y-114874909D01*
X95240090Y-115034278D01*
X95248356Y-115041215D01*
X95432991Y-115170498D01*
X95442323Y-115175886D01*
X95646602Y-115271143D01*
X95656736Y-115274831D01*
X95851219Y-115326943D01*
X95862448Y-115327311D01*
X95865000Y-115316369D01*
X96365000Y-115316369D01*
X96367551Y-115327311D01*
X96378780Y-115326943D01*
X96573263Y-115274831D01*
X96583397Y-115271143D01*
X96787676Y-115175886D01*
X96797008Y-115170498D01*
X96981643Y-115041215D01*
X96989909Y-115034278D01*
X97149278Y-114874909D01*
X97156219Y-114866638D01*
X97283119Y-114685406D01*
X97327437Y-114646540D01*
X97384694Y-114632529D01*
X97441951Y-114646540D01*
X97486269Y-114685405D01*
X97613399Y-114866966D01*
X97613402Y-114866970D01*
X97616505Y-114871401D01*
X97783599Y-115038495D01*
X97977170Y-115174035D01*
X97982070Y-115176320D01*
X97982072Y-115176321D01*
X98036443Y-115201674D01*
X98191337Y-115273903D01*
X98419592Y-115335063D01*
X98655000Y-115355659D01*
X98890408Y-115335063D01*
X99118663Y-115273903D01*
X99332830Y-115174035D01*
X99526401Y-115038495D01*
X99693495Y-114871401D01*
X99823424Y-114685842D01*
X99867743Y-114646976D01*
X99925000Y-114632965D01*
X99982257Y-114646976D01*
X100026575Y-114685842D01*
X100153395Y-114866961D01*
X100153401Y-114866968D01*
X100156505Y-114871401D01*
X100323599Y-115038495D01*
X100517170Y-115174035D01*
X100522070Y-115176320D01*
X100522072Y-115176321D01*
X100576443Y-115201674D01*
X100731337Y-115273903D01*
X100959592Y-115335063D01*
X101195000Y-115355659D01*
X101430408Y-115335063D01*
X101658663Y-115273903D01*
X101872830Y-115174035D01*
X102066401Y-115038495D01*
X102233495Y-114871401D01*
X102363424Y-114685842D01*
X102407743Y-114646976D01*
X102465000Y-114632965D01*
X102522257Y-114646976D01*
X102566575Y-114685842D01*
X102693395Y-114866961D01*
X102693401Y-114866968D01*
X102696505Y-114871401D01*
X102863599Y-115038495D01*
X103057170Y-115174035D01*
X103062070Y-115176320D01*
X103062072Y-115176321D01*
X103116443Y-115201674D01*
X103271337Y-115273903D01*
X103499592Y-115335063D01*
X103735000Y-115355659D01*
X103970408Y-115335063D01*
X104198663Y-115273903D01*
X104412830Y-115174035D01*
X104606401Y-115038495D01*
X104773495Y-114871401D01*
X104903730Y-114685405D01*
X104948048Y-114646540D01*
X105005305Y-114632529D01*
X105062562Y-114646540D01*
X105106880Y-114685405D01*
X105233784Y-114866643D01*
X105240721Y-114874909D01*
X105400090Y-115034278D01*
X105408356Y-115041215D01*
X105592991Y-115170498D01*
X105602323Y-115175886D01*
X105806602Y-115271143D01*
X105816736Y-115274831D01*
X106011219Y-115326943D01*
X106022448Y-115327311D01*
X106025000Y-115316369D01*
X106525000Y-115316369D01*
X106527551Y-115327311D01*
X106538780Y-115326943D01*
X106733263Y-115274831D01*
X106743397Y-115271143D01*
X106947676Y-115175886D01*
X106957008Y-115170498D01*
X107141643Y-115041215D01*
X107149909Y-115034278D01*
X107309278Y-114874909D01*
X107316219Y-114866638D01*
X107443424Y-114684970D01*
X107487742Y-114646104D01*
X107544999Y-114632093D01*
X107602255Y-114646103D01*
X107646574Y-114684969D01*
X107773784Y-114866643D01*
X107780721Y-114874909D01*
X107940090Y-115034278D01*
X107948356Y-115041215D01*
X108132991Y-115170498D01*
X108142323Y-115175886D01*
X108346602Y-115271143D01*
X108356736Y-115274831D01*
X108551219Y-115326943D01*
X108562448Y-115327311D01*
X108565000Y-115316369D01*
X109065000Y-115316369D01*
X109067551Y-115327311D01*
X109078780Y-115326943D01*
X109273263Y-115274831D01*
X109283397Y-115271143D01*
X109487676Y-115175886D01*
X109497008Y-115170498D01*
X109681643Y-115041215D01*
X109689909Y-115034278D01*
X109849278Y-114874909D01*
X109856219Y-114866638D01*
X109983119Y-114685406D01*
X110027437Y-114646540D01*
X110084694Y-114632529D01*
X110141951Y-114646540D01*
X110186269Y-114685405D01*
X110313399Y-114866966D01*
X110313402Y-114866970D01*
X110316505Y-114871401D01*
X110483599Y-115038495D01*
X110677170Y-115174035D01*
X110682070Y-115176320D01*
X110682072Y-115176321D01*
X110736443Y-115201674D01*
X110891337Y-115273903D01*
X111119592Y-115335063D01*
X111355000Y-115355659D01*
X111590408Y-115335063D01*
X111818663Y-115273903D01*
X112032830Y-115174035D01*
X112226401Y-115038495D01*
X112393495Y-114871401D01*
X112529035Y-114677830D01*
X112628903Y-114463663D01*
X112690063Y-114235408D01*
X112710659Y-114000000D01*
X112690063Y-113764592D01*
X112628903Y-113536337D01*
X112529035Y-113322171D01*
X112393495Y-113128599D01*
X112226401Y-112961505D01*
X112221970Y-112958402D01*
X112221966Y-112958399D01*
X112037259Y-112829066D01*
X112037257Y-112829064D01*
X112032830Y-112825965D01*
X112027933Y-112823681D01*
X112027927Y-112823678D01*
X111823572Y-112728386D01*
X111823570Y-112728385D01*
X111818663Y-112726097D01*
X111813438Y-112724697D01*
X111813430Y-112724694D01*
X111595634Y-112666337D01*
X111595630Y-112666336D01*
X111590408Y-112664937D01*
X111585020Y-112664465D01*
X111585017Y-112664465D01*
X111360395Y-112644813D01*
X111355000Y-112644341D01*
X111349605Y-112644813D01*
X111124982Y-112664465D01*
X111124977Y-112664465D01*
X111119592Y-112664937D01*
X111114371Y-112666335D01*
X111114365Y-112666337D01*
X110896569Y-112724694D01*
X110896557Y-112724698D01*
X110891337Y-112726097D01*
X110886432Y-112728383D01*
X110886427Y-112728386D01*
X110682081Y-112823675D01*
X110682077Y-112823677D01*
X110677171Y-112825965D01*
X110672738Y-112829068D01*
X110672731Y-112829073D01*
X110488034Y-112958399D01*
X110488029Y-112958402D01*
X110483599Y-112961505D01*
X110479775Y-112965328D01*
X110479769Y-112965334D01*
X110320334Y-113124769D01*
X110320328Y-113124775D01*
X110316505Y-113128599D01*
X110313403Y-113133028D01*
X110313403Y-113133029D01*
X110186269Y-113314596D01*
X110141951Y-113353461D01*
X110084694Y-113367472D01*
X110027437Y-113353461D01*
X109983119Y-113314595D01*
X109856215Y-113133357D01*
X109849280Y-113125092D01*
X109689909Y-112965721D01*
X109681643Y-112958784D01*
X109497008Y-112829501D01*
X109487676Y-112824113D01*
X109283397Y-112728856D01*
X109273263Y-112725168D01*
X109078780Y-112673056D01*
X109067551Y-112672688D01*
X109065000Y-112683631D01*
X109065000Y-115316369D01*
X108565000Y-115316369D01*
X108565000Y-114266326D01*
X108561549Y-114253450D01*
X108548674Y-114250000D01*
X106541326Y-114250000D01*
X106528450Y-114253450D01*
X106525000Y-114266326D01*
X106525000Y-115316369D01*
X106025000Y-115316369D01*
X106025000Y-113733674D01*
X106525000Y-113733674D01*
X106528450Y-113746549D01*
X106541326Y-113750000D01*
X108548674Y-113750000D01*
X108561549Y-113746549D01*
X108565000Y-113733674D01*
X108565000Y-112683631D01*
X108562448Y-112672688D01*
X108551219Y-112673056D01*
X108356736Y-112725168D01*
X108346602Y-112728856D01*
X108142332Y-112824110D01*
X108132982Y-112829508D01*
X107948357Y-112958784D01*
X107940092Y-112965719D01*
X107780719Y-113125092D01*
X107773788Y-113133352D01*
X107646575Y-113315032D01*
X107602257Y-113353897D01*
X107545000Y-113367908D01*
X107487743Y-113353897D01*
X107443425Y-113315032D01*
X107316211Y-113133352D01*
X107309280Y-113125092D01*
X107149909Y-112965721D01*
X107141643Y-112958784D01*
X106957008Y-112829501D01*
X106947676Y-112824113D01*
X106743397Y-112728856D01*
X106733263Y-112725168D01*
X106538780Y-112673056D01*
X106527551Y-112672688D01*
X106525000Y-112683631D01*
X106525000Y-113733674D01*
X106025000Y-113733674D01*
X106025000Y-112683631D01*
X106022448Y-112672688D01*
X106011219Y-112673056D01*
X105816736Y-112725168D01*
X105806602Y-112728856D01*
X105602332Y-112824110D01*
X105592982Y-112829508D01*
X105408357Y-112958784D01*
X105400092Y-112965719D01*
X105240719Y-113125092D01*
X105233788Y-113133352D01*
X105106880Y-113314596D01*
X105062562Y-113353461D01*
X105005305Y-113367472D01*
X104948048Y-113353461D01*
X104903730Y-113314595D01*
X104773495Y-113128599D01*
X104606401Y-112961505D01*
X104601970Y-112958402D01*
X104601966Y-112958399D01*
X104417259Y-112829066D01*
X104417257Y-112829064D01*
X104412830Y-112825965D01*
X104407933Y-112823681D01*
X104407927Y-112823678D01*
X104203572Y-112728386D01*
X104203570Y-112728385D01*
X104198663Y-112726097D01*
X104193438Y-112724697D01*
X104193430Y-112724694D01*
X103975634Y-112666337D01*
X103975630Y-112666336D01*
X103970408Y-112664937D01*
X103965020Y-112664465D01*
X103965017Y-112664465D01*
X103740395Y-112644813D01*
X103735000Y-112644341D01*
X103729605Y-112644813D01*
X103504982Y-112664465D01*
X103504977Y-112664465D01*
X103499592Y-112664937D01*
X103494371Y-112666335D01*
X103494365Y-112666337D01*
X103276569Y-112724694D01*
X103276557Y-112724698D01*
X103271337Y-112726097D01*
X103266432Y-112728383D01*
X103266427Y-112728386D01*
X103062081Y-112823675D01*
X103062077Y-112823677D01*
X103057171Y-112825965D01*
X103052738Y-112829068D01*
X103052731Y-112829073D01*
X102868034Y-112958399D01*
X102868029Y-112958402D01*
X102863599Y-112961505D01*
X102859775Y-112965328D01*
X102859769Y-112965334D01*
X102700334Y-113124769D01*
X102700328Y-113124775D01*
X102696505Y-113128599D01*
X102693403Y-113133028D01*
X102693403Y-113133029D01*
X102566574Y-113314160D01*
X102522256Y-113353025D01*
X102464999Y-113367036D01*
X102407742Y-113353025D01*
X102363426Y-113314161D01*
X102233495Y-113128599D01*
X102066401Y-112961505D01*
X102061970Y-112958402D01*
X102061966Y-112958399D01*
X101877259Y-112829066D01*
X101877257Y-112829064D01*
X101872830Y-112825965D01*
X101867933Y-112823681D01*
X101867927Y-112823678D01*
X101663572Y-112728386D01*
X101663570Y-112728385D01*
X101658663Y-112726097D01*
X101653438Y-112724697D01*
X101653430Y-112724694D01*
X101435634Y-112666337D01*
X101435630Y-112666336D01*
X101430408Y-112664937D01*
X101425020Y-112664465D01*
X101425017Y-112664465D01*
X101200395Y-112644813D01*
X101195000Y-112644341D01*
X101189605Y-112644813D01*
X100964982Y-112664465D01*
X100964977Y-112664465D01*
X100959592Y-112664937D01*
X100954371Y-112666335D01*
X100954365Y-112666337D01*
X100736569Y-112724694D01*
X100736557Y-112724698D01*
X100731337Y-112726097D01*
X100726432Y-112728383D01*
X100726427Y-112728386D01*
X100522081Y-112823675D01*
X100522077Y-112823677D01*
X100517171Y-112825965D01*
X100512738Y-112829068D01*
X100512731Y-112829073D01*
X100328034Y-112958399D01*
X100328029Y-112958402D01*
X100323599Y-112961505D01*
X100319775Y-112965328D01*
X100319769Y-112965334D01*
X100160334Y-113124769D01*
X100160328Y-113124775D01*
X100156505Y-113128599D01*
X100153403Y-113133028D01*
X100153403Y-113133029D01*
X100026574Y-113314160D01*
X99982256Y-113353025D01*
X99924999Y-113367036D01*
X99867742Y-113353025D01*
X99823426Y-113314161D01*
X99693495Y-113128599D01*
X99526401Y-112961505D01*
X99521970Y-112958402D01*
X99521966Y-112958399D01*
X99337259Y-112829066D01*
X99337257Y-112829064D01*
X99332830Y-112825965D01*
X99327933Y-112823681D01*
X99327927Y-112823678D01*
X99123572Y-112728386D01*
X99123570Y-112728385D01*
X99118663Y-112726097D01*
X99113438Y-112724697D01*
X99113430Y-112724694D01*
X98895634Y-112666337D01*
X98895630Y-112666336D01*
X98890408Y-112664937D01*
X98885020Y-112664465D01*
X98885017Y-112664465D01*
X98660395Y-112644813D01*
X98655000Y-112644341D01*
X98649605Y-112644813D01*
X98424982Y-112664465D01*
X98424977Y-112664465D01*
X98419592Y-112664937D01*
X98414371Y-112666335D01*
X98414365Y-112666337D01*
X98196569Y-112724694D01*
X98196557Y-112724698D01*
X98191337Y-112726097D01*
X98186432Y-112728383D01*
X98186427Y-112728386D01*
X97982081Y-112823675D01*
X97982077Y-112823677D01*
X97977171Y-112825965D01*
X97972738Y-112829068D01*
X97972731Y-112829073D01*
X97788034Y-112958399D01*
X97788029Y-112958402D01*
X97783599Y-112961505D01*
X97779775Y-112965328D01*
X97779769Y-112965334D01*
X97620334Y-113124769D01*
X97620328Y-113124775D01*
X97616505Y-113128599D01*
X97613403Y-113133028D01*
X97613403Y-113133029D01*
X97486269Y-113314596D01*
X97441951Y-113353461D01*
X97384694Y-113367472D01*
X97327437Y-113353461D01*
X97283119Y-113314595D01*
X97156215Y-113133357D01*
X97149280Y-113125092D01*
X96989909Y-112965721D01*
X96981643Y-112958784D01*
X96797008Y-112829501D01*
X96787676Y-112824113D01*
X96583397Y-112728856D01*
X96573263Y-112725168D01*
X96378780Y-112673056D01*
X96367551Y-112672688D01*
X96365000Y-112683631D01*
X96365000Y-115316369D01*
X95865000Y-115316369D01*
X95865000Y-112683631D01*
X95862448Y-112672688D01*
X95851219Y-112673056D01*
X95656736Y-112725168D01*
X95646602Y-112728856D01*
X95442332Y-112824110D01*
X95432982Y-112829508D01*
X95248357Y-112958784D01*
X95240092Y-112965719D01*
X95080719Y-113125092D01*
X95073788Y-113133352D01*
X94946880Y-113314596D01*
X94902562Y-113353461D01*
X94845305Y-113367472D01*
X94788048Y-113353461D01*
X94743730Y-113314595D01*
X94613495Y-113128599D01*
X94446401Y-112961505D01*
X94441970Y-112958402D01*
X94441966Y-112958399D01*
X94257259Y-112829066D01*
X94257257Y-112829064D01*
X94252830Y-112825965D01*
X94247933Y-112823681D01*
X94247927Y-112823678D01*
X94043572Y-112728386D01*
X94043570Y-112728385D01*
X94038663Y-112726097D01*
X94033438Y-112724697D01*
X94033430Y-112724694D01*
X93815634Y-112666337D01*
X93815630Y-112666336D01*
X93810408Y-112664937D01*
X93805020Y-112664465D01*
X93805017Y-112664465D01*
X93580395Y-112644813D01*
X93575000Y-112644341D01*
X93569605Y-112644813D01*
X93344982Y-112664465D01*
X93344977Y-112664465D01*
X93339592Y-112664937D01*
X93334371Y-112666335D01*
X93334365Y-112666337D01*
X93116569Y-112724694D01*
X93116557Y-112724698D01*
X93111337Y-112726097D01*
X93106432Y-112728383D01*
X93106427Y-112728386D01*
X92902081Y-112823675D01*
X92902077Y-112823677D01*
X92897171Y-112825965D01*
X92892738Y-112829068D01*
X92892731Y-112829073D01*
X92708034Y-112958399D01*
X92708029Y-112958402D01*
X92703599Y-112961505D01*
X92699775Y-112965328D01*
X92699769Y-112965334D01*
X92540334Y-113124769D01*
X92540328Y-113124775D01*
X92536505Y-113128599D01*
X92533403Y-113133028D01*
X92533403Y-113133029D01*
X92406574Y-113314160D01*
X92362256Y-113353025D01*
X92304999Y-113367036D01*
X92247742Y-113353025D01*
X92203426Y-113314161D01*
X92073495Y-113128599D01*
X91906401Y-112961505D01*
X91901970Y-112958402D01*
X91901966Y-112958399D01*
X91717259Y-112829066D01*
X91717257Y-112829064D01*
X91712830Y-112825965D01*
X91707933Y-112823681D01*
X91707927Y-112823678D01*
X91503572Y-112728386D01*
X91503570Y-112728385D01*
X91498663Y-112726097D01*
X91493438Y-112724697D01*
X91493430Y-112724694D01*
X91275634Y-112666337D01*
X91275630Y-112666336D01*
X91270408Y-112664937D01*
X91265020Y-112664465D01*
X91265017Y-112664465D01*
X91040395Y-112644813D01*
X91035000Y-112644341D01*
X91029605Y-112644813D01*
X90804982Y-112664465D01*
X90804977Y-112664465D01*
X90799592Y-112664937D01*
X90794371Y-112666335D01*
X90794365Y-112666337D01*
X90576569Y-112724694D01*
X90576557Y-112724698D01*
X90571337Y-112726097D01*
X90566432Y-112728383D01*
X90566427Y-112728386D01*
X90362081Y-112823675D01*
X90362077Y-112823677D01*
X90357171Y-112825965D01*
X90352738Y-112829068D01*
X90352731Y-112829073D01*
X90168034Y-112958399D01*
X90168029Y-112958402D01*
X90163599Y-112961505D01*
X90159775Y-112965328D01*
X90159769Y-112965334D01*
X90000334Y-113124769D01*
X90000328Y-113124775D01*
X89996505Y-113128599D01*
X89993403Y-113133028D01*
X89993403Y-113133029D01*
X89866574Y-113314160D01*
X89822256Y-113353025D01*
X89764999Y-113367036D01*
X89707742Y-113353025D01*
X89663426Y-113314161D01*
X89533495Y-113128599D01*
X89366401Y-112961505D01*
X89361970Y-112958402D01*
X89361966Y-112958399D01*
X89177259Y-112829066D01*
X89177257Y-112829064D01*
X89172830Y-112825965D01*
X89167933Y-112823681D01*
X89167927Y-112823678D01*
X88963572Y-112728386D01*
X88963570Y-112728385D01*
X88958663Y-112726097D01*
X88953438Y-112724697D01*
X88953430Y-112724694D01*
X88735634Y-112666337D01*
X88735630Y-112666336D01*
X88730408Y-112664937D01*
X88725020Y-112664465D01*
X88725017Y-112664465D01*
X88500395Y-112644813D01*
X88495000Y-112644341D01*
X88489605Y-112644813D01*
X88264982Y-112664465D01*
X88264977Y-112664465D01*
X88259592Y-112664937D01*
X88254371Y-112666335D01*
X88254365Y-112666337D01*
X88036569Y-112724694D01*
X88036557Y-112724698D01*
X88031337Y-112726097D01*
X88026432Y-112728383D01*
X88026427Y-112728386D01*
X87822081Y-112823675D01*
X87822077Y-112823677D01*
X87817171Y-112825965D01*
X87812738Y-112829068D01*
X87812731Y-112829073D01*
X87628034Y-112958399D01*
X87628029Y-112958402D01*
X87623599Y-112961505D01*
X87619775Y-112965328D01*
X87619769Y-112965334D01*
X87460334Y-113124769D01*
X87460328Y-113124775D01*
X87456505Y-113128599D01*
X87453403Y-113133028D01*
X87453403Y-113133029D01*
X87326574Y-113314160D01*
X87282256Y-113353025D01*
X87224999Y-113367036D01*
X87167742Y-113353025D01*
X87123426Y-113314161D01*
X86993495Y-113128599D01*
X86826401Y-112961505D01*
X86821970Y-112958402D01*
X86821966Y-112958399D01*
X86637259Y-112829066D01*
X86637257Y-112829064D01*
X86632830Y-112825965D01*
X86627933Y-112823681D01*
X86627927Y-112823678D01*
X86423572Y-112728386D01*
X86423570Y-112728385D01*
X86418663Y-112726097D01*
X86413438Y-112724697D01*
X86413430Y-112724694D01*
X86195634Y-112666337D01*
X86195630Y-112666336D01*
X86190408Y-112664937D01*
X86185020Y-112664465D01*
X86185017Y-112664465D01*
X85960395Y-112644813D01*
X85955000Y-112644341D01*
X85949605Y-112644813D01*
X85724982Y-112664465D01*
X85724977Y-112664465D01*
X85719592Y-112664937D01*
X85714371Y-112666335D01*
X85714365Y-112666337D01*
X85496569Y-112724694D01*
X85496557Y-112724698D01*
X85491337Y-112726097D01*
X85486432Y-112728383D01*
X85486427Y-112728386D01*
X85282081Y-112823675D01*
X85282077Y-112823677D01*
X85277171Y-112825965D01*
X85272738Y-112829068D01*
X85272731Y-112829073D01*
X85088034Y-112958399D01*
X85088029Y-112958402D01*
X85083599Y-112961505D01*
X85079775Y-112965328D01*
X85079769Y-112965334D01*
X84920334Y-113124769D01*
X84920328Y-113124775D01*
X84916505Y-113128599D01*
X84913403Y-113133028D01*
X84913403Y-113133029D01*
X84786574Y-113314160D01*
X84742256Y-113353025D01*
X84684999Y-113367036D01*
X84627742Y-113353025D01*
X84583426Y-113314161D01*
X84453495Y-113128599D01*
X84286401Y-112961505D01*
X84281970Y-112958402D01*
X84281966Y-112958399D01*
X84097259Y-112829066D01*
X84097257Y-112829064D01*
X84092830Y-112825965D01*
X84087933Y-112823681D01*
X84087927Y-112823678D01*
X83883572Y-112728386D01*
X83883570Y-112728385D01*
X83878663Y-112726097D01*
X83873438Y-112724697D01*
X83873430Y-112724694D01*
X83655634Y-112666337D01*
X83655630Y-112666336D01*
X83650408Y-112664937D01*
X83645020Y-112664465D01*
X83645017Y-112664465D01*
X83420395Y-112644813D01*
X83415000Y-112644341D01*
X83409605Y-112644813D01*
X83184982Y-112664465D01*
X83184977Y-112664465D01*
X83179592Y-112664937D01*
X83174371Y-112666335D01*
X83174365Y-112666337D01*
X82956569Y-112724694D01*
X82956557Y-112724698D01*
X82951337Y-112726097D01*
X82946432Y-112728383D01*
X82946427Y-112728386D01*
X82742081Y-112823675D01*
X82742077Y-112823677D01*
X82737171Y-112825965D01*
X82732738Y-112829068D01*
X82732731Y-112829073D01*
X82548034Y-112958399D01*
X82548029Y-112958402D01*
X82543599Y-112961505D01*
X82539775Y-112965328D01*
X82539769Y-112965334D01*
X82380334Y-113124769D01*
X82380328Y-113124775D01*
X82376505Y-113128599D01*
X82373403Y-113133028D01*
X82373403Y-113133029D01*
X82246574Y-113314160D01*
X82202256Y-113353025D01*
X82144999Y-113367036D01*
X82087742Y-113353025D01*
X82043426Y-113314161D01*
X81913495Y-113128599D01*
X81746401Y-112961505D01*
X81741970Y-112958402D01*
X81741966Y-112958399D01*
X81553376Y-112826347D01*
X81514511Y-112782029D01*
X81500500Y-112724772D01*
X81500500Y-108035452D01*
X81509939Y-107987999D01*
X81536819Y-107947771D01*
X83922772Y-105561819D01*
X83963000Y-105534939D01*
X84010453Y-105525500D01*
X120022225Y-105525500D01*
X120033280Y-105526021D01*
X120040667Y-105527673D01*
X120107872Y-105525561D01*
X120111768Y-105525500D01*
X120135448Y-105525500D01*
X120139350Y-105525500D01*
X120143313Y-105524999D01*
X120154963Y-105524080D01*
X120198627Y-105522709D01*
X120217861Y-105517119D01*
X120236917Y-105513174D01*
X120256792Y-105510664D01*
X120297395Y-105494587D01*
X120308450Y-105490802D01*
X120350390Y-105478618D01*
X120367629Y-105468422D01*
X120385103Y-105459862D01*
X120396474Y-105455360D01*
X120396476Y-105455358D01*
X120403732Y-105452486D01*
X120439069Y-105426811D01*
X120448824Y-105420403D01*
X120486420Y-105398170D01*
X120500584Y-105384005D01*
X120515379Y-105371368D01*
X120531587Y-105359594D01*
X120559428Y-105325938D01*
X120567279Y-105317309D01*
X121722771Y-104161819D01*
X121763000Y-104134939D01*
X121810453Y-104125500D01*
X124990548Y-104125500D01*
X125046843Y-104139015D01*
X125090866Y-104176615D01*
X125113021Y-104230102D01*
X125108479Y-104287818D01*
X125078229Y-104337180D01*
X116995754Y-112419655D01*
X109177228Y-120238181D01*
X109137000Y-120265061D01*
X109089547Y-120274500D01*
X92403748Y-120274500D01*
X92353315Y-120263781D01*
X92315218Y-120236104D01*
X92315050Y-120236291D01*
X92313271Y-120234689D01*
X92311601Y-120233476D01*
X92305871Y-120227112D01*
X92300613Y-120223292D01*
X92300611Y-120223290D01*
X92157988Y-120119669D01*
X92157987Y-120119668D01*
X92152730Y-120115849D01*
X92146792Y-120113205D01*
X91985745Y-120041501D01*
X91985740Y-120041499D01*
X91979803Y-120038856D01*
X91973444Y-120037504D01*
X91973440Y-120037503D01*
X91801008Y-120000852D01*
X91801005Y-120000851D01*
X91794646Y-119999500D01*
X91605354Y-119999500D01*
X91598995Y-120000851D01*
X91598991Y-120000852D01*
X91426559Y-120037503D01*
X91426552Y-120037505D01*
X91420197Y-120038856D01*
X91414262Y-120041498D01*
X91414254Y-120041501D01*
X91253207Y-120113205D01*
X91253202Y-120113207D01*
X91247270Y-120115849D01*
X91242016Y-120119665D01*
X91242011Y-120119669D01*
X91099388Y-120223290D01*
X91099381Y-120223295D01*
X91094129Y-120227112D01*
X91089784Y-120231937D01*
X91089779Y-120231942D01*
X90971813Y-120362956D01*
X90971808Y-120362962D01*
X90967467Y-120367784D01*
X90964222Y-120373404D01*
X90964218Y-120373410D01*
X90876069Y-120526089D01*
X90876066Y-120526094D01*
X90872821Y-120531716D01*
X90870815Y-120537888D01*
X90870813Y-120537894D01*
X90816333Y-120705564D01*
X90816331Y-120705573D01*
X90814326Y-120711744D01*
X90813648Y-120718194D01*
X90813646Y-120718204D01*
X90795962Y-120886464D01*
X90794540Y-120900000D01*
X90795219Y-120906460D01*
X90813646Y-121081795D01*
X90813647Y-121081803D01*
X90814326Y-121088256D01*
X90816331Y-121094428D01*
X90816333Y-121094435D01*
X90870813Y-121262105D01*
X90872821Y-121268284D01*
X90876068Y-121273908D01*
X90876069Y-121273910D01*
X90947810Y-121398170D01*
X90967467Y-121432216D01*
X90971811Y-121437041D01*
X90971813Y-121437043D01*
X91053417Y-121527673D01*
X91094129Y-121572888D01*
X91247270Y-121684151D01*
X91403123Y-121753542D01*
X91412313Y-121757634D01*
X91420197Y-121761144D01*
X91605354Y-121800500D01*
X91788143Y-121800500D01*
X91794646Y-121800500D01*
X91979803Y-121761144D01*
X92152730Y-121684151D01*
X92305871Y-121572888D01*
X92311601Y-121566523D01*
X92313271Y-121565310D01*
X92315050Y-121563709D01*
X92315218Y-121563895D01*
X92353315Y-121536219D01*
X92403748Y-121525500D01*
X109322225Y-121525500D01*
X109333280Y-121526021D01*
X109340667Y-121527673D01*
X109407872Y-121525561D01*
X109411768Y-121525500D01*
X109435448Y-121525500D01*
X109439350Y-121525500D01*
X109443313Y-121524999D01*
X109454963Y-121524080D01*
X109498627Y-121522709D01*
X109517861Y-121517119D01*
X109536917Y-121513174D01*
X109556792Y-121510664D01*
X109597395Y-121494587D01*
X109608450Y-121490802D01*
X109650390Y-121478618D01*
X109667629Y-121468422D01*
X109685103Y-121459862D01*
X109696474Y-121455360D01*
X109696476Y-121455358D01*
X109703732Y-121452486D01*
X109739069Y-121426811D01*
X109748824Y-121420403D01*
X109786420Y-121398170D01*
X109800584Y-121384005D01*
X109815379Y-121371368D01*
X109831587Y-121359594D01*
X109859428Y-121325938D01*
X109867279Y-121317309D01*
X118184589Y-113000000D01*
X177019680Y-113000000D01*
X177019839Y-113003134D01*
X177019839Y-113003135D01*
X177038337Y-113367908D01*
X177038947Y-113379919D01*
X177039423Y-113383031D01*
X177039424Y-113383033D01*
X177062909Y-113536337D01*
X177096552Y-113755940D01*
X177097338Y-113758977D01*
X177097339Y-113758980D01*
X177187080Y-114105583D01*
X177191902Y-114124204D01*
X177324019Y-114480932D01*
X177491549Y-114822464D01*
X177493198Y-114825111D01*
X177493205Y-114825122D01*
X177623574Y-115034278D01*
X177692771Y-115145295D01*
X177694687Y-115147770D01*
X177694691Y-115147776D01*
X177855239Y-115355187D01*
X177925620Y-115446112D01*
X178187709Y-115721829D01*
X178476346Y-115969616D01*
X178788571Y-116186931D01*
X179121179Y-116371543D01*
X179124057Y-116372778D01*
X179124061Y-116372780D01*
X179467866Y-116520318D01*
X179470758Y-116521559D01*
X179833720Y-116635439D01*
X180206340Y-116712015D01*
X180584796Y-116750500D01*
X180962062Y-116750500D01*
X180965204Y-116750500D01*
X181343660Y-116712015D01*
X181716280Y-116635439D01*
X182079242Y-116521559D01*
X182428821Y-116371543D01*
X182761429Y-116186931D01*
X183073654Y-115969616D01*
X183362291Y-115721829D01*
X183624380Y-115446112D01*
X183857229Y-115145295D01*
X184058451Y-114822464D01*
X184225981Y-114480932D01*
X184358098Y-114124204D01*
X184453448Y-113755940D01*
X184511053Y-113379919D01*
X184530320Y-113000000D01*
X184511053Y-112620081D01*
X184453448Y-112244060D01*
X184358098Y-111875796D01*
X184225981Y-111519068D01*
X184058451Y-111177536D01*
X184055142Y-111172228D01*
X183991427Y-111070007D01*
X183857229Y-110854705D01*
X183624380Y-110553888D01*
X183362291Y-110278171D01*
X183073654Y-110030384D01*
X182761429Y-109813069D01*
X182758680Y-109811543D01*
X182431566Y-109629980D01*
X182431556Y-109629975D01*
X182428821Y-109628457D01*
X182425951Y-109627225D01*
X182425938Y-109627219D01*
X182082133Y-109479681D01*
X182082122Y-109479677D01*
X182079242Y-109478441D01*
X182076244Y-109477500D01*
X182076235Y-109477497D01*
X181719276Y-109365501D01*
X181719275Y-109365500D01*
X181716280Y-109364561D01*
X181713225Y-109363933D01*
X181713209Y-109363929D01*
X181346728Y-109288615D01*
X181346718Y-109288613D01*
X181343660Y-109287985D01*
X181340543Y-109287668D01*
X180968327Y-109249817D01*
X180968315Y-109249816D01*
X180965204Y-109249500D01*
X180584796Y-109249500D01*
X180581685Y-109249816D01*
X180581672Y-109249817D01*
X180209456Y-109287668D01*
X180209453Y-109287668D01*
X180206340Y-109287985D01*
X180203284Y-109288612D01*
X180203271Y-109288615D01*
X179836790Y-109363929D01*
X179836769Y-109363934D01*
X179833720Y-109364561D01*
X179830728Y-109365499D01*
X179830723Y-109365501D01*
X179473764Y-109477497D01*
X179473748Y-109477502D01*
X179470758Y-109478441D01*
X179467883Y-109479674D01*
X179467866Y-109479681D01*
X179124061Y-109627219D01*
X179124040Y-109627228D01*
X179121179Y-109628457D01*
X179118450Y-109629971D01*
X179118433Y-109629980D01*
X178791319Y-109811543D01*
X178791308Y-109811549D01*
X178788571Y-109813069D01*
X178786002Y-109814856D01*
X178785994Y-109814862D01*
X178478927Y-110028587D01*
X178478919Y-110028592D01*
X178476346Y-110030384D01*
X178473967Y-110032425D01*
X178473957Y-110032434D01*
X178190093Y-110276124D01*
X178187709Y-110278171D01*
X178185549Y-110280442D01*
X178185544Y-110280448D01*
X177927785Y-110551609D01*
X177927772Y-110551623D01*
X177925620Y-110553888D01*
X177923702Y-110556365D01*
X177923695Y-110556374D01*
X177694691Y-110852223D01*
X177694680Y-110852238D01*
X177692771Y-110854705D01*
X177691116Y-110857359D01*
X177691114Y-110857363D01*
X177493205Y-111174877D01*
X177493193Y-111174896D01*
X177491549Y-111177536D01*
X177490174Y-111180338D01*
X177490169Y-111180348D01*
X177334962Y-111496759D01*
X177324019Y-111519068D01*
X177322928Y-111522012D01*
X177322924Y-111522023D01*
X177209237Y-111828989D01*
X177191902Y-111875796D01*
X177191121Y-111878811D01*
X177191117Y-111878825D01*
X177099615Y-112232229D01*
X177096552Y-112244060D01*
X177096077Y-112247159D01*
X177096075Y-112247170D01*
X177060023Y-112482505D01*
X177038947Y-112620081D01*
X177038788Y-112623216D01*
X177038787Y-112623226D01*
X177021418Y-112965721D01*
X177019680Y-113000000D01*
X118184589Y-113000000D01*
X122042309Y-109142280D01*
X122096329Y-109110619D01*
X122158935Y-109109389D01*
X122214159Y-109138907D01*
X122247919Y-109191644D01*
X122266820Y-109249817D01*
X122272821Y-109268284D01*
X122276068Y-109273908D01*
X122276069Y-109273910D01*
X122347810Y-109398170D01*
X122367467Y-109432216D01*
X122371811Y-109437041D01*
X122371813Y-109437043D01*
X122453417Y-109527673D01*
X122494129Y-109572888D01*
X122647270Y-109684151D01*
X122820197Y-109761144D01*
X123005354Y-109800500D01*
X123188143Y-109800500D01*
X123194646Y-109800500D01*
X123379803Y-109761144D01*
X123552730Y-109684151D01*
X123705871Y-109572888D01*
X123711601Y-109566523D01*
X123713271Y-109565310D01*
X123715050Y-109563709D01*
X123715218Y-109563895D01*
X123753315Y-109536219D01*
X123803748Y-109525500D01*
X126822225Y-109525500D01*
X126833280Y-109526021D01*
X126840667Y-109527673D01*
X126907872Y-109525561D01*
X126911768Y-109525500D01*
X126935448Y-109525500D01*
X126939350Y-109525500D01*
X126943313Y-109524999D01*
X126954963Y-109524080D01*
X126998627Y-109522709D01*
X127017861Y-109517119D01*
X127036917Y-109513174D01*
X127056792Y-109510664D01*
X127097395Y-109494587D01*
X127108450Y-109490802D01*
X127150390Y-109478618D01*
X127167629Y-109468422D01*
X127185103Y-109459862D01*
X127196474Y-109455360D01*
X127196476Y-109455358D01*
X127203732Y-109452486D01*
X127239069Y-109426811D01*
X127248824Y-109420403D01*
X127286420Y-109398170D01*
X127300584Y-109384005D01*
X127315379Y-109371368D01*
X127331587Y-109359594D01*
X127359428Y-109325938D01*
X127367279Y-109317309D01*
X128547771Y-108136819D01*
X128588000Y-108109939D01*
X128635453Y-108100500D01*
X128688143Y-108100500D01*
X128694646Y-108100500D01*
X128879803Y-108061144D01*
X129052730Y-107984151D01*
X129205871Y-107872888D01*
X129332533Y-107732216D01*
X129427179Y-107568284D01*
X129485674Y-107388256D01*
X129505460Y-107200000D01*
X129485674Y-107011744D01*
X129427179Y-106831716D01*
X129332533Y-106667784D01*
X129321662Y-106655711D01*
X129210220Y-106531942D01*
X129210219Y-106531941D01*
X129205871Y-106527112D01*
X129200613Y-106523292D01*
X129200611Y-106523290D01*
X129057988Y-106419669D01*
X129057987Y-106419668D01*
X129052730Y-106415849D01*
X129046792Y-106413205D01*
X128885745Y-106341501D01*
X128885740Y-106341499D01*
X128879803Y-106338856D01*
X128873444Y-106337504D01*
X128873440Y-106337503D01*
X128701008Y-106300852D01*
X128701005Y-106300851D01*
X128694646Y-106299500D01*
X128505354Y-106299500D01*
X128498995Y-106300851D01*
X128498991Y-106300852D01*
X128326559Y-106337503D01*
X128326552Y-106337505D01*
X128320197Y-106338856D01*
X128314262Y-106341498D01*
X128314254Y-106341501D01*
X128153207Y-106413205D01*
X128153202Y-106413207D01*
X128147270Y-106415849D01*
X128142016Y-106419665D01*
X128142011Y-106419669D01*
X127999388Y-106523290D01*
X127999381Y-106523295D01*
X127994129Y-106527112D01*
X127989784Y-106531937D01*
X127989779Y-106531942D01*
X127871813Y-106662956D01*
X127871808Y-106662962D01*
X127867467Y-106667784D01*
X127864222Y-106673404D01*
X127864218Y-106673410D01*
X127776069Y-106826089D01*
X127776066Y-106826094D01*
X127772821Y-106831716D01*
X127770815Y-106837888D01*
X127770813Y-106837894D01*
X127716333Y-107005564D01*
X127716331Y-107005573D01*
X127714326Y-107011744D01*
X127713647Y-107018203D01*
X127713647Y-107018204D01*
X127696678Y-107179650D01*
X127685278Y-107220071D01*
X127661038Y-107254369D01*
X126677228Y-108238181D01*
X126637000Y-108265061D01*
X126589547Y-108274500D01*
X123803748Y-108274500D01*
X123753315Y-108263781D01*
X123715218Y-108236104D01*
X123715050Y-108236291D01*
X123713271Y-108234689D01*
X123711601Y-108233476D01*
X123705871Y-108227112D01*
X123700613Y-108223292D01*
X123700611Y-108223290D01*
X123557988Y-108119669D01*
X123557987Y-108119668D01*
X123552730Y-108115849D01*
X123546792Y-108113205D01*
X123382665Y-108040130D01*
X123335721Y-108003618D01*
X123311177Y-107949448D01*
X123314679Y-107890080D01*
X123345418Y-107839172D01*
X126087587Y-105097002D01*
X126140048Y-105065791D01*
X126201044Y-105063395D01*
X126379854Y-105101402D01*
X126562643Y-105101402D01*
X126569146Y-105101402D01*
X126754303Y-105062046D01*
X126927230Y-104985053D01*
X127080371Y-104873790D01*
X127207033Y-104733118D01*
X127301679Y-104569186D01*
X127360174Y-104389158D01*
X127379960Y-104200902D01*
X127379281Y-104194441D01*
X127367985Y-104086961D01*
X127379856Y-104019642D01*
X127425596Y-103968842D01*
X127491306Y-103950000D01*
X128096252Y-103950000D01*
X128146685Y-103960719D01*
X128184781Y-103988395D01*
X128184950Y-103988209D01*
X128186728Y-103989810D01*
X128188398Y-103991023D01*
X128194129Y-103997388D01*
X128347270Y-104108651D01*
X128520197Y-104185644D01*
X128705354Y-104225000D01*
X128888143Y-104225000D01*
X128894646Y-104225000D01*
X129079803Y-104185644D01*
X129252730Y-104108651D01*
X129405871Y-103997388D01*
X129532533Y-103856716D01*
X129627179Y-103692784D01*
X129645028Y-103637849D01*
X129675278Y-103588486D01*
X129724642Y-103558236D01*
X129782359Y-103553694D01*
X129835844Y-103575850D01*
X129847270Y-103584151D01*
X130020197Y-103661144D01*
X130205354Y-103700500D01*
X130205028Y-103702029D01*
X130248385Y-103716949D01*
X130287844Y-103756399D01*
X130306012Y-103809155D01*
X130310420Y-103851089D01*
X130314326Y-103888256D01*
X130316331Y-103894428D01*
X130316333Y-103894435D01*
X130354743Y-104012646D01*
X130372821Y-104068284D01*
X130376068Y-104073908D01*
X130376069Y-104073910D01*
X130462519Y-104223647D01*
X130467467Y-104232216D01*
X130594129Y-104372888D01*
X130599387Y-104376708D01*
X130599388Y-104376709D01*
X130670699Y-104428519D01*
X130747270Y-104484151D01*
X130920197Y-104561144D01*
X131105354Y-104600500D01*
X131288143Y-104600500D01*
X131294646Y-104600500D01*
X131479803Y-104561144D01*
X131652730Y-104484151D01*
X131805871Y-104372888D01*
X131932533Y-104232216D01*
X132027179Y-104068284D01*
X132085674Y-103888256D01*
X132105460Y-103700000D01*
X132107681Y-103700233D01*
X132119808Y-103652486D01*
X132161246Y-103607659D01*
X132219052Y-103588036D01*
X132279217Y-103598375D01*
X132420197Y-103661144D01*
X132605354Y-103700500D01*
X132788143Y-103700500D01*
X132794646Y-103700500D01*
X132805062Y-103698285D01*
X132824720Y-103694108D01*
X132879448Y-103694824D01*
X132928536Y-103719032D01*
X132962421Y-103762015D01*
X132974500Y-103815398D01*
X132974500Y-104501313D01*
X132966264Y-104545751D01*
X132942650Y-104584285D01*
X132871813Y-104662956D01*
X132871808Y-104662962D01*
X132867467Y-104667784D01*
X132864222Y-104673404D01*
X132864218Y-104673410D01*
X132776069Y-104826089D01*
X132776066Y-104826094D01*
X132772821Y-104831716D01*
X132770815Y-104837888D01*
X132770813Y-104837894D01*
X132716333Y-105005564D01*
X132716331Y-105005573D01*
X132714326Y-105011744D01*
X132713648Y-105018194D01*
X132713646Y-105018204D01*
X132702851Y-105120920D01*
X132694540Y-105200000D01*
X132695219Y-105206460D01*
X132713646Y-105381795D01*
X132713647Y-105381803D01*
X132714326Y-105388256D01*
X132716331Y-105394428D01*
X132716333Y-105394435D01*
X132770720Y-105561819D01*
X132772821Y-105568284D01*
X132776068Y-105573908D01*
X132776069Y-105573910D01*
X132855647Y-105711744D01*
X132867467Y-105732216D01*
X132994129Y-105872888D01*
X133147270Y-105984151D01*
X133320197Y-106061144D01*
X133505354Y-106100500D01*
X133688143Y-106100500D01*
X133694646Y-106100500D01*
X133879803Y-106061144D01*
X134052730Y-105984151D01*
X134205871Y-105872888D01*
X134332533Y-105732216D01*
X134427179Y-105568284D01*
X134485674Y-105388256D01*
X134505460Y-105200000D01*
X134490961Y-105062046D01*
X134486353Y-105018204D01*
X134486352Y-105018203D01*
X134485674Y-105011744D01*
X134432793Y-104848994D01*
X134429710Y-104783626D01*
X134460332Y-104725792D01*
X134516129Y-104691600D01*
X134581562Y-104690572D01*
X134638404Y-104722994D01*
X135423199Y-105507790D01*
X136202707Y-106287298D01*
X136210159Y-106295487D01*
X136214214Y-106301877D01*
X136253592Y-106338856D01*
X136263223Y-106347900D01*
X136266019Y-106350610D01*
X136285529Y-106370120D01*
X136288709Y-106372587D01*
X136297571Y-106380155D01*
X136311020Y-106392785D01*
X136323732Y-106404723D01*
X136323734Y-106404724D01*
X136329418Y-106410062D01*
X136336251Y-106413818D01*
X136336252Y-106413819D01*
X136346973Y-106419713D01*
X136363234Y-106430394D01*
X136379064Y-106442673D01*
X136419154Y-106460021D01*
X136429631Y-106465154D01*
X136467908Y-106486197D01*
X136484957Y-106490574D01*
X136487305Y-106491177D01*
X136505719Y-106497481D01*
X136524104Y-106505438D01*
X136567265Y-106512273D01*
X136578664Y-106514634D01*
X136620981Y-106525500D01*
X136641017Y-106525500D01*
X136660402Y-106527025D01*
X136680196Y-106530160D01*
X136718276Y-106526560D01*
X136723676Y-106526050D01*
X136735345Y-106525500D01*
X141996252Y-106525500D01*
X142046685Y-106536219D01*
X142084781Y-106563895D01*
X142084950Y-106563709D01*
X142086728Y-106565310D01*
X142088398Y-106566523D01*
X142094129Y-106572888D01*
X142247270Y-106684151D01*
X142420197Y-106761144D01*
X142605354Y-106800500D01*
X142788143Y-106800500D01*
X142794646Y-106800500D01*
X142979803Y-106761144D01*
X143152730Y-106684151D01*
X143305871Y-106572888D01*
X143432533Y-106432216D01*
X143527179Y-106268284D01*
X143585674Y-106088256D01*
X143605460Y-105900000D01*
X143585674Y-105711744D01*
X143527179Y-105531716D01*
X143432533Y-105367784D01*
X143428185Y-105362955D01*
X143424365Y-105357697D01*
X143426028Y-105356488D01*
X143402023Y-105309864D01*
X143404508Y-105246775D01*
X143437737Y-105193087D01*
X143493094Y-105162721D01*
X143556227Y-105163550D01*
X143610766Y-105195357D01*
X145289085Y-106873676D01*
X146961038Y-108545629D01*
X146985278Y-108579927D01*
X146996678Y-108620348D01*
X147006438Y-108713205D01*
X147014326Y-108788256D01*
X147016331Y-108794428D01*
X147016333Y-108794435D01*
X147062670Y-108937043D01*
X147072821Y-108968284D01*
X147076068Y-108973908D01*
X147076069Y-108973910D01*
X147163929Y-109126089D01*
X147167467Y-109132216D01*
X147171811Y-109137041D01*
X147171813Y-109137043D01*
X147284772Y-109262496D01*
X147294129Y-109272888D01*
X147299387Y-109276708D01*
X147299388Y-109276709D01*
X147332134Y-109300500D01*
X147447270Y-109384151D01*
X147620197Y-109461144D01*
X147805354Y-109500500D01*
X147988143Y-109500500D01*
X147994646Y-109500500D01*
X148179803Y-109461144D01*
X148352730Y-109384151D01*
X148505871Y-109272888D01*
X148632533Y-109132216D01*
X148727179Y-108968284D01*
X148785674Y-108788256D01*
X148805460Y-108600000D01*
X148793914Y-108490147D01*
X148802427Y-108430335D01*
X148838194Y-108381643D01*
X148892725Y-108355633D01*
X148953075Y-108358479D01*
X149004916Y-108389506D01*
X150061038Y-109445628D01*
X150085278Y-109479926D01*
X150096678Y-109520347D01*
X150107911Y-109627219D01*
X150114326Y-109688256D01*
X150116331Y-109694428D01*
X150116333Y-109694435D01*
X150154880Y-109813069D01*
X150172821Y-109868284D01*
X150176068Y-109873908D01*
X150176069Y-109873910D01*
X150214173Y-109939909D01*
X150267467Y-110032216D01*
X150394129Y-110172888D01*
X150547270Y-110284151D01*
X150720197Y-110361144D01*
X150905354Y-110400500D01*
X151088143Y-110400500D01*
X151094646Y-110400500D01*
X151279803Y-110361144D01*
X151452730Y-110284151D01*
X151605871Y-110172888D01*
X151732533Y-110032216D01*
X151827179Y-109868284D01*
X151885674Y-109688256D01*
X151905460Y-109500000D01*
X151893270Y-109384013D01*
X151886353Y-109318204D01*
X151886352Y-109318203D01*
X151885674Y-109311744D01*
X151827179Y-109131716D01*
X151732533Y-108967784D01*
X151605871Y-108827112D01*
X151600613Y-108823292D01*
X151600611Y-108823290D01*
X151457988Y-108719669D01*
X151457987Y-108719668D01*
X151452730Y-108715849D01*
X151446792Y-108713205D01*
X151285745Y-108641501D01*
X151285740Y-108641499D01*
X151279803Y-108638856D01*
X151273444Y-108637504D01*
X151273440Y-108637503D01*
X151101008Y-108600852D01*
X151101005Y-108600851D01*
X151094646Y-108599500D01*
X151088143Y-108599500D01*
X151035452Y-108599500D01*
X150987999Y-108590061D01*
X150947771Y-108563181D01*
X142461819Y-100077228D01*
X142434939Y-100037000D01*
X142425500Y-99989547D01*
X142425500Y-96598687D01*
X142433736Y-96554249D01*
X142457350Y-96515715D01*
X142532533Y-96432216D01*
X142627179Y-96268284D01*
X142685674Y-96088256D01*
X142705460Y-95900000D01*
X142687108Y-95725391D01*
X142686353Y-95718204D01*
X142686352Y-95718203D01*
X142685674Y-95711744D01*
X142627179Y-95531716D01*
X142532533Y-95367784D01*
X142405871Y-95227112D01*
X142400613Y-95223292D01*
X142400611Y-95223290D01*
X142257988Y-95119669D01*
X142257987Y-95119668D01*
X142252730Y-95115849D01*
X142246792Y-95113205D01*
X142085745Y-95041501D01*
X142085740Y-95041499D01*
X142079803Y-95038856D01*
X142073444Y-95037504D01*
X142073440Y-95037503D01*
X141901008Y-95000852D01*
X141901005Y-95000851D01*
X141894646Y-94999500D01*
X141705354Y-94999500D01*
X141698995Y-95000851D01*
X141698991Y-95000852D01*
X141526559Y-95037503D01*
X141526552Y-95037505D01*
X141520197Y-95038856D01*
X141514262Y-95041498D01*
X141514254Y-95041501D01*
X141353207Y-95113205D01*
X141353202Y-95113207D01*
X141347270Y-95115849D01*
X141342016Y-95119665D01*
X141342011Y-95119669D01*
X141199388Y-95223290D01*
X141199381Y-95223295D01*
X141194129Y-95227112D01*
X141189784Y-95231937D01*
X141189779Y-95231942D01*
X141071813Y-95362956D01*
X141071808Y-95362962D01*
X141067467Y-95367784D01*
X141064222Y-95373404D01*
X141064218Y-95373410D01*
X140976069Y-95526089D01*
X140976066Y-95526094D01*
X140972821Y-95531716D01*
X140970815Y-95537888D01*
X140970813Y-95537894D01*
X140916333Y-95705564D01*
X140916331Y-95705573D01*
X140914326Y-95711744D01*
X140913648Y-95718194D01*
X140913646Y-95718204D01*
X140900966Y-95838856D01*
X140894540Y-95900000D01*
X140895219Y-95906460D01*
X140895219Y-95906462D01*
X140900583Y-95957503D01*
X140889460Y-96023261D01*
X140845882Y-96073746D01*
X140782454Y-96094354D01*
X140717524Y-96079125D01*
X140669875Y-96032462D01*
X140635783Y-95973413D01*
X140635781Y-95973410D01*
X140632533Y-95967784D01*
X140577316Y-95906460D01*
X140510220Y-95831942D01*
X140510219Y-95831941D01*
X140505871Y-95827112D01*
X140500613Y-95823292D01*
X140500611Y-95823290D01*
X140357988Y-95719669D01*
X140357987Y-95719668D01*
X140352730Y-95715849D01*
X140346792Y-95713205D01*
X140185745Y-95641501D01*
X140185740Y-95641499D01*
X140179803Y-95638856D01*
X140173444Y-95637504D01*
X140173440Y-95637503D01*
X140001008Y-95600852D01*
X140001005Y-95600851D01*
X139994646Y-95599500D01*
X139805354Y-95599500D01*
X139798995Y-95600851D01*
X139798991Y-95600852D01*
X139626559Y-95637503D01*
X139626552Y-95637505D01*
X139620197Y-95638856D01*
X139614262Y-95641498D01*
X139614254Y-95641501D01*
X139453207Y-95713205D01*
X139453202Y-95713207D01*
X139447270Y-95715849D01*
X139442016Y-95719665D01*
X139442011Y-95719669D01*
X139299388Y-95823290D01*
X139299381Y-95823295D01*
X139294129Y-95827112D01*
X139289784Y-95831937D01*
X139289779Y-95831942D01*
X139171813Y-95962956D01*
X139171808Y-95962962D01*
X139167467Y-95967784D01*
X139164222Y-95973404D01*
X139164218Y-95973410D01*
X139076069Y-96126089D01*
X139076066Y-96126094D01*
X139072821Y-96131716D01*
X139070815Y-96137888D01*
X139070813Y-96137894D01*
X139016333Y-96305564D01*
X139016331Y-96305573D01*
X139014326Y-96311744D01*
X139013648Y-96318194D01*
X139013646Y-96318204D01*
X138995962Y-96486464D01*
X138994540Y-96500000D01*
X138995219Y-96506460D01*
X139013646Y-96681795D01*
X139013647Y-96681803D01*
X139014326Y-96688256D01*
X139016331Y-96694428D01*
X139016333Y-96694435D01*
X139070813Y-96862105D01*
X139072821Y-96868284D01*
X139076068Y-96873908D01*
X139076069Y-96873910D01*
X139128934Y-96965476D01*
X139167467Y-97032216D01*
X139171818Y-97037049D01*
X139172150Y-97037505D01*
X139194502Y-97092276D01*
X139188935Y-97151170D01*
X139156716Y-97200783D01*
X139105179Y-97229823D01*
X139046052Y-97231681D01*
X138901011Y-97200852D01*
X138901002Y-97200851D01*
X138894646Y-97199500D01*
X138705354Y-97199500D01*
X138698995Y-97200851D01*
X138698991Y-97200852D01*
X138526559Y-97237503D01*
X138526552Y-97237505D01*
X138520197Y-97238856D01*
X138514262Y-97241498D01*
X138514254Y-97241501D01*
X138353207Y-97313205D01*
X138353202Y-97313207D01*
X138347270Y-97315849D01*
X138342016Y-97319665D01*
X138342011Y-97319669D01*
X138199388Y-97423290D01*
X138199381Y-97423295D01*
X138194129Y-97427112D01*
X138189784Y-97431937D01*
X138189779Y-97431942D01*
X138071813Y-97562956D01*
X138071808Y-97562962D01*
X138067467Y-97567784D01*
X138064222Y-97573404D01*
X138064218Y-97573410D01*
X137982385Y-97715151D01*
X137936998Y-97760538D01*
X137874998Y-97777151D01*
X117924499Y-97777151D01*
X117862499Y-97760538D01*
X117817112Y-97715151D01*
X117800499Y-97653151D01*
X117800499Y-97558090D01*
X117800499Y-97554779D01*
X117794091Y-97495168D01*
X117743796Y-97360320D01*
X117657546Y-97245105D01*
X117649198Y-97238856D01*
X117549431Y-97164170D01*
X117549430Y-97164169D01*
X117542331Y-97158855D01*
X117407483Y-97108560D01*
X117399770Y-97107730D01*
X117399767Y-97107730D01*
X117351180Y-97102506D01*
X117351169Y-97102505D01*
X117347873Y-97102151D01*
X117344550Y-97102151D01*
X115655439Y-97102151D01*
X115655420Y-97102151D01*
X115652128Y-97102152D01*
X115648850Y-97102504D01*
X115648838Y-97102505D01*
X115600231Y-97107730D01*
X115600225Y-97107731D01*
X115592517Y-97108560D01*
X115585252Y-97111269D01*
X115585246Y-97111271D01*
X115465980Y-97155755D01*
X115465978Y-97155755D01*
X115457669Y-97158855D01*
X115450572Y-97164167D01*
X115450568Y-97164170D01*
X115349550Y-97239792D01*
X115349546Y-97239795D01*
X115342454Y-97245105D01*
X115337144Y-97252197D01*
X115337141Y-97252201D01*
X115261519Y-97353219D01*
X115261516Y-97353223D01*
X115256204Y-97360320D01*
X115253104Y-97368629D01*
X115253104Y-97368631D01*
X115208620Y-97487898D01*
X115208619Y-97487901D01*
X115205909Y-97495168D01*
X115205079Y-97502878D01*
X115205079Y-97502883D01*
X115199855Y-97551470D01*
X115199854Y-97551482D01*
X115199500Y-97554778D01*
X115199500Y-97558100D01*
X115199500Y-98767197D01*
X115190061Y-98814650D01*
X115163181Y-98854878D01*
X114084879Y-99933181D01*
X114044651Y-99960061D01*
X113997198Y-99969500D01*
X98814851Y-99969500D01*
X98749141Y-99950658D01*
X98703401Y-99899858D01*
X98691530Y-99832539D01*
X98704781Y-99706460D01*
X98705460Y-99700000D01*
X98700146Y-99649443D01*
X98706579Y-99595091D01*
X98735784Y-99548804D01*
X100922771Y-97361819D01*
X100963000Y-97334939D01*
X101010453Y-97325500D01*
X105296252Y-97325500D01*
X105346685Y-97336219D01*
X105384781Y-97363895D01*
X105384950Y-97363709D01*
X105386728Y-97365310D01*
X105388398Y-97366523D01*
X105394129Y-97372888D01*
X105547270Y-97484151D01*
X105720197Y-97561144D01*
X105905354Y-97600500D01*
X106088143Y-97600500D01*
X106094646Y-97600500D01*
X106279803Y-97561144D01*
X106452730Y-97484151D01*
X106605871Y-97372888D01*
X106732533Y-97232216D01*
X106827179Y-97068284D01*
X106885674Y-96888256D01*
X106905460Y-96700000D01*
X106885674Y-96511744D01*
X106827179Y-96331716D01*
X106732533Y-96167784D01*
X106660925Y-96088256D01*
X106610220Y-96031942D01*
X106610219Y-96031941D01*
X106605871Y-96027112D01*
X106600613Y-96023292D01*
X106600611Y-96023290D01*
X106542891Y-95981354D01*
X115778217Y-95981354D01*
X115785650Y-95989465D01*
X115843077Y-96029676D01*
X115852427Y-96035074D01*
X116048768Y-96126630D01*
X116058902Y-96130318D01*
X116268162Y-96186390D01*
X116278793Y-96188264D01*
X116494605Y-96207145D01*
X116505395Y-96207145D01*
X116721206Y-96188264D01*
X116731837Y-96186390D01*
X116941097Y-96130318D01*
X116951231Y-96126630D01*
X117147575Y-96035073D01*
X117156920Y-96029677D01*
X117214348Y-95989465D01*
X117221780Y-95981354D01*
X117215867Y-95972072D01*
X116511542Y-95267746D01*
X116500000Y-95261082D01*
X116488457Y-95267746D01*
X115784128Y-95972075D01*
X115778217Y-95981354D01*
X106542891Y-95981354D01*
X106457988Y-95919669D01*
X106457987Y-95919668D01*
X106452730Y-95915849D01*
X106431647Y-95906462D01*
X106285745Y-95841501D01*
X106285740Y-95841499D01*
X106279803Y-95838856D01*
X106273444Y-95837504D01*
X106273440Y-95837503D01*
X106101008Y-95800852D01*
X106101005Y-95800851D01*
X106094646Y-95799500D01*
X105905354Y-95799500D01*
X105898995Y-95800851D01*
X105898991Y-95800852D01*
X105726559Y-95837503D01*
X105726552Y-95837505D01*
X105720197Y-95838856D01*
X105714262Y-95841498D01*
X105714254Y-95841501D01*
X105553207Y-95913205D01*
X105553202Y-95913207D01*
X105547270Y-95915849D01*
X105542016Y-95919665D01*
X105542011Y-95919669D01*
X105399388Y-96023290D01*
X105399381Y-96023295D01*
X105394129Y-96027112D01*
X105389780Y-96031941D01*
X105389781Y-96031941D01*
X105388399Y-96033476D01*
X105386728Y-96034689D01*
X105384950Y-96036291D01*
X105384781Y-96036104D01*
X105346685Y-96063781D01*
X105296252Y-96074500D01*
X100777771Y-96074500D01*
X100766718Y-96073979D01*
X100759332Y-96072328D01*
X100751534Y-96072573D01*
X100692144Y-96074439D01*
X100688250Y-96074500D01*
X100660650Y-96074500D01*
X100656799Y-96074986D01*
X100656768Y-96074988D01*
X100656640Y-96075005D01*
X100645026Y-96075918D01*
X100610790Y-96076994D01*
X100553395Y-96064920D01*
X100507969Y-96027818D01*
X100484675Y-95973990D01*
X100488726Y-95915478D01*
X100519211Y-95865378D01*
X100922770Y-95461819D01*
X100962999Y-95434939D01*
X101010452Y-95425500D01*
X108996252Y-95425500D01*
X109046685Y-95436219D01*
X109084781Y-95463895D01*
X109084950Y-95463709D01*
X109086728Y-95465310D01*
X109088398Y-95466523D01*
X109094129Y-95472888D01*
X109247270Y-95584151D01*
X109420197Y-95661144D01*
X109605354Y-95700500D01*
X109788143Y-95700500D01*
X109794646Y-95700500D01*
X109979803Y-95661144D01*
X110152730Y-95584151D01*
X110305871Y-95472888D01*
X110432533Y-95332216D01*
X110527179Y-95168284D01*
X110585674Y-94988256D01*
X110594104Y-94908046D01*
X115195506Y-94908046D01*
X115214386Y-95123857D01*
X115216260Y-95134488D01*
X115272332Y-95343748D01*
X115276020Y-95353882D01*
X115367576Y-95550223D01*
X115372974Y-95559573D01*
X115413184Y-95616999D01*
X115421295Y-95624432D01*
X115430574Y-95618521D01*
X116134903Y-94914192D01*
X116141567Y-94902650D01*
X116858431Y-94902650D01*
X116865095Y-94914192D01*
X117569421Y-95618518D01*
X117578703Y-95624431D01*
X117586814Y-95616999D01*
X117627026Y-95559571D01*
X117632422Y-95550226D01*
X117723979Y-95353882D01*
X117727667Y-95343748D01*
X117783739Y-95134488D01*
X117785613Y-95123857D01*
X117804494Y-94908046D01*
X117804494Y-94897256D01*
X117785613Y-94681444D01*
X117783739Y-94670813D01*
X117727667Y-94461553D01*
X117723979Y-94451419D01*
X117632423Y-94255078D01*
X117627025Y-94245728D01*
X117586814Y-94188301D01*
X117578703Y-94180868D01*
X117569424Y-94186779D01*
X116865095Y-94891107D01*
X116858431Y-94902650D01*
X116141567Y-94902650D01*
X116134903Y-94891107D01*
X115430574Y-94186779D01*
X115421296Y-94180868D01*
X115413183Y-94188302D01*
X115372971Y-94245732D01*
X115367577Y-94255076D01*
X115276020Y-94451419D01*
X115272332Y-94461553D01*
X115216260Y-94670813D01*
X115214386Y-94681444D01*
X115195506Y-94897256D01*
X115195506Y-94908046D01*
X110594104Y-94908046D01*
X110605460Y-94800000D01*
X110585674Y-94611744D01*
X110527179Y-94431716D01*
X110432533Y-94267784D01*
X110421092Y-94255078D01*
X110310220Y-94131942D01*
X110310219Y-94131941D01*
X110305871Y-94127112D01*
X110300613Y-94123292D01*
X110300611Y-94123290D01*
X110157988Y-94019669D01*
X110157987Y-94019668D01*
X110152730Y-94015849D01*
X110121349Y-94001877D01*
X109985745Y-93941501D01*
X109985740Y-93941499D01*
X109979803Y-93938856D01*
X109973444Y-93937504D01*
X109973440Y-93937503D01*
X109801008Y-93900852D01*
X109801005Y-93900851D01*
X109794646Y-93899500D01*
X109605354Y-93899500D01*
X109598995Y-93900851D01*
X109598991Y-93900852D01*
X109426559Y-93937503D01*
X109426552Y-93937505D01*
X109420197Y-93938856D01*
X109414262Y-93941498D01*
X109414254Y-93941501D01*
X109253207Y-94013205D01*
X109253202Y-94013207D01*
X109247270Y-94015849D01*
X109242016Y-94019665D01*
X109242011Y-94019669D01*
X109099388Y-94123290D01*
X109099381Y-94123295D01*
X109094129Y-94127112D01*
X109089780Y-94131941D01*
X109089781Y-94131941D01*
X109088399Y-94133476D01*
X109086728Y-94134689D01*
X109084950Y-94136291D01*
X109084781Y-94136104D01*
X109046685Y-94163781D01*
X108996252Y-94174500D01*
X100777775Y-94174500D01*
X100766719Y-94173978D01*
X100759333Y-94172327D01*
X100751545Y-94172571D01*
X100751538Y-94172571D01*
X100692113Y-94174439D01*
X100688219Y-94174500D01*
X100660650Y-94174500D01*
X100656794Y-94174986D01*
X100656791Y-94174987D01*
X100656735Y-94174994D01*
X100656662Y-94175003D01*
X100645044Y-94175917D01*
X100609165Y-94177045D01*
X100609164Y-94177045D01*
X100601373Y-94177290D01*
X100593888Y-94179464D01*
X100593884Y-94179465D01*
X100582125Y-94182881D01*
X100563087Y-94186823D01*
X100550949Y-94188357D01*
X100550941Y-94188358D01*
X100543208Y-94189336D01*
X100535960Y-94192205D01*
X100535954Y-94192207D01*
X100502597Y-94205413D01*
X100491554Y-94209194D01*
X100457100Y-94219205D01*
X100457094Y-94219207D01*
X100449610Y-94221382D01*
X100442898Y-94225351D01*
X100442896Y-94225352D01*
X100432364Y-94231580D01*
X100414904Y-94240134D01*
X100403519Y-94244642D01*
X100403513Y-94244644D01*
X100396268Y-94247514D01*
X100389963Y-94252094D01*
X100389955Y-94252099D01*
X100360932Y-94273185D01*
X100351174Y-94279595D01*
X100320296Y-94297857D01*
X100320290Y-94297861D01*
X100313580Y-94301830D01*
X100308067Y-94307341D01*
X100308060Y-94307348D01*
X100299410Y-94315998D01*
X100284627Y-94328624D01*
X100274726Y-94335817D01*
X100274716Y-94335826D01*
X100268413Y-94340406D01*
X100263444Y-94346411D01*
X100263441Y-94346415D01*
X100240572Y-94374059D01*
X100232711Y-94382697D01*
X96052228Y-98563181D01*
X96012000Y-98590061D01*
X95964547Y-98599500D01*
X95905354Y-98599500D01*
X95898995Y-98600851D01*
X95898991Y-98600852D01*
X95726559Y-98637503D01*
X95726552Y-98637505D01*
X95720197Y-98638856D01*
X95714262Y-98641498D01*
X95714254Y-98641501D01*
X95553207Y-98713205D01*
X95553202Y-98713207D01*
X95547270Y-98715849D01*
X95542016Y-98719665D01*
X95542011Y-98719669D01*
X95399388Y-98823290D01*
X95399381Y-98823295D01*
X95394129Y-98827112D01*
X95389784Y-98831937D01*
X95389779Y-98831942D01*
X95271813Y-98962956D01*
X95271808Y-98962962D01*
X95267467Y-98967784D01*
X95264222Y-98973404D01*
X95264218Y-98973410D01*
X95176069Y-99126089D01*
X95176066Y-99126094D01*
X95172821Y-99131716D01*
X95170815Y-99137888D01*
X95170813Y-99137894D01*
X95116333Y-99305564D01*
X95116331Y-99305573D01*
X95114326Y-99311744D01*
X95113648Y-99318194D01*
X95113646Y-99318204D01*
X95099576Y-99452082D01*
X95094540Y-99500000D01*
X95095219Y-99506460D01*
X95113646Y-99681795D01*
X95113647Y-99681803D01*
X95114326Y-99688256D01*
X95152968Y-99807183D01*
X95157510Y-99864897D01*
X95135355Y-99918385D01*
X95091332Y-99955985D01*
X95035037Y-99969500D01*
X86920968Y-99969500D01*
X86866124Y-99956712D01*
X86822592Y-99920986D01*
X86799351Y-99869691D01*
X86801193Y-99813406D01*
X86831088Y-99701837D01*
X86832962Y-99691206D01*
X86851843Y-99475395D01*
X86851843Y-99464605D01*
X86832962Y-99248793D01*
X86831088Y-99238162D01*
X86775016Y-99028902D01*
X86771328Y-99018768D01*
X86679772Y-98822427D01*
X86674374Y-98813077D01*
X86634163Y-98755650D01*
X86626052Y-98748217D01*
X86616773Y-98754128D01*
X85635029Y-99735872D01*
X85579442Y-99767966D01*
X85515254Y-99767966D01*
X85459667Y-99735872D01*
X84477923Y-98754128D01*
X84468645Y-98748217D01*
X84460532Y-98755651D01*
X84420320Y-98813081D01*
X84414926Y-98822425D01*
X84323369Y-99018768D01*
X84319681Y-99028902D01*
X84263609Y-99238162D01*
X84261735Y-99248793D01*
X84242855Y-99464605D01*
X84242855Y-99475395D01*
X84261735Y-99691206D01*
X84263609Y-99701837D01*
X84293505Y-99813406D01*
X84295347Y-99869691D01*
X84272106Y-99920986D01*
X84228574Y-99956712D01*
X84173730Y-99969500D01*
X83482802Y-99969500D01*
X83435349Y-99960061D01*
X83395121Y-99933181D01*
X83384167Y-99922227D01*
X83357287Y-99881999D01*
X83347848Y-99834546D01*
X83347848Y-98625439D01*
X83347848Y-98622128D01*
X83341440Y-98562517D01*
X83291145Y-98427669D01*
X83263916Y-98391296D01*
X84825566Y-98391296D01*
X84831477Y-98400574D01*
X85535805Y-99104903D01*
X85547348Y-99111567D01*
X85558890Y-99104903D01*
X86263219Y-98400574D01*
X86269130Y-98391295D01*
X86261697Y-98383184D01*
X86204271Y-98342974D01*
X86194921Y-98337576D01*
X85998580Y-98246020D01*
X85988446Y-98242332D01*
X85779186Y-98186260D01*
X85768555Y-98184386D01*
X85552744Y-98165506D01*
X85541954Y-98165506D01*
X85326142Y-98184386D01*
X85315511Y-98186260D01*
X85106251Y-98242332D01*
X85096117Y-98246020D01*
X84899774Y-98337577D01*
X84890430Y-98342971D01*
X84833000Y-98383183D01*
X84825566Y-98391296D01*
X83263916Y-98391296D01*
X83204895Y-98312454D01*
X83089680Y-98226204D01*
X83019314Y-98199959D01*
X82962101Y-98178620D01*
X82962099Y-98178619D01*
X82954832Y-98175909D01*
X82947119Y-98175079D01*
X82947116Y-98175079D01*
X82898529Y-98169855D01*
X82898518Y-98169854D01*
X82895222Y-98169500D01*
X82891899Y-98169500D01*
X81202788Y-98169500D01*
X81202769Y-98169500D01*
X81199477Y-98169501D01*
X81196199Y-98169853D01*
X81196187Y-98169854D01*
X81147580Y-98175079D01*
X81147574Y-98175080D01*
X81139866Y-98175909D01*
X81132601Y-98178618D01*
X81132595Y-98178620D01*
X81013329Y-98223104D01*
X81013327Y-98223104D01*
X81005018Y-98226204D01*
X80997921Y-98231516D01*
X80997917Y-98231519D01*
X80896899Y-98307141D01*
X80896895Y-98307144D01*
X80889803Y-98312454D01*
X80884493Y-98319546D01*
X80884490Y-98319550D01*
X80808868Y-98420568D01*
X80808865Y-98420572D01*
X80803553Y-98427669D01*
X80800453Y-98435978D01*
X80800453Y-98435980D01*
X80755969Y-98555247D01*
X80755968Y-98555250D01*
X80753258Y-98562517D01*
X80752428Y-98570227D01*
X80752428Y-98570232D01*
X80747204Y-98618819D01*
X80747203Y-98618831D01*
X80746849Y-98622127D01*
X80746849Y-98625449D01*
X80746849Y-98720500D01*
X80730236Y-98782500D01*
X80684849Y-98827887D01*
X80622849Y-98844500D01*
X79107771Y-98844500D01*
X79096718Y-98843979D01*
X79089332Y-98842328D01*
X79081534Y-98842573D01*
X79022144Y-98844439D01*
X79018250Y-98844500D01*
X78990650Y-98844500D01*
X78986799Y-98844986D01*
X78986768Y-98844988D01*
X78986640Y-98845005D01*
X78975029Y-98845918D01*
X78939171Y-98847045D01*
X78939164Y-98847046D01*
X78931372Y-98847291D01*
X78923888Y-98849465D01*
X78923877Y-98849467D01*
X78912128Y-98852881D01*
X78893083Y-98856825D01*
X78880947Y-98858358D01*
X78880944Y-98858358D01*
X78873208Y-98859336D01*
X78865960Y-98862205D01*
X78865950Y-98862208D01*
X78832592Y-98875415D01*
X78821550Y-98879196D01*
X78787097Y-98889207D01*
X78787092Y-98889208D01*
X78779610Y-98891383D01*
X78772902Y-98895349D01*
X78772897Y-98895352D01*
X78762364Y-98901581D01*
X78744900Y-98910136D01*
X78733524Y-98914640D01*
X78733517Y-98914643D01*
X78726268Y-98917514D01*
X78719962Y-98922094D01*
X78719957Y-98922098D01*
X78690927Y-98943189D01*
X78681169Y-98949598D01*
X78650420Y-98967784D01*
X78643579Y-98971830D01*
X78638063Y-98977344D01*
X78638056Y-98977351D01*
X78629407Y-98986000D01*
X78614624Y-98998626D01*
X78604727Y-99005817D01*
X78604720Y-99005823D01*
X78598413Y-99010406D01*
X78593446Y-99016408D01*
X78593435Y-99016420D01*
X78570570Y-99044059D01*
X78562710Y-99052697D01*
X75057692Y-102557715D01*
X75003670Y-102589378D01*
X74941064Y-102590608D01*
X74885840Y-102561090D01*
X74852080Y-102508353D01*
X74829185Y-102437891D01*
X74827179Y-102431716D01*
X74732533Y-102267784D01*
X74721346Y-102255360D01*
X74610220Y-102131942D01*
X74610219Y-102131941D01*
X74605871Y-102127112D01*
X74600613Y-102123292D01*
X74600611Y-102123290D01*
X74457988Y-102019669D01*
X74457987Y-102019668D01*
X74452730Y-102015849D01*
X74446792Y-102013205D01*
X74285745Y-101941501D01*
X74285740Y-101941499D01*
X74279803Y-101938856D01*
X74273444Y-101937504D01*
X74273440Y-101937503D01*
X74101008Y-101900852D01*
X74101005Y-101900851D01*
X74094646Y-101899500D01*
X73905354Y-101899500D01*
X73898995Y-101900851D01*
X73898991Y-101900852D01*
X73726559Y-101937503D01*
X73726552Y-101937505D01*
X73720197Y-101938856D01*
X73714262Y-101941498D01*
X73714254Y-101941501D01*
X73553207Y-102013205D01*
X73553202Y-102013207D01*
X73547270Y-102015849D01*
X73542016Y-102019665D01*
X73542011Y-102019669D01*
X73399388Y-102123290D01*
X73399381Y-102123295D01*
X73394129Y-102127112D01*
X73389784Y-102131937D01*
X73389779Y-102131942D01*
X73271813Y-102262956D01*
X73271808Y-102262962D01*
X73267467Y-102267784D01*
X73264222Y-102273404D01*
X73264218Y-102273410D01*
X73176069Y-102426089D01*
X73176066Y-102426094D01*
X73172821Y-102431716D01*
X73170815Y-102437888D01*
X73170813Y-102437894D01*
X73116333Y-102605564D01*
X73116331Y-102605573D01*
X73114326Y-102611744D01*
X73113648Y-102618194D01*
X73113646Y-102618204D01*
X73103104Y-102718513D01*
X73094540Y-102800000D01*
X73095219Y-102806460D01*
X73113646Y-102981795D01*
X73113647Y-102981803D01*
X73114326Y-102988256D01*
X73116331Y-102994428D01*
X73116333Y-102994435D01*
X73149469Y-103096415D01*
X73172821Y-103168284D01*
X73189047Y-103196388D01*
X73205187Y-103247578D01*
X73198181Y-103300796D01*
X73169340Y-103346067D01*
X70162696Y-106352711D01*
X70154511Y-106360159D01*
X70148123Y-106364214D01*
X70142788Y-106369894D01*
X70142783Y-106369899D01*
X70102096Y-106413225D01*
X70099392Y-106416016D01*
X70082628Y-106432780D01*
X70082621Y-106432787D01*
X70079880Y-106435529D01*
X70077500Y-106438596D01*
X70077489Y-106438609D01*
X70077400Y-106438725D01*
X70069842Y-106447570D01*
X70045280Y-106473727D01*
X70045273Y-106473736D01*
X70039938Y-106479418D01*
X70036182Y-106486249D01*
X70036179Y-106486254D01*
X70030285Y-106496975D01*
X70019609Y-106513227D01*
X70012109Y-106522896D01*
X70012101Y-106522907D01*
X70007327Y-106529064D01*
X70004234Y-106536208D01*
X70004229Y-106536219D01*
X69989974Y-106569160D01*
X69984838Y-106579643D01*
X69963803Y-106617908D01*
X69961864Y-106625456D01*
X69961863Y-106625461D01*
X69958822Y-106637307D01*
X69952521Y-106655711D01*
X69947658Y-106666948D01*
X69947656Y-106666952D01*
X69944562Y-106674104D01*
X69943342Y-106681803D01*
X69943342Y-106681805D01*
X69937729Y-106717241D01*
X69935361Y-106728676D01*
X69926438Y-106763428D01*
X69926436Y-106763436D01*
X69924500Y-106770981D01*
X69924500Y-106778777D01*
X69924500Y-106791017D01*
X69922974Y-106810402D01*
X69919840Y-106830196D01*
X69920574Y-106837961D01*
X69920574Y-106837964D01*
X69923950Y-106873676D01*
X69924500Y-106885345D01*
X69924500Y-112970361D01*
X69915061Y-113017814D01*
X69888183Y-113058039D01*
X69771854Y-113174369D01*
X69735943Y-113210280D01*
X69685383Y-113240911D01*
X69626386Y-113244653D01*
X69572361Y-113220654D01*
X69535587Y-113174369D01*
X69524421Y-113116317D01*
X69530161Y-113003134D01*
X69530320Y-113000000D01*
X69511053Y-112620081D01*
X69453448Y-112244060D01*
X69358098Y-111875796D01*
X69225981Y-111519068D01*
X69058451Y-111177536D01*
X69055142Y-111172228D01*
X68991427Y-111070007D01*
X68857229Y-110854705D01*
X68624380Y-110553888D01*
X68362291Y-110278171D01*
X68073654Y-110030384D01*
X67761429Y-109813069D01*
X67758680Y-109811543D01*
X67431566Y-109629980D01*
X67431556Y-109629975D01*
X67428821Y-109628457D01*
X67425951Y-109627225D01*
X67425938Y-109627219D01*
X67082133Y-109479681D01*
X67082122Y-109479677D01*
X67079242Y-109478441D01*
X67076244Y-109477500D01*
X67076235Y-109477497D01*
X66719276Y-109365501D01*
X66719275Y-109365500D01*
X66716280Y-109364561D01*
X66713225Y-109363933D01*
X66713209Y-109363929D01*
X66346728Y-109288615D01*
X66346718Y-109288613D01*
X66343660Y-109287985D01*
X66340543Y-109287668D01*
X65968327Y-109249817D01*
X65968315Y-109249816D01*
X65965204Y-109249500D01*
X65584796Y-109249500D01*
X65581685Y-109249816D01*
X65581672Y-109249817D01*
X65209456Y-109287668D01*
X65209453Y-109287668D01*
X65206340Y-109287985D01*
X65203284Y-109288612D01*
X65203271Y-109288615D01*
X64836790Y-109363929D01*
X64836769Y-109363934D01*
X64833720Y-109364561D01*
X64830728Y-109365499D01*
X64830723Y-109365501D01*
X64473764Y-109477497D01*
X64473748Y-109477502D01*
X64470758Y-109478441D01*
X64467883Y-109479674D01*
X64467866Y-109479681D01*
X64124061Y-109627219D01*
X64124040Y-109627228D01*
X64121179Y-109628457D01*
X64118450Y-109629971D01*
X64118433Y-109629980D01*
X63791319Y-109811543D01*
X63791308Y-109811549D01*
X63788571Y-109813069D01*
X63786002Y-109814856D01*
X63785994Y-109814862D01*
X63478927Y-110028587D01*
X63478919Y-110028592D01*
X63476346Y-110030384D01*
X63473967Y-110032425D01*
X63473957Y-110032434D01*
X63190093Y-110276124D01*
X63187709Y-110278171D01*
X63185549Y-110280442D01*
X63185544Y-110280448D01*
X62927785Y-110551609D01*
X62927772Y-110551623D01*
X62925620Y-110553888D01*
X62923702Y-110556365D01*
X62923695Y-110556374D01*
X62694691Y-110852223D01*
X62694680Y-110852238D01*
X62692771Y-110854705D01*
X62691116Y-110857359D01*
X62691114Y-110857363D01*
X62493205Y-111174877D01*
X62493193Y-111174896D01*
X62491549Y-111177536D01*
X62490174Y-111180338D01*
X62490169Y-111180348D01*
X62334962Y-111496759D01*
X62324019Y-111519068D01*
X62322928Y-111522012D01*
X62322924Y-111522023D01*
X62209237Y-111828989D01*
X62191902Y-111875796D01*
X62191121Y-111878811D01*
X62191117Y-111878825D01*
X62099615Y-112232229D01*
X62096552Y-112244060D01*
X62096077Y-112247159D01*
X62096075Y-112247170D01*
X62060023Y-112482505D01*
X62038947Y-112620081D01*
X62038788Y-112623216D01*
X62038787Y-112623226D01*
X62021418Y-112965721D01*
X62019680Y-113000000D01*
X62019839Y-113003134D01*
X62019839Y-113003135D01*
X62038337Y-113367908D01*
X62038947Y-113379919D01*
X62039423Y-113383031D01*
X62039424Y-113383033D01*
X62062909Y-113536337D01*
X62096552Y-113755940D01*
X62097338Y-113758977D01*
X62097339Y-113758980D01*
X62187080Y-114105583D01*
X62191902Y-114124204D01*
X62324019Y-114480932D01*
X62491549Y-114822464D01*
X62493198Y-114825111D01*
X62493205Y-114825122D01*
X62623574Y-115034278D01*
X62692771Y-115145295D01*
X62694687Y-115147770D01*
X62694691Y-115147776D01*
X62855239Y-115355187D01*
X62925620Y-115446112D01*
X63187709Y-115721829D01*
X63476346Y-115969616D01*
X63788571Y-116186931D01*
X64121179Y-116371543D01*
X64124057Y-116372778D01*
X64124061Y-116372780D01*
X64467866Y-116520318D01*
X64470758Y-116521559D01*
X64833720Y-116635439D01*
X65206340Y-116712015D01*
X65584796Y-116750500D01*
X65587938Y-116750500D01*
X65896360Y-116750500D01*
X65952655Y-116764015D01*
X65996678Y-116801615D01*
X66018833Y-116855102D01*
X66014291Y-116912818D01*
X65984041Y-116962181D01*
X64006502Y-118939719D01*
X63960074Y-118968975D01*
X63905566Y-118975327D01*
X63901182Y-118974855D01*
X63901167Y-118974854D01*
X63897873Y-118974500D01*
X63894550Y-118974500D01*
X62105439Y-118974500D01*
X62105420Y-118974500D01*
X62102128Y-118974501D01*
X62098850Y-118974853D01*
X62098838Y-118974854D01*
X62050231Y-118980079D01*
X62050225Y-118980080D01*
X62042517Y-118980909D01*
X62035252Y-118983618D01*
X62035246Y-118983620D01*
X61915980Y-119028104D01*
X61915978Y-119028104D01*
X61907669Y-119031204D01*
X61900572Y-119036516D01*
X61900568Y-119036519D01*
X61799550Y-119112141D01*
X61799546Y-119112144D01*
X61792454Y-119117454D01*
X61787144Y-119124546D01*
X61787141Y-119124550D01*
X61711519Y-119225568D01*
X61711516Y-119225572D01*
X61706204Y-119232669D01*
X61703104Y-119240978D01*
X61703104Y-119240980D01*
X61658620Y-119360247D01*
X61658619Y-119360250D01*
X61655909Y-119367517D01*
X61655079Y-119375227D01*
X61655079Y-119375232D01*
X61649855Y-119423819D01*
X61649854Y-119423831D01*
X61649500Y-119427127D01*
X61649500Y-119430448D01*
X61649500Y-119430449D01*
X61649500Y-121219560D01*
X61649500Y-121219578D01*
X61649501Y-121222872D01*
X61649853Y-121226150D01*
X61649854Y-121226161D01*
X61655079Y-121274768D01*
X61655080Y-121274773D01*
X61655909Y-121282483D01*
X61658619Y-121289749D01*
X61658620Y-121289753D01*
X61686380Y-121364180D01*
X61706204Y-121417331D01*
X61711518Y-121424430D01*
X61711519Y-121424431D01*
X61786812Y-121525010D01*
X61792454Y-121532546D01*
X61907669Y-121618796D01*
X62017405Y-121659725D01*
X62039082Y-121667810D01*
X62089462Y-121702789D01*
X62116915Y-121757633D01*
X62114726Y-121818926D01*
X62083431Y-121871672D01*
X61961505Y-121993599D01*
X61958402Y-121998029D01*
X61958399Y-121998034D01*
X61829073Y-122182731D01*
X61829068Y-122182738D01*
X61825965Y-122187171D01*
X61823677Y-122192077D01*
X61823675Y-122192081D01*
X61728386Y-122396427D01*
X61728383Y-122396432D01*
X61726097Y-122401337D01*
X61724698Y-122406557D01*
X61724694Y-122406569D01*
X61666337Y-122624365D01*
X61666335Y-122624371D01*
X61664937Y-122629592D01*
X61664465Y-122634977D01*
X61664465Y-122634982D01*
X61652376Y-122773165D01*
X61644341Y-122865000D01*
X61644813Y-122870395D01*
X61664246Y-123092517D01*
X61664937Y-123100408D01*
X61666337Y-123105636D01*
X61666338Y-123105637D01*
X61691855Y-123200873D01*
X61691855Y-123265059D01*
X61659761Y-123320646D01*
X61437696Y-123542711D01*
X61429511Y-123550159D01*
X61423123Y-123554214D01*
X61417788Y-123559894D01*
X61417783Y-123559899D01*
X61377096Y-123603225D01*
X61374392Y-123606016D01*
X61357628Y-123622780D01*
X61357621Y-123622787D01*
X61354880Y-123625529D01*
X61352500Y-123628596D01*
X61352489Y-123628609D01*
X61352400Y-123628725D01*
X61344842Y-123637570D01*
X61320280Y-123663727D01*
X61320273Y-123663736D01*
X61314938Y-123669418D01*
X61311182Y-123676249D01*
X61311179Y-123676254D01*
X61305285Y-123686975D01*
X61294609Y-123703227D01*
X61287109Y-123712896D01*
X61287101Y-123712907D01*
X61282327Y-123719064D01*
X61279234Y-123726208D01*
X61279229Y-123726219D01*
X61264974Y-123759160D01*
X61259838Y-123769643D01*
X61238803Y-123807908D01*
X61236864Y-123815456D01*
X61236863Y-123815461D01*
X61233822Y-123827307D01*
X61227521Y-123845711D01*
X61222658Y-123856948D01*
X61222656Y-123856952D01*
X61219562Y-123864104D01*
X61218342Y-123871803D01*
X61218342Y-123871805D01*
X61212729Y-123907241D01*
X61210361Y-123918676D01*
X61201438Y-123953428D01*
X61201436Y-123953436D01*
X61199500Y-123960981D01*
X61199500Y-123968777D01*
X61199500Y-123981017D01*
X61197974Y-124000402D01*
X61194840Y-124020196D01*
X61195574Y-124027961D01*
X61195574Y-124027964D01*
X61198950Y-124063676D01*
X61199500Y-124075345D01*
X61199500Y-133272225D01*
X61198978Y-133283280D01*
X61197327Y-133290667D01*
X61197571Y-133298453D01*
X61197571Y-133298461D01*
X61199439Y-133357873D01*
X61199500Y-133361768D01*
X61199500Y-133389350D01*
X61199988Y-133393219D01*
X61199989Y-133393225D01*
X61200004Y-133393343D01*
X61200918Y-133404966D01*
X61202045Y-133440830D01*
X61202046Y-133440837D01*
X61202291Y-133448627D01*
X61204467Y-133456119D01*
X61204468Y-133456121D01*
X61207879Y-133467862D01*
X61211825Y-133486915D01*
X61214336Y-133506792D01*
X61217206Y-133514042D01*
X61217208Y-133514048D01*
X61230414Y-133547404D01*
X61234197Y-133558451D01*
X61246382Y-133600390D01*
X61250353Y-133607105D01*
X61250354Y-133607107D01*
X61256581Y-133617637D01*
X61265136Y-133635099D01*
X61269642Y-133646480D01*
X61269643Y-133646483D01*
X61272514Y-133653732D01*
X61284695Y-133670498D01*
X61298181Y-133689060D01*
X61304593Y-133698822D01*
X61322856Y-133729702D01*
X61322859Y-133729706D01*
X61326830Y-133736420D01*
X61332344Y-133741934D01*
X61332345Y-133741935D01*
X61340990Y-133750580D01*
X61353626Y-133765374D01*
X61360819Y-133775275D01*
X61360823Y-133775279D01*
X61365406Y-133781587D01*
X61371415Y-133786558D01*
X61371416Y-133786559D01*
X61399058Y-133809426D01*
X61407699Y-133817289D01*
X61613181Y-134022771D01*
X61640061Y-134062999D01*
X61649500Y-134110452D01*
X61649500Y-134734328D01*
X61649501Y-135126000D01*
X61632888Y-135188000D01*
X61587501Y-135233387D01*
X61525501Y-135250000D01*
X49860560Y-135250000D01*
X49798560Y-135233387D01*
X49753173Y-135188000D01*
X49736560Y-135126000D01*
X49736560Y-133067765D01*
X50145788Y-133067765D01*
X50146282Y-133072262D01*
X50146283Y-133072267D01*
X50174917Y-133332506D01*
X50174918Y-133332513D01*
X50175414Y-133337018D01*
X50176559Y-133341398D01*
X50176561Y-133341408D01*
X50226984Y-133534278D01*
X50243928Y-133599088D01*
X50245693Y-133603242D01*
X50245696Y-133603250D01*
X50348043Y-133844091D01*
X50349870Y-133848390D01*
X50352226Y-133852251D01*
X50352229Y-133852256D01*
X50480844Y-134062999D01*
X50490982Y-134079610D01*
X50664255Y-134287820D01*
X50667630Y-134290844D01*
X50667631Y-134290845D01*
X50772330Y-134384656D01*
X50865998Y-134468582D01*
X51091910Y-134618044D01*
X51337176Y-134733020D01*
X51596569Y-134811060D01*
X51864561Y-134850500D01*
X52065369Y-134850500D01*
X52067631Y-134850500D01*
X52270156Y-134835677D01*
X52534553Y-134776780D01*
X52787558Y-134680014D01*
X53023777Y-134547441D01*
X53238177Y-134381888D01*
X53426186Y-134186881D01*
X53583799Y-133966579D01*
X53707656Y-133725675D01*
X53795118Y-133469305D01*
X53844319Y-133202933D01*
X53854212Y-132932235D01*
X53824586Y-132662982D01*
X53756072Y-132400912D01*
X53650130Y-132151610D01*
X53509018Y-131920390D01*
X53335745Y-131712180D01*
X53247773Y-131633357D01*
X53137382Y-131534446D01*
X53137378Y-131534442D01*
X53134002Y-131531418D01*
X52908090Y-131381956D01*
X52903996Y-131380036D01*
X52903991Y-131380034D01*
X52666929Y-131268904D01*
X52666925Y-131268902D01*
X52662824Y-131266980D01*
X52658477Y-131265672D01*
X52658474Y-131265671D01*
X52407772Y-131190246D01*
X52407771Y-131190245D01*
X52403431Y-131188940D01*
X52398957Y-131188281D01*
X52398950Y-131188280D01*
X52139913Y-131150158D01*
X52139907Y-131150157D01*
X52135439Y-131149500D01*
X51932369Y-131149500D01*
X51930120Y-131149664D01*
X51930109Y-131149665D01*
X51734363Y-131163992D01*
X51734359Y-131163992D01*
X51729844Y-131164323D01*
X51725426Y-131165307D01*
X51725420Y-131165308D01*
X51469877Y-131222232D01*
X51469861Y-131222236D01*
X51465447Y-131223220D01*
X51461216Y-131224838D01*
X51461210Y-131224840D01*
X51216673Y-131318367D01*
X51216663Y-131318371D01*
X51212442Y-131319986D01*
X51208494Y-131322201D01*
X51208489Y-131322204D01*
X50980176Y-131450340D01*
X50980171Y-131450343D01*
X50976223Y-131452559D01*
X50972639Y-131455325D01*
X50972635Y-131455329D01*
X50765407Y-131615343D01*
X50765394Y-131615354D01*
X50761823Y-131618112D01*
X50758685Y-131621366D01*
X50758678Y-131621373D01*
X50576958Y-131809857D01*
X50576952Y-131809864D01*
X50573814Y-131813119D01*
X50571189Y-131816787D01*
X50571179Y-131816800D01*
X50418834Y-132029740D01*
X50418830Y-132029745D01*
X50416201Y-132033421D01*
X50414132Y-132037444D01*
X50414129Y-132037450D01*
X50294416Y-132270293D01*
X50294411Y-132270304D01*
X50292344Y-132274325D01*
X50290884Y-132278602D01*
X50290879Y-132278616D01*
X50206348Y-132526395D01*
X50206344Y-132526407D01*
X50204882Y-132530695D01*
X50204057Y-132535159D01*
X50204057Y-132535161D01*
X50156504Y-132792606D01*
X50156502Y-132792619D01*
X50155681Y-132797067D01*
X50155515Y-132801593D01*
X50155515Y-132801599D01*
X50147406Y-133023495D01*
X50145788Y-133067765D01*
X49736560Y-133067765D01*
X49736560Y-95666931D01*
X53250001Y-95666931D01*
X53250088Y-95670230D01*
X53252567Y-95716923D01*
X53253605Y-95725383D01*
X53296237Y-95945815D01*
X53299098Y-95955918D01*
X53378019Y-96165046D01*
X53382544Y-96174515D01*
X53495676Y-96367303D01*
X53501733Y-96375867D01*
X53645816Y-96546758D01*
X53653241Y-96554183D01*
X53824132Y-96698266D01*
X53832696Y-96704323D01*
X54025484Y-96817455D01*
X54034953Y-96821980D01*
X54244081Y-96900901D01*
X54254184Y-96903762D01*
X54474608Y-96946392D01*
X54483091Y-96947433D01*
X54529762Y-96949912D01*
X54533057Y-96950000D01*
X55233674Y-96950000D01*
X55246549Y-96946549D01*
X55250000Y-96933674D01*
X55250000Y-96933673D01*
X55750000Y-96933673D01*
X55753450Y-96946548D01*
X55766326Y-96949999D01*
X56466931Y-96949999D01*
X56470230Y-96949911D01*
X56516923Y-96947432D01*
X56525383Y-96946394D01*
X56745815Y-96903762D01*
X56755918Y-96900901D01*
X56965046Y-96821980D01*
X56974515Y-96817455D01*
X57167303Y-96704323D01*
X57175867Y-96698266D01*
X57346758Y-96554183D01*
X57354183Y-96546758D01*
X57498266Y-96375867D01*
X57504323Y-96367303D01*
X57617455Y-96174515D01*
X57621980Y-96165046D01*
X57700901Y-95955918D01*
X57703762Y-95945815D01*
X57746392Y-95725391D01*
X57747433Y-95716908D01*
X57749912Y-95670237D01*
X57750000Y-95666943D01*
X57750000Y-94966326D01*
X57746549Y-94953450D01*
X57733674Y-94950000D01*
X55766326Y-94950000D01*
X55753450Y-94953450D01*
X55750000Y-94966326D01*
X55750000Y-96933673D01*
X55250000Y-96933673D01*
X55250000Y-94966326D01*
X55246549Y-94953450D01*
X55233674Y-94950000D01*
X53266327Y-94950000D01*
X53253451Y-94953450D01*
X53250001Y-94966326D01*
X53250001Y-95666931D01*
X49736560Y-95666931D01*
X49736560Y-94433674D01*
X53250000Y-94433674D01*
X53253450Y-94446549D01*
X53266326Y-94450000D01*
X55233674Y-94450000D01*
X55246549Y-94446549D01*
X55250000Y-94433674D01*
X55750000Y-94433674D01*
X55753450Y-94446549D01*
X55766326Y-94450000D01*
X57733673Y-94450000D01*
X57746548Y-94446549D01*
X57749999Y-94433674D01*
X57749999Y-93823947D01*
X115778217Y-93823947D01*
X115784128Y-93833225D01*
X116488456Y-94537554D01*
X116499999Y-94544218D01*
X116511541Y-94537554D01*
X117215870Y-93833225D01*
X117221781Y-93823946D01*
X117214348Y-93815835D01*
X117156922Y-93775625D01*
X117147572Y-93770227D01*
X116951231Y-93678671D01*
X116941097Y-93674983D01*
X116731837Y-93618911D01*
X116721206Y-93617037D01*
X116505395Y-93598157D01*
X116494605Y-93598157D01*
X116278793Y-93617037D01*
X116268162Y-93618911D01*
X116058902Y-93674983D01*
X116048768Y-93678671D01*
X115852425Y-93770228D01*
X115843081Y-93775622D01*
X115785651Y-93815834D01*
X115778217Y-93823947D01*
X57749999Y-93823947D01*
X57749999Y-93733069D01*
X57749911Y-93729769D01*
X57747432Y-93683076D01*
X57746394Y-93674616D01*
X57703762Y-93454184D01*
X57700901Y-93444081D01*
X57621980Y-93234953D01*
X57617455Y-93225484D01*
X57504323Y-93032696D01*
X57498266Y-93024132D01*
X57354183Y-92853241D01*
X57346758Y-92845816D01*
X57292418Y-92800000D01*
X131194540Y-92800000D01*
X131195219Y-92806460D01*
X131213646Y-92981795D01*
X131213647Y-92981803D01*
X131214326Y-92988256D01*
X131216331Y-92994428D01*
X131216333Y-92994435D01*
X131270813Y-93162105D01*
X131272821Y-93168284D01*
X131276068Y-93173908D01*
X131276069Y-93173910D01*
X131298461Y-93212695D01*
X131367467Y-93332216D01*
X131494129Y-93472888D01*
X131647270Y-93584151D01*
X131820197Y-93661144D01*
X132005354Y-93700500D01*
X132064547Y-93700500D01*
X132112000Y-93709939D01*
X132152228Y-93736819D01*
X132402707Y-93987298D01*
X132410159Y-93995487D01*
X132414214Y-94001877D01*
X132463223Y-94047900D01*
X132466020Y-94050611D01*
X132485529Y-94070120D01*
X132488709Y-94072587D01*
X132497571Y-94080155D01*
X132511020Y-94092785D01*
X132523732Y-94104723D01*
X132523734Y-94104724D01*
X132529418Y-94110062D01*
X132536251Y-94113818D01*
X132536252Y-94113819D01*
X132546973Y-94119713D01*
X132563234Y-94130394D01*
X132579064Y-94142673D01*
X132619154Y-94160021D01*
X132629631Y-94165154D01*
X132667908Y-94186197D01*
X132684957Y-94190574D01*
X132687305Y-94191177D01*
X132705719Y-94197481D01*
X132724104Y-94205438D01*
X132767265Y-94212273D01*
X132778664Y-94214634D01*
X132820981Y-94225500D01*
X132841017Y-94225500D01*
X132860402Y-94227025D01*
X132880196Y-94230160D01*
X132918276Y-94226560D01*
X132923676Y-94226050D01*
X132935345Y-94225500D01*
X142789548Y-94225500D01*
X142837001Y-94234939D01*
X142877229Y-94261819D01*
X156961038Y-108345628D01*
X156985278Y-108379926D01*
X156996678Y-108420347D01*
X157013451Y-108579927D01*
X157014326Y-108588256D01*
X157016331Y-108594428D01*
X157016333Y-108594435D01*
X157057025Y-108719669D01*
X157072821Y-108768284D01*
X157076068Y-108773908D01*
X157076069Y-108773910D01*
X157104578Y-108823290D01*
X157167467Y-108932216D01*
X157171811Y-108937041D01*
X157171813Y-108937043D01*
X157211830Y-108981486D01*
X157294129Y-109072888D01*
X157299387Y-109076708D01*
X157299388Y-109076709D01*
X157345832Y-109110452D01*
X157447270Y-109184151D01*
X157620197Y-109261144D01*
X157805354Y-109300500D01*
X157988143Y-109300500D01*
X157994646Y-109300500D01*
X158179803Y-109261144D01*
X158352730Y-109184151D01*
X158505871Y-109072888D01*
X158632533Y-108932216D01*
X158727179Y-108768284D01*
X158785674Y-108588256D01*
X158805460Y-108400000D01*
X158785674Y-108211744D01*
X158727179Y-108031716D01*
X158632533Y-107867784D01*
X158573383Y-107802092D01*
X158510220Y-107731942D01*
X158510219Y-107731941D01*
X158505871Y-107727112D01*
X158500613Y-107723292D01*
X158500611Y-107723290D01*
X158357988Y-107619669D01*
X158357987Y-107619668D01*
X158352730Y-107615849D01*
X158346792Y-107613205D01*
X158185745Y-107541501D01*
X158185740Y-107541499D01*
X158179803Y-107538856D01*
X158173444Y-107537504D01*
X158173440Y-107537503D01*
X158001008Y-107500852D01*
X158001005Y-107500851D01*
X157994646Y-107499500D01*
X157988143Y-107499500D01*
X157935452Y-107499500D01*
X157887999Y-107490061D01*
X157847771Y-107463181D01*
X150737330Y-100352740D01*
X143597286Y-93212695D01*
X143589842Y-93204514D01*
X143585786Y-93198123D01*
X143536775Y-93152098D01*
X143533978Y-93149387D01*
X143517227Y-93132636D01*
X143517226Y-93132635D01*
X143514471Y-93129880D01*
X143511290Y-93127412D01*
X143502414Y-93119830D01*
X143476269Y-93095278D01*
X143476267Y-93095276D01*
X143470582Y-93089938D01*
X143463749Y-93086182D01*
X143463743Y-93086177D01*
X143453025Y-93080285D01*
X143436766Y-93069606D01*
X143427095Y-93062104D01*
X143427092Y-93062102D01*
X143420936Y-93057327D01*
X143413779Y-93054229D01*
X143413776Y-93054228D01*
X143380849Y-93039978D01*
X143370363Y-93034841D01*
X143338932Y-93017562D01*
X143338923Y-93017558D01*
X143332092Y-93013803D01*
X143324535Y-93011862D01*
X143324531Y-93011861D01*
X143312688Y-93008820D01*
X143294284Y-93002519D01*
X143283057Y-92997660D01*
X143283050Y-92997658D01*
X143275896Y-92994562D01*
X143268192Y-92993341D01*
X143268190Y-92993341D01*
X143232759Y-92987729D01*
X143221324Y-92985361D01*
X143186571Y-92976438D01*
X143186563Y-92976437D01*
X143179019Y-92974500D01*
X143171223Y-92974500D01*
X143158983Y-92974500D01*
X143139597Y-92972974D01*
X143119804Y-92969840D01*
X143112038Y-92970574D01*
X143112035Y-92970574D01*
X143076324Y-92973950D01*
X143064655Y-92974500D01*
X133210453Y-92974500D01*
X133163000Y-92965061D01*
X133122771Y-92938181D01*
X133038960Y-92854369D01*
X133014721Y-92820071D01*
X133003321Y-92779649D01*
X132986353Y-92618204D01*
X132986352Y-92618203D01*
X132985674Y-92611744D01*
X132927179Y-92431716D01*
X132832533Y-92267784D01*
X132816970Y-92250500D01*
X132710220Y-92131942D01*
X132710219Y-92131941D01*
X132705871Y-92127112D01*
X132700613Y-92123292D01*
X132700611Y-92123290D01*
X132557988Y-92019669D01*
X132557987Y-92019668D01*
X132552730Y-92015849D01*
X132546792Y-92013205D01*
X132385745Y-91941501D01*
X132385740Y-91941499D01*
X132379803Y-91938856D01*
X132373444Y-91937504D01*
X132373440Y-91937503D01*
X132201008Y-91900852D01*
X132201005Y-91900851D01*
X132194646Y-91899500D01*
X132005354Y-91899500D01*
X131998995Y-91900851D01*
X131998991Y-91900852D01*
X131826559Y-91937503D01*
X131826552Y-91937505D01*
X131820197Y-91938856D01*
X131814262Y-91941498D01*
X131814254Y-91941501D01*
X131653207Y-92013205D01*
X131653202Y-92013207D01*
X131647270Y-92015849D01*
X131642016Y-92019665D01*
X131642011Y-92019669D01*
X131499388Y-92123290D01*
X131499381Y-92123295D01*
X131494129Y-92127112D01*
X131489784Y-92131937D01*
X131489779Y-92131942D01*
X131371813Y-92262956D01*
X131371808Y-92262962D01*
X131367467Y-92267784D01*
X131364222Y-92273404D01*
X131364218Y-92273410D01*
X131276069Y-92426089D01*
X131276066Y-92426094D01*
X131272821Y-92431716D01*
X131270815Y-92437888D01*
X131270813Y-92437894D01*
X131216333Y-92605564D01*
X131216331Y-92605573D01*
X131214326Y-92611744D01*
X131213648Y-92618194D01*
X131213646Y-92618204D01*
X131196679Y-92779649D01*
X131194540Y-92800000D01*
X57292418Y-92800000D01*
X57175867Y-92701733D01*
X57167303Y-92695676D01*
X56974515Y-92582544D01*
X56965046Y-92578019D01*
X56755918Y-92499098D01*
X56740750Y-92494803D01*
X56740984Y-92493975D01*
X56691141Y-92470688D01*
X56654997Y-92422344D01*
X56645961Y-92362662D01*
X56666175Y-92305785D01*
X56710848Y-92265191D01*
X56769391Y-92250499D01*
X60297872Y-92250499D01*
X60357483Y-92244091D01*
X60492331Y-92193796D01*
X60607546Y-92107546D01*
X60693796Y-91992331D01*
X60744091Y-91857483D01*
X60750500Y-91797873D01*
X60750499Y-88202128D01*
X60744091Y-88142517D01*
X60693796Y-88007669D01*
X60607546Y-87892454D01*
X60492331Y-87806204D01*
X60385415Y-87766327D01*
X60364752Y-87758620D01*
X60364750Y-87758619D01*
X60357483Y-87755909D01*
X60349770Y-87755079D01*
X60349767Y-87755079D01*
X60301180Y-87749855D01*
X60301169Y-87749854D01*
X60297873Y-87749500D01*
X60294550Y-87749500D01*
X56705439Y-87749500D01*
X56705420Y-87749500D01*
X56702128Y-87749501D01*
X56698850Y-87749853D01*
X56698838Y-87749854D01*
X56650231Y-87755079D01*
X56650225Y-87755080D01*
X56642517Y-87755909D01*
X56635252Y-87758618D01*
X56635246Y-87758620D01*
X56515980Y-87803104D01*
X56515978Y-87803104D01*
X56507669Y-87806204D01*
X56500572Y-87811516D01*
X56500568Y-87811519D01*
X56399550Y-87887141D01*
X56399546Y-87887144D01*
X56392454Y-87892454D01*
X56387144Y-87899546D01*
X56387141Y-87899550D01*
X56311519Y-88000568D01*
X56311516Y-88000572D01*
X56306204Y-88007669D01*
X56303104Y-88015978D01*
X56303104Y-88015980D01*
X56258620Y-88135247D01*
X56258619Y-88135250D01*
X56255909Y-88142517D01*
X56255079Y-88150227D01*
X56255079Y-88150232D01*
X56249855Y-88198819D01*
X56249854Y-88198831D01*
X56249500Y-88202127D01*
X56249500Y-88205448D01*
X56249500Y-88205449D01*
X56249500Y-91794560D01*
X56249500Y-91794578D01*
X56249501Y-91797872D01*
X56249853Y-91801150D01*
X56249854Y-91801161D01*
X56255079Y-91849768D01*
X56255080Y-91849773D01*
X56255909Y-91857483D01*
X56258619Y-91864749D01*
X56258620Y-91864753D01*
X56285754Y-91937503D01*
X56306204Y-91992331D01*
X56392454Y-92107546D01*
X56507669Y-92193796D01*
X56556509Y-92212012D01*
X56612169Y-92253520D01*
X56636791Y-92318441D01*
X56622654Y-92386420D01*
X56574192Y-92436143D01*
X56506598Y-92452019D01*
X56470237Y-92450087D01*
X56466943Y-92450000D01*
X55766326Y-92450000D01*
X55753450Y-92453450D01*
X55750000Y-92466326D01*
X55750000Y-94433674D01*
X55250000Y-94433674D01*
X55250000Y-92466327D01*
X55246549Y-92453451D01*
X55233674Y-92450001D01*
X54533069Y-92450001D01*
X54529769Y-92450088D01*
X54483076Y-92452567D01*
X54474616Y-92453605D01*
X54254184Y-92496237D01*
X54244081Y-92499098D01*
X54034953Y-92578019D01*
X54025484Y-92582544D01*
X53832696Y-92695676D01*
X53824132Y-92701733D01*
X53653241Y-92845816D01*
X53645816Y-92853241D01*
X53501733Y-93024132D01*
X53495676Y-93032696D01*
X53382544Y-93225484D01*
X53378019Y-93234953D01*
X53299098Y-93444081D01*
X53296237Y-93454184D01*
X53253607Y-93674608D01*
X53252566Y-93683091D01*
X53250087Y-93729762D01*
X53250000Y-93733057D01*
X53250000Y-94433674D01*
X49736560Y-94433674D01*
X49736560Y-91061744D01*
X50500001Y-91061744D01*
X50500192Y-91066625D01*
X50509990Y-91191129D01*
X50511674Y-91201392D01*
X50564017Y-91409120D01*
X50567679Y-91419585D01*
X50656126Y-91614306D01*
X50661603Y-91623958D01*
X50783390Y-91799749D01*
X50790508Y-91808274D01*
X50941725Y-91959491D01*
X50950250Y-91966609D01*
X51126041Y-92088396D01*
X51135693Y-92093873D01*
X51330414Y-92182320D01*
X51340879Y-92185982D01*
X51548608Y-92238325D01*
X51558869Y-92240009D01*
X51683374Y-92249808D01*
X51688254Y-92250000D01*
X52233674Y-92250000D01*
X52246549Y-92246549D01*
X52250000Y-92233674D01*
X52250000Y-92233673D01*
X52750000Y-92233673D01*
X52753450Y-92246548D01*
X52766326Y-92249999D01*
X53311744Y-92249999D01*
X53316625Y-92249807D01*
X53441129Y-92240009D01*
X53451392Y-92238325D01*
X53659120Y-92185982D01*
X53669585Y-92182320D01*
X53864306Y-92093873D01*
X53873958Y-92088396D01*
X54049749Y-91966609D01*
X54058274Y-91959491D01*
X54209491Y-91808274D01*
X54216609Y-91799749D01*
X54338396Y-91623958D01*
X54343873Y-91614306D01*
X54432320Y-91419585D01*
X54435982Y-91409120D01*
X54488325Y-91201391D01*
X54490009Y-91191130D01*
X54499808Y-91066625D01*
X54500000Y-91061746D01*
X54500000Y-90266326D01*
X54496549Y-90253450D01*
X54483674Y-90250000D01*
X52766326Y-90250000D01*
X52753450Y-90253450D01*
X52750000Y-90266326D01*
X52750000Y-92233673D01*
X52250000Y-92233673D01*
X52250000Y-90266326D01*
X52246549Y-90253450D01*
X52233674Y-90250000D01*
X50516327Y-90250000D01*
X50503451Y-90253450D01*
X50500001Y-90266326D01*
X50500001Y-91061744D01*
X49736560Y-91061744D01*
X49736560Y-89733674D01*
X50500000Y-89733674D01*
X50503450Y-89746549D01*
X50516326Y-89750000D01*
X52233674Y-89750000D01*
X52246549Y-89746549D01*
X52250000Y-89733674D01*
X52750000Y-89733674D01*
X52753450Y-89746549D01*
X52766326Y-89750000D01*
X54483673Y-89750000D01*
X54496548Y-89746549D01*
X54499999Y-89733674D01*
X54499999Y-88938256D01*
X54499807Y-88933374D01*
X54490009Y-88808870D01*
X54488325Y-88798607D01*
X54435982Y-88590879D01*
X54432320Y-88580414D01*
X54343873Y-88385693D01*
X54338396Y-88376041D01*
X54216609Y-88200250D01*
X54209491Y-88191725D01*
X54058274Y-88040508D01*
X54049749Y-88033390D01*
X53873958Y-87911603D01*
X53864306Y-87906126D01*
X53669585Y-87817679D01*
X53659120Y-87814017D01*
X53451391Y-87761674D01*
X53441130Y-87759990D01*
X53316625Y-87750191D01*
X53311746Y-87750000D01*
X52766326Y-87750000D01*
X52753450Y-87753450D01*
X52750000Y-87766326D01*
X52750000Y-89733674D01*
X52250000Y-89733674D01*
X52250000Y-87766327D01*
X52246549Y-87753451D01*
X52233674Y-87750001D01*
X51688256Y-87750001D01*
X51683374Y-87750192D01*
X51558870Y-87759990D01*
X51548607Y-87761674D01*
X51340879Y-87814017D01*
X51330414Y-87817679D01*
X51135693Y-87906126D01*
X51126041Y-87911603D01*
X50950250Y-88033390D01*
X50941725Y-88040508D01*
X50790508Y-88191725D01*
X50783390Y-88200250D01*
X50661603Y-88376041D01*
X50656126Y-88385693D01*
X50567679Y-88580414D01*
X50564017Y-88590879D01*
X50511674Y-88798608D01*
X50509990Y-88808869D01*
X50500191Y-88933374D01*
X50500000Y-88938254D01*
X50500000Y-89733674D01*
X49736560Y-89733674D01*
X49736560Y-78374000D01*
X49753173Y-78312000D01*
X49798560Y-78266613D01*
X49860560Y-78250000D01*
X62712993Y-78250000D01*
X62767602Y-78262672D01*
G37*
%TD.AperFunction*%
%TD*%
M02*
