%TF.GenerationSoftware,KiCad,Pcbnew,7.0.0-1.fc37*%
%TF.CreationDate,2023-06-05T08:34:40+02:00*%
%TF.ProjectId,smokePID,736d6f6b-6550-4494-942e-6b696361645f,rev?*%
%TF.SameCoordinates,Original*%
%TF.FileFunction,Soldermask,Top*%
%TF.FilePolarity,Negative*%
%FSLAX46Y46*%
G04 Gerber Fmt 4.6, Leading zero omitted, Abs format (unit mm)*
G04 Created by KiCad (PCBNEW 7.0.0-1.fc37) date 2023-06-05 08:34:40*
%MOMM*%
%LPD*%
G01*
G04 APERTURE LIST*
G04 Aperture macros list*
%AMRoundRect*
0 Rectangle with rounded corners*
0 $1 Rounding radius*
0 $2 $3 $4 $5 $6 $7 $8 $9 X,Y pos of 4 corners*
0 Add a 4 corners polygon primitive as box body*
4,1,4,$2,$3,$4,$5,$6,$7,$8,$9,$2,$3,0*
0 Add four circle primitives for the rounded corners*
1,1,$1+$1,$2,$3*
1,1,$1+$1,$4,$5*
1,1,$1+$1,$6,$7*
1,1,$1+$1,$8,$9*
0 Add four rect primitives between the rounded corners*
20,1,$1+$1,$2,$3,$4,$5,0*
20,1,$1+$1,$4,$5,$6,$7,0*
20,1,$1+$1,$6,$7,$8,$9,0*
20,1,$1+$1,$8,$9,$2,$3,0*%
G04 Aperture macros list end*
%ADD10R,1.600000X1.600000*%
%ADD11C,1.600000*%
%ADD12RoundRect,0.218750X-0.218750X-0.256250X0.218750X-0.256250X0.218750X0.256250X-0.218750X0.256250X0*%
%ADD13RoundRect,0.225000X-0.225000X-0.250000X0.225000X-0.250000X0.225000X0.250000X-0.225000X0.250000X0*%
%ADD14C,3.200000*%
%ADD15RoundRect,0.225000X0.250000X-0.225000X0.250000X0.225000X-0.250000X0.225000X-0.250000X-0.225000X0*%
%ADD16R,3.500000X3.500000*%
%ADD17RoundRect,0.750000X-0.750000X-1.000000X0.750000X-1.000000X0.750000X1.000000X-0.750000X1.000000X0*%
%ADD18RoundRect,0.875000X-0.875000X-0.875000X0.875000X-0.875000X0.875000X0.875000X-0.875000X0.875000X0*%
%ADD19RoundRect,0.200000X0.200000X0.275000X-0.200000X0.275000X-0.200000X-0.275000X0.200000X-0.275000X0*%
%ADD20R,1.700000X1.700000*%
%ADD21O,1.700000X1.700000*%
%ADD22RoundRect,0.200000X0.275000X-0.200000X0.275000X0.200000X-0.275000X0.200000X-0.275000X-0.200000X0*%
%ADD23RoundRect,0.225000X-0.250000X0.225000X-0.250000X-0.225000X0.250000X-0.225000X0.250000X0.225000X0*%
%ADD24RoundRect,0.225000X0.225000X0.250000X-0.225000X0.250000X-0.225000X-0.250000X0.225000X-0.250000X0*%
%ADD25RoundRect,0.250000X0.850000X0.350000X-0.850000X0.350000X-0.850000X-0.350000X0.850000X-0.350000X0*%
%ADD26RoundRect,0.249997X2.950003X2.650003X-2.950003X2.650003X-2.950003X-2.650003X2.950003X-2.650003X0*%
%ADD27RoundRect,0.200000X-0.200000X-0.275000X0.200000X-0.275000X0.200000X0.275000X-0.200000X0.275000X0*%
%ADD28R,3.000000X3.000000*%
%ADD29C,3.000000*%
%ADD30RoundRect,0.100000X-0.637500X-0.100000X0.637500X-0.100000X0.637500X0.100000X-0.637500X0.100000X0*%
%ADD31C,6.500000*%
%ADD32C,2.340000*%
G04 APERTURE END LIST*
D10*
%TO.C,C3*%
X82047348Y-99469999D03*
D11*
X85547349Y-99470000D03*
%TD*%
D12*
%TO.C,D3*%
X176425000Y-125000000D03*
X178000000Y-125000000D03*
%TD*%
D13*
%TO.C,C13*%
X124000000Y-112000000D03*
X125550000Y-112000000D03*
%TD*%
D14*
%TO.C,H4*%
X52000000Y-133000000D03*
%TD*%
D15*
%TO.C,C14*%
X73430000Y-131775000D03*
X73430000Y-130225000D03*
%TD*%
D16*
%TO.C,J2*%
X58499999Y-89999999D03*
D17*
X52500000Y-90000000D03*
D18*
X55500000Y-94700000D03*
%TD*%
D19*
%TO.C,R11*%
X137925000Y-103200000D03*
X136275000Y-103200000D03*
%TD*%
D10*
%TO.C,C9*%
X116499999Y-98402650D03*
D11*
X116500000Y-94902651D03*
%TD*%
D19*
%TO.C,R10*%
X181287500Y-125010000D03*
X179637500Y-125010000D03*
%TD*%
D20*
%TO.C,M1*%
X62999999Y-120324999D03*
D21*
X62999999Y-122864999D03*
X62999999Y-125404999D03*
%TD*%
D13*
%TO.C,C11*%
X138000000Y-112000000D03*
X139550000Y-112000000D03*
%TD*%
D22*
%TO.C,R2*%
X127000000Y-93400000D03*
X127000000Y-91750000D03*
%TD*%
D19*
%TO.C,R12*%
X137950000Y-104730000D03*
X136300000Y-104730000D03*
%TD*%
D12*
%TO.C,D1*%
X176425000Y-120000000D03*
X178000000Y-120000000D03*
%TD*%
D20*
%TO.C,J1*%
X171579999Y-132499999D03*
D21*
X174119999Y-132499999D03*
X176659999Y-132499999D03*
X179199999Y-132499999D03*
X181739999Y-132499999D03*
%TD*%
D22*
%TO.C,R3*%
X143275000Y-113575000D03*
X143275000Y-111925000D03*
%TD*%
D20*
%TO.C,U5*%
X62999999Y-134524999D03*
D21*
X62999999Y-131984999D03*
X62999999Y-129444999D03*
%TD*%
D23*
%TO.C,C1*%
X94750000Y-90140000D03*
X94750000Y-91690000D03*
%TD*%
D24*
%TO.C,C4*%
X124025000Y-100500000D03*
X122475000Y-100500000D03*
%TD*%
D14*
%TO.C,H2*%
X189000000Y-68000000D03*
%TD*%
D19*
%TO.C,R14*%
X137925000Y-107700000D03*
X136275000Y-107700000D03*
%TD*%
D25*
%TO.C,U3*%
X92000000Y-93000000D03*
D26*
X85700000Y-90720000D03*
D25*
X92000000Y-88440000D03*
%TD*%
D13*
%TO.C,C2*%
X88950000Y-95690000D03*
X90500000Y-95690000D03*
%TD*%
%TO.C,C12*%
X131000000Y-112000000D03*
X132550000Y-112000000D03*
%TD*%
D22*
%TO.C,R4*%
X136275000Y-113575000D03*
X136275000Y-111925000D03*
%TD*%
%TO.C,R5*%
X129275000Y-113575000D03*
X129275000Y-111925000D03*
%TD*%
%TO.C,R7*%
X75000000Y-131825000D03*
X75000000Y-130175000D03*
%TD*%
D27*
%TO.C,R8*%
X179637500Y-119990000D03*
X181287500Y-119990000D03*
%TD*%
D23*
%TO.C,C7*%
X137000000Y-97225000D03*
X137000000Y-98775000D03*
%TD*%
D28*
%TO.C,RV1*%
X92799999Y-124699999D03*
D29*
X97800000Y-124700000D03*
X102800000Y-124700000D03*
%TD*%
D14*
%TO.C,H1*%
X52000000Y-68000000D03*
%TD*%
D30*
%TO.C,U1*%
X127250000Y-94900000D03*
X127250000Y-95550000D03*
X127250000Y-96200000D03*
X127250000Y-96850000D03*
X127250000Y-97500000D03*
X127250000Y-98150000D03*
X127250000Y-98800000D03*
X127250000Y-99450000D03*
X127250000Y-100100000D03*
X127250000Y-100750000D03*
X132975000Y-100750000D03*
X132975000Y-100100000D03*
X132975000Y-99450000D03*
X132975000Y-98800000D03*
X132975000Y-98150000D03*
X132975000Y-97500000D03*
X132975000Y-96850000D03*
X132975000Y-96200000D03*
X132975000Y-95550000D03*
X132975000Y-94900000D03*
%TD*%
D28*
%TO.C,RV4*%
X151149999Y-124699999D03*
D29*
X156150000Y-124700000D03*
X161150000Y-124700000D03*
%TD*%
D12*
%TO.C,FB1*%
X122462500Y-97500000D03*
X124037500Y-97500000D03*
%TD*%
D31*
%TO.C,U2*%
X65775000Y-76000000D03*
X65775000Y-113000000D03*
X180775000Y-76000000D03*
X180775000Y-113000000D03*
D21*
X106274999Y-113999999D03*
X103734999Y-113999999D03*
X101194999Y-113999999D03*
X98654999Y-113999999D03*
X96114999Y-113999999D03*
X93574999Y-113999999D03*
X91034999Y-113999999D03*
X88494999Y-113999999D03*
X85954999Y-113999999D03*
X83414999Y-113999999D03*
X80874999Y-113999999D03*
X78334999Y-113999999D03*
X75794999Y-113999999D03*
X73254999Y-113999999D03*
X111354999Y-113999999D03*
X108814999Y-113999999D03*
%TD*%
D27*
%TO.C,R1*%
X122425000Y-96000000D03*
X124075000Y-96000000D03*
%TD*%
D13*
%TO.C,C10*%
X145000000Y-112000000D03*
X146550000Y-112000000D03*
%TD*%
D14*
%TO.C,H3*%
X189000000Y-133000000D03*
%TD*%
D24*
%TO.C,C5*%
X124050000Y-94500000D03*
X122500000Y-94500000D03*
%TD*%
D19*
%TO.C,R9*%
X181287500Y-122500000D03*
X179637500Y-122500000D03*
%TD*%
D24*
%TO.C,C6*%
X124025000Y-99000000D03*
X122475000Y-99000000D03*
%TD*%
D28*
%TO.C,RV2*%
X112249999Y-124699999D03*
D29*
X117250000Y-124700000D03*
X122250000Y-124700000D03*
%TD*%
D19*
%TO.C,R13*%
X137925000Y-106200000D03*
X136275000Y-106200000D03*
%TD*%
D22*
%TO.C,R6*%
X122275000Y-113575000D03*
X122275000Y-111925000D03*
%TD*%
D32*
%TO.C,RV5*%
X79000000Y-121000000D03*
X84000000Y-123500000D03*
X79000000Y-126000000D03*
%TD*%
D23*
%TO.C,C8*%
X135500000Y-97225000D03*
X135500000Y-98775000D03*
%TD*%
D12*
%TO.C,D2*%
X176425000Y-122500000D03*
X178000000Y-122500000D03*
%TD*%
D28*
%TO.C,RV3*%
X131699999Y-124699999D03*
D29*
X136700000Y-124700000D03*
X141700000Y-124700000D03*
%TD*%
M02*
